<svg width="100" height="93" viewBox="0 0 100 93" fill="none" xmlns="http://www.w3.org/2000/svg">
<path d="M15.7551 92.3732H84.2949C94.7817 92.3732 100 87.155 100 76.8188V15.5545C100 5.21826 94.7817 0 84.2949 0H15.7551C5.26843 0 0 5.16808 0 15.5545V76.8188C0 87.2051 5.26843 92.3732 15.7551 92.3732ZM15.0025 84.295C10.5369 84.295 8.07827 81.9368 8.07827 77.2704V29.9548C8.07827 25.3387 10.5369 22.9302 15.0025 22.9302H84.9473C89.4129 22.9302 91.9217 25.3387 91.9217 29.9548V77.2704C91.9217 81.9368 89.4129 84.295 84.9473 84.295H15.0025ZM40.2409 40.9433H43.2012C44.9573 40.9433 45.5093 40.4415 45.5093 38.6853V35.725C45.5093 33.9689 44.9573 33.417 43.2012 33.417H40.2409C38.4847 33.417 37.8825 33.9689 37.8825 35.725V38.6853C37.8825 40.4415 38.4847 40.9433 40.2409 40.9433ZM56.8991 40.9433H59.8595C61.6156 40.9433 62.2178 40.4415 62.2178 38.6853V35.725C62.2178 33.9689 61.6156 33.417 59.8595 33.417H56.8991C55.143 33.417 54.5409 33.9689 54.5409 35.725V38.6853C54.5409 40.4415 55.143 40.9433 56.8991 40.9433ZM73.5574 40.9433H76.5178C78.2739 40.9433 78.876 40.4415 78.876 38.6853V35.725C78.876 33.9689 78.2739 33.417 76.5178 33.417H73.5574C71.8012 33.417 71.2493 33.9689 71.2493 35.725V38.6853C71.2493 40.4415 71.8012 40.9433 73.5574 40.9433ZM23.5825 57.3507H26.4927C28.2991 57.3507 28.851 56.8489 28.851 55.0928V52.1325C28.851 50.3763 28.2991 49.8745 26.4927 49.8745H23.5825C21.7762 49.8745 21.2243 50.3763 21.2243 52.1325V55.0928C21.2243 56.8489 21.7762 57.3507 23.5825 57.3507ZM40.2409 57.3507H43.2012C44.9573 57.3507 45.5093 56.8489 45.5093 55.0928V52.1325C45.5093 50.3763 44.9573 49.8745 43.2012 49.8745H40.2409C38.4847 49.8745 37.8825 50.3763 37.8825 52.1325V55.0928C37.8825 56.8489 38.4847 57.3507 40.2409 57.3507ZM56.8991 57.3507H59.8595C61.6156 57.3507 62.2178 56.8489 62.2178 55.0928V52.1325C62.2178 50.3763 61.6156 49.8745 59.8595 49.8745H56.8991C55.143 49.8745 54.5409 50.3763 54.5409 52.1325V55.0928C54.5409 56.8489 55.143 57.3507 56.8991 57.3507ZM73.5574 57.3507H76.5178C78.2739 57.3507 78.876 56.8489 78.876 55.0928V52.1325C78.876 50.3763 78.2739 49.8745 76.5178 49.8745H73.5574C71.8012 49.8745 71.2493 50.3763 71.2493 52.1325V55.0928C71.2493 56.8489 71.8012 57.3507 73.5574 57.3507ZM23.5825 73.8083H26.4927C28.2991 73.8083 28.851 73.2563 28.851 71.5002V68.5399C28.851 66.7837 28.2991 66.2819 26.4927 66.2819H23.5825C21.7762 66.2819 21.2243 66.7837 21.2243 68.5399V71.5002C21.2243 73.2563 21.7762 73.8083 23.5825 73.8083ZM40.2409 73.8083H43.2012C44.9573 73.8083 45.5093 73.2563 45.5093 71.5002V68.5399C45.5093 66.7837 44.9573 66.2819 43.2012 66.2819H40.2409C38.4847 66.2819 37.8825 66.7837 37.8825 68.5399V71.5002C37.8825 73.2563 38.4847 73.8083 40.2409 73.8083ZM56.8991 73.8083H59.8595C61.6156 73.8083 62.2178 73.2563 62.2178 71.5002V68.5399C62.2178 66.7837 61.6156 66.2819 59.8595 66.2819H56.8991C55.143 66.2819 54.5409 66.7837 54.5409 68.5399V71.5002C54.5409 73.2563 55.143 73.8083 56.8991 73.8083Z" fill="white"/>
</svg>
