<svg width="91" height="100" viewBox="0 0 91 100" fill="none" xmlns="http://www.w3.org/2000/svg">
<path d="M3.8736 100C6.01428 100 7.74715 98.3181 7.74715 96.1774V67.839C9.02136 67.2783 13.8124 65.4434 21.3048 65.4434C40.1631 65.4434 51.9878 74.6687 69.9287 74.6687C77.8797 74.6687 80.8359 73.8023 84.7095 72.0693C88.2264 70.4893 90.5199 67.839 90.5199 63.1499V11.4169C90.5199 8.66463 88.1753 7.08461 85.2192 7.08461C82.7217 7.08461 78.0326 9.22528 69.2661 9.22528C51.3252 9.22528 39.5515 0 20.6422 0C12.6912 0 9.68398 0.866463 5.81042 2.59939C2.29357 4.17941 0 6.82977 0 11.4679V96.1774C0 98.2671 1.78389 100 3.8736 100ZM69.9287 66.9725C52.9562 66.9725 40.9277 57.7472 21.3048 57.7472C15.6982 57.7472 10.6014 58.4098 7.74715 59.5821V11.7227C8.46072 10.0408 12.6912 7.69623 20.6422 7.69623C38.5831 7.69623 50.5607 16.9215 69.2661 16.9215C74.8217 16.9215 79.4088 16.2589 82.8237 15.2906V62.946C82.1101 64.628 77.8797 66.9725 69.9287 66.9725Z" fill="white"/>
</svg>
