<svg width="71" height="132" viewBox="0 0 71 132" fill="none" xmlns="http://www.w3.org/2000/svg">
<path d="M55.0143 127.204V131.883H15.2069V127.204H55.0143ZM65.5422 116.676V15.2069C65.5422 9.39264 60.8285 4.67921 55.0143 4.67905H15.2069C9.39254 4.67905 4.67905 9.39254 4.67905 15.2069V116.676C4.67905 122.49 9.39254 127.204 15.2069 127.204V131.883L14.814 131.878C6.59702 131.67 0 124.943 0 116.676V15.2069C1.18698e-06 6.93976 6.59702 0.212991 14.814 0.00456939L15.2069 0H55.0143C63.4127 0.000159164 70.2212 6.80847 70.2212 15.2069V116.676L70.2155 117.069C70.0071 125.286 63.2813 131.883 55.0143 131.883V127.204C60.8285 127.204 65.5422 122.49 65.5422 116.676Z" fill="white"/>
<path d="M67.5596 118.128V121.637H2.90842V118.128H67.5596ZM70.2212 84.9658V88.4751H0V84.9658H70.2212ZM27.0234 64.1865V67.6958H0V64.1865H27.0234ZM70.2212 64.1865V67.6958H42.8906V64.1865H70.2212ZM70.2212 44.2114V47.7207H0V44.2114H70.2212ZM67.5596 10.1169V13.6262H2.90842V10.1169H67.5596Z" fill="white"/>
<path d="M41.5684 65.9417C41.5684 62.3755 38.677 59.4842 35.1108 59.484C31.5444 59.484 28.6531 62.3754 28.6531 65.9417C28.6532 69.5079 31.5445 72.3994 35.1108 72.3994V75.9087L34.5978 75.895C29.5016 75.6368 25.4148 71.5508 25.1563 66.4546L25.1438 65.9417C25.1438 60.4373 29.6063 55.9747 35.1108 55.9747L35.6237 55.9873C40.8896 56.2544 45.0777 60.6094 45.0777 65.9417L45.064 66.4546C44.7969 71.7205 40.443 75.9085 35.1108 75.9087V72.3994C38.6769 72.3992 41.5683 69.5078 41.5684 65.9417Z" fill="white"/>
<path d="M27.7815 25.566C27.7815 21.4837 24.4716 18.174 20.3893 18.1739C16.3069 18.1739 12.9972 21.4836 12.9972 25.566C12.9973 29.6483 16.307 32.9581 20.3893 32.9581V36.4674L19.8284 36.4526C14.2543 36.1702 9.78425 31.701 9.50161 26.1269L9.48791 25.566C9.48791 19.5455 14.3688 14.6646 20.3893 14.6646L20.9502 14.6783C26.71 14.9704 31.2907 19.7337 31.2907 25.566L31.2759 26.1269C30.9838 31.8866 26.2215 36.4673 20.3893 36.4674V32.9581C24.4715 32.958 27.7813 29.6482 27.7815 25.566Z" fill="white"/>
<path d="M27.7815 106.318C27.7815 102.235 24.4716 98.9257 20.3893 98.9256C16.3069 98.9256 12.9972 102.235 12.9972 106.318C12.9973 110.4 16.307 113.71 20.3893 113.71V117.219L19.8284 117.204C14.2543 116.922 9.78425 112.453 9.50161 106.879L9.48791 106.318C9.48791 100.297 14.3688 95.4163 20.3893 95.4163L20.9502 95.43C26.71 95.722 31.2907 100.485 31.2907 106.318L31.2759 106.879C30.9838 112.638 26.2215 117.219 20.3893 117.219V113.71C24.4715 113.71 27.7813 110.4 27.7815 106.318Z" fill="white"/>
<path d="M58.1044 25.566C58.1044 21.4837 54.7946 18.174 50.7123 18.1739C46.6299 18.1739 43.3202 21.4836 43.3202 25.566C43.3203 29.6483 46.63 32.9581 50.7123 32.9581V36.4674L50.1514 36.4526C44.5773 36.1702 40.1072 31.701 39.8246 26.1269L39.8109 25.566C39.8109 19.5455 44.6918 14.6646 50.7123 14.6646L51.2732 14.6783C57.0329 14.9704 61.6137 19.7337 61.6137 25.566L61.5989 26.1269C61.3068 31.8866 56.5445 36.4673 50.7123 36.4674V32.9581C54.7945 32.958 58.1043 29.6482 58.1044 25.566Z" fill="white"/>
<path d="M58.1044 106.318C58.1044 102.235 54.7946 98.9257 50.7123 98.9256C46.6299 98.9256 43.3202 102.235 43.3202 106.318C43.3203 110.4 46.63 113.71 50.7123 113.71V117.219L50.1514 117.204C44.5773 116.922 40.1072 112.453 39.8246 106.879L39.8109 106.318C39.8109 100.297 44.6918 95.4163 50.7123 95.4163L51.2732 95.43C57.0329 95.722 61.6137 100.485 61.6137 106.318L61.5989 106.879C61.3068 112.638 56.5445 117.219 50.7123 117.219V113.71C54.7945 113.71 58.1043 110.4 58.1044 106.318Z" fill="white"/>
</svg>
