<svg width="113" height="51" viewBox="0 0 113 51" fill="none" xmlns="http://www.w3.org/2000/svg">
<path d="M112.949 12.4216C112.949 4.24828 108.655 0 100.388 0H12.4678C4.2021 0 0 4.24828 0 12.4216V37.6342C0 45.8075 4.24828 50.0557 12.5139 50.0557H100.435C108.7 50.0557 112.949 45.8075 112.949 37.6342V12.4216ZM105.468 13.7607V36.295C105.468 40.451 103.252 42.6213 99.2345 42.6213H13.6222C9.69714 42.6213 7.43448 40.451 7.43448 36.295V13.7607C7.43448 9.60482 9.69714 7.43448 13.6683 7.43448H99.2799C103.252 7.43448 105.468 9.60482 105.468 13.7607ZM17.6395 4.84857H13.8993V29.1838C13.8993 30.2458 14.7305 31.0309 15.7925 31.0309C16.9008 31.0309 17.6395 30.1997 17.6395 29.1376V4.84857ZM25.8129 4.84857H22.0725V21.0567C22.0725 22.1649 22.9038 22.9038 23.9197 22.9038C25.0741 22.9038 25.8129 22.1187 25.8129 21.0105V4.84857ZM33.94 4.84857H30.1535V21.0567C30.1535 22.1649 31.0309 22.9038 32.0468 22.9038C33.155 22.9038 33.94 22.1187 33.94 21.0105V4.84857ZM42.021 4.84857H38.2806V21.0567C38.2806 22.1649 39.1118 22.9038 40.1739 22.9038C41.2821 22.9038 42.021 22.1187 42.021 21.0105V4.84857ZM50.1943 4.84857H46.454V21.0567C46.454 22.1649 47.2851 22.9038 48.301 22.9038C49.4554 22.9038 50.1943 22.1187 50.1943 21.0105V4.84857ZM58.3676 4.84857H54.6273V29.1838C54.6273 30.2458 55.4585 31.0309 56.4744 31.0309C57.6288 31.0309 58.3676 30.1997 58.3676 29.1376V4.84857ZM66.4947 4.84857H62.7544V21.0567C62.7544 22.1649 63.5856 22.9038 64.6014 22.9038C65.7097 22.9038 66.4947 22.1187 66.4947 21.0105V4.84857ZM74.6218 4.84857H70.8816V21.0567C70.8816 22.1649 71.7127 22.9038 72.7748 22.9038C73.883 22.9038 74.6218 22.1187 74.6218 21.0105V4.84857ZM82.749 4.84857H79.0087V21.0567C79.0087 22.1649 79.8398 22.9038 80.8557 22.9038C82.0102 22.9038 82.749 22.1187 82.749 21.0105V4.84857ZM90.9223 4.84857H87.182V21.0567C87.182 22.1649 88.0132 22.9038 89.029 22.9038C90.1373 22.9038 90.9223 22.1187 90.9223 21.0105V4.84857ZM99.0491 4.84857H95.3089V29.1838C95.3089 30.2458 96.1402 31.0309 97.2022 31.0309C98.3105 31.0309 99.0491 30.1997 99.0491 29.1376V4.84857Z" fill="white"/>
</svg>
