<svg width="94" height="100" viewBox="0 0 94 100" fill="none" xmlns="http://www.w3.org/2000/svg">
<path d="M0.693963 84.4769C-1.76699 94.3208 2.3977 100 11.9103 100H81.6687C91.1813 100 95.3459 94.3208 92.885 84.4769L82.426 42.2148C80.6749 35.2579 75.6583 31.2352 68.6067 31.2352H24.9722C17.9206 31.2352 12.8567 35.2579 11.153 42.2148L0.693963 84.4769ZM8.07682 84.9502L18.2519 44.8651C19.293 40.795 21.612 38.8546 25.5402 38.8546H68.0389C71.9669 38.8546 74.2859 40.795 75.327 44.8651L85.5022 84.9502C86.7799 89.8248 84.8869 92.3803 80.6749 92.3803H12.8567C8.69205 92.3803 6.79902 89.8248 8.07682 84.9502ZM42.9561 36.7723H50.5755V23.2844H42.9561V36.7723ZM46.7895 26.9758C54.125 26.9758 60.3247 20.8708 60.3247 13.5352C60.3247 6.15238 54.125 0 46.7895 0C39.4066 0 33.2542 6.15238 33.2542 13.5352C33.2542 20.9181 39.4539 26.9758 46.7895 26.9758ZM46.7895 20.3975C43.0508 20.3975 39.8799 17.274 39.8799 13.5352C39.8799 9.79646 43.0034 6.57831 46.7895 6.57831C50.5282 6.57831 53.6991 9.79646 53.6991 13.5352C53.6991 17.274 50.5755 20.3975 46.7895 20.3975Z" fill="white"/>
</svg>
