<svg width="225" height="256" viewBox="0 0 225 256" fill="none" xmlns="http://www.w3.org/2000/svg">
<path d="M112.566 0C115.192 2.48596 135.578 21.0049 161.646 22.2023C181.816 23.1292 212.205 8.19682 212.205 8.19682C212.205 8.19682 244.308 80.9229 206.195 159.321C173.058 227.482 112.456 256.002 112.456 256.002C112.39 256.002 51.7886 227.482 18.6513 159.321C-19.4621 80.9229 12.6412 8.19682 12.6412 8.19682C12.6412 8.19682 43.0298 23.1292 63.2005 22.2023C89.2681 21.0049 109.655 2.48596 112.281 0H112.566Z" fill="#0B1E53"/>
<path d="M112.566 0C115.192 2.48596 135.578 21.0049 161.646 22.2023C181.816 23.1292 212.205 8.19682 212.205 8.19682C212.205 8.19682 244.308 80.9229 206.195 159.321C173.058 227.482 112.456 256.002 112.456 256.002H112.39C112.39 256.002 51.7886 227.482 18.6513 159.321C-19.4621 80.9229 12.6412 8.19682 12.6412 8.19682C12.6412 8.19682 43.0298 23.1292 63.2005 22.2023C89.2681 21.0049 109.655 2.48596 112.281 0H112.566Z" fill="#0B1E53"/>
<path d="M196.799 22.0237C201.259 20.4289 205.247 18.8125 208.361 17.48C208.878 19.0014 209.45 20.769 210.05 22.7651C212.378 30.5244 215.098 41.6589 216.672 55.1565C219.825 82.2099 218.357 118.592 200.021 156.311C184.006 189.252 161.322 212.673 142.577 227.878C133.238 235.455 124.902 240.97 118.9 244.589C116.196 246.221 113.978 247.459 112.374 248.32C110.906 247.482 108.668 246.231 105.946 244.589C99.9441 240.97 91.6088 235.455 82.2694 227.878C63.5245 212.673 40.8399 189.252 24.8257 156.311C6.48911 118.592 5.0212 82.2094 8.17463 55.1565C9.7479 41.6589 12.4681 30.5244 14.7973 22.7651C15.3961 20.769 15.9678 19.0014 16.4854 17.48C19.5986 18.8125 23.5874 20.4299 28.0478 22.0237C38.2736 25.6793 51.9973 29.6015 63.5152 29.0725C86.1948 28.0306 104.642 15.2759 112.737 8.70279C119.343 14.7048 138.146 28.0067 161.332 29.0725C172.849 29.6015 186.573 25.6793 196.799 22.0237Z" fill="#A0ACAF"/>
<path d="M155.348 34.0708C136.348 31.6686 120.819 22.1886 112.606 15.7628C102.919 22.9555 85.2151 33.5829 63.7669 34.568C51.104 35.1503 36.5142 30.8919 26.201 27.2056C23.9745 26.4094 21.8624 25.6083 19.9124 24.8375C17.6846 32.3458 15.1262 42.9723 13.6315 55.7951C11.4342 74.6429 11.5531 98.0877 18.3258 123.302C76.0364 115.031 125.575 81.4122 155.348 34.0708ZM55.3931 193.599C65.5574 205.895 76.1581 215.84 85.7277 223.603C94.8213 230.98 102.936 236.352 108.78 239.877C110.124 240.687 111.348 241.401 112.416 242.014C113.496 241.402 114.718 240.69 116.066 239.876C121.91 236.352 130.025 230.98 139.119 223.603C157.426 208.753 179.51 185.932 195.081 153.902C206.729 129.942 211.357 106.528 212.298 85.8282C175.27 138.693 119.877 177.713 55.3931 193.599Z" fill="#0B1E53"/>
<path d="M212.472 75.7733C212.404 68.6859 211.937 61.9895 211.216 55.7951C209.72 42.9724 207.162 32.3458 204.934 24.8376C202.984 25.6083 200.872 26.4094 198.645 27.2056C188.444 30.8523 174.058 35.0559 161.49 34.5822C131.183 84.3166 79.8495 119.794 19.8561 128.629C22.3736 136.92 25.6199 145.375 29.7652 153.902C36.1747 167.086 43.6883 178.706 51.5868 188.856C118.608 173.035 175.815 131.758 212.472 75.7733Z" fill="white"/>
<path d="M199.04 81.0927C197.329 81.0927 195.913 79.698 195.883 77.9833C195.853 76.2382 197.246 74.7941 198.987 74.7652L199.043 74.7643C200.754 74.7643 202.17 76.1589 202.201 77.8727C202.231 79.6158 200.838 81.0609 199.097 81.0917L199.04 81.0927ZM161.665 121.343C161.301 121.349 160.971 121.209 160.681 120.926C160.268 120.522 160.023 119.715 161.196 118.165C162.448 116.53 162.216 115.189 160.369 113.384L135.194 88.7767C133.914 87.5244 132.97 86.8036 131.925 86.8197C131.456 86.827 130.953 86.9807 130.382 87.2919C130.105 87.4534 129.846 87.6335 129.595 87.8092C129.04 88.1963 128.56 88.5305 128.057 88.5383C127.72 88.5437 127.407 88.3979 127.097 88.0964C126.762 87.7681 126.677 87.3526 126.843 86.8618C126.984 86.4502 127.301 85.9897 127.785 85.4925C128.738 84.5153 129.781 83.5591 130.789 82.6342C131.815 81.6936 132.877 80.7198 133.866 79.7049C135.183 78.3532 136.459 76.8984 137.586 75.6143C138.411 74.6742 139.124 73.8619 139.661 73.3094C140.763 72.1795 141.517 71.672 142.109 71.6627C142.415 71.6583 142.685 71.7806 142.959 72.0483C143.726 72.799 143.047 74.0058 142.281 75.0872C141.014 76.8235 141.323 77.6867 144.225 80.5226L153.363 89.4564C153.741 89.8263 154.021 89.9002 154.189 89.8978C154.308 89.8958 154.411 89.8542 154.487 89.7759C155.045 89.2034 154.834 87.7519 154.325 84.2452C154.112 82.7692 153.845 80.9332 153.558 78.6356C152.775 72.2768 152.015 68.8146 151.233 68.0531C150.983 67.807 150.687 67.6842 150.354 67.6891C149.933 67.6954 149.44 67.9049 148.889 68.3106C148.096 68.8807 147.404 69.1855 146.889 69.1939C146.607 69.1978 146.375 69.1151 146.202 68.9462C145.175 67.9396 145.819 66.9947 146.667 66.1226C147.193 65.5829 147.774 65.0832 148.387 64.5532C149.115 63.9249 149.941 63.2138 150.831 62.2992C152.184 60.9109 152.965 59.9841 153.72 59.0866C154.35 58.3374 154.946 57.6297 155.807 56.7459C156.986 55.5382 157.618 55.086 158.14 55.0777C158.44 55.0733 158.712 55.2123 159.05 55.5426C159.699 56.1773 159.939 56.7435 157.823 59.2578C154.411 63.4385 156.237 77.1352 157.272 78.1453C157.678 78.5426 158.243 78.6934 159.755 79.0956C160.492 79.2923 161.408 79.5351 162.638 79.8952L184.541 85.955C185.062 86.091 185.518 86.2241 185.945 86.3479C187 86.6548 187.91 86.9195 189.252 87.0614C189.52 87.0957 189.781 87.1099 190.03 87.1065C190.967 87.0918 191.646 86.8173 192.188 86.5501C192.297 86.4972 192.4 86.4434 192.499 86.3925C192.91 86.1806 193.264 85.9981 193.623 85.9927C193.959 85.9873 194.272 86.137 194.605 86.462C194.976 86.8251 195.024 87.3095 194.746 87.8997C194.554 88.3078 194.211 88.7625 193.697 89.29C193.002 90.002 192.112 90.8227 191.169 91.6898C190.028 92.741 188.735 93.9326 187.508 95.1907C186.606 96.1151 185.759 97.0978 184.94 98.0476C184.12 98.9994 183.272 99.983 182.368 100.911C181.648 101.651 181.041 102.015 180.513 102.023C180.205 102.028 179.923 101.908 179.675 101.667C179.112 101.116 179.343 100.543 179.564 99.9899C179.809 99.3821 180.061 98.7538 179.354 98.0633C178.589 97.3131 177.577 96.9456 172.596 95.6101C169.271 94.719 166.746 94.0089 164.717 93.4383C161.187 92.4449 159.416 91.9463 158.522 91.96C158.174 91.9653 157.945 92.0461 157.774 92.2208C157.462 92.5403 157.33 92.7718 157.332 92.9945C157.335 93.2333 157.494 93.4941 157.849 93.8406L167.605 103.378C169.563 105.293 170.793 106.032 171.99 106.014C172.515 106.006 173.054 105.841 173.642 105.513C174.761 104.864 175.36 104.609 175.779 104.603C176.03 104.599 176.232 104.684 176.432 104.88C177.055 105.49 176.818 106.606 175.855 107.594C174.958 108.514 173.986 109.398 173.047 110.252C172.087 111.125 171.094 112.028 170.159 112.989C168.98 114.198 167.851 115.468 166.762 116.697C165.675 117.922 164.551 119.188 163.377 120.394C162.77 121.016 162.195 121.335 161.665 121.343ZM145.702 133.954C143.991 133.954 142.575 132.559 142.545 130.845C142.53 130 142.845 129.2 143.431 128.592C144.017 127.983 144.804 127.641 145.649 127.627L145.705 127.626C147.416 127.626 148.832 129.02 148.862 130.735C148.893 132.479 147.5 133.923 145.758 133.953L145.702 133.954ZM114.072 155.926C113.718 155.926 113.431 155.728 113.168 155.301C112.572 154.337 113.22 153.682 113.97 152.924C115.039 151.841 116.371 150.494 114.582 147.597L96.1613 117.766C95.2255 116.251 94.2286 114.891 92.3291 114.891C92.1537 114.891 91.9699 114.903 91.7818 114.926C91.4153 114.99 91.0361 115.143 90.6696 115.291C90.2078 115.476 89.7724 115.651 89.3746 115.651H89.3717C88.969 115.651 88.6587 115.466 88.4256 115.085C88.1349 114.617 88.1769 114.152 88.5541 113.661C88.863 113.258 89.3951 112.835 90.2796 112.288C92.0994 111.161 93.9818 110.071 95.9751 108.919C98.3539 107.544 101.05 105.987 104.172 104.054C107.791 101.813 109.906 100.369 111.606 99.2084C112.696 98.4646 113.637 97.822 114.669 97.1834C115.435 96.7092 116.015 96.4777 116.441 96.4777C116.813 96.4777 117.09 96.6476 117.314 97.0107L122.465 105.352C122.953 106.141 123.175 106.759 123.145 107.239C123.115 107.69 122.875 108.039 122.388 108.34C122.125 108.504 121.838 108.583 121.511 108.583C120.538 108.583 119.371 107.86 118.021 107.024C117.76 106.862 117.494 106.698 117.219 106.532C115.472 105.477 113.561 104.501 111.419 104.501C110.04 104.501 108.73 104.899 107.409 105.716C104.704 107.393 104.565 108.139 105.511 109.671L113.381 122.417C113.515 122.632 113.769 122.747 114.114 122.747C114.56 122.747 115.11 122.557 115.664 122.215C118.153 120.673 119.244 118.612 118.817 116.254C118.703 115.642 118.581 115.124 118.474 114.668C118.136 113.214 117.965 112.485 118.818 111.958C119.092 111.788 119.345 111.706 119.591 111.706C120.075 111.706 120.507 112.024 120.911 112.681C121.43 113.52 121.909 114.433 122.416 115.4C122.955 116.424 123.51 117.484 124.148 118.518C124.888 119.716 125.719 120.911 126.523 122.066C127.33 123.225 128.164 124.423 128.906 125.627C129.148 126.019 129.229 126.465 129.13 126.884C129.036 127.285 128.791 127.625 128.442 127.84C128.221 127.978 128.002 128.044 127.774 128.044C127.073 128.044 126.339 127.408 125.227 126.446C124.722 126.007 124.148 125.51 123.459 124.968C122.462 124.201 121.67 123.874 120.818 123.874C119.909 123.874 118.875 124.262 117.466 125.134C116.248 125.891 115.839 126.395 116.102 126.821L125.128 141.436C125.911 142.705 126.986 143.376 128.236 143.376C128.868 143.376 129.554 143.207 130.274 142.874C130.464 142.787 130.657 142.687 130.85 142.588C131.409 142.301 131.986 142.004 132.496 142.004C132.918 142.004 133.247 142.205 133.501 142.616C133.766 143.044 133.72 143.498 133.362 143.966C133.071 144.347 132.576 144.745 131.806 145.223C130.151 146.248 128.663 147.073 127.225 147.872C125.784 148.672 124.423 149.427 122.911 150.362C121.729 151.095 120.61 151.875 119.427 152.701C118.248 153.524 117.03 154.374 115.746 155.168C115.035 155.608 114.522 155.926 114.072 155.926ZM101.895 162.232C100.184 162.232 98.7678 160.838 98.737 159.123C98.7063 157.379 100.099 155.934 101.841 155.905L101.895 155.904C103.607 155.904 105.024 157.299 105.055 159.013C105.086 160.757 103.694 162.201 101.952 162.231L101.895 162.232ZM72.3689 175.657C71.9086 175.654 71.5988 175.449 71.4194 175.032C70.8286 173.645 72.1226 172.846 73.3731 172.072C74.8074 171.213 74.8123 170.002 73.3932 166.678L59.5961 134.356C58.9017 132.728 58.4423 131.65 56.8771 131.488L56.754 131.487C56.3108 131.484 55.8353 131.548 55.4527 131.6L55.3872 131.609C54.9777 131.665 54.5911 131.718 54.2564 131.716C53.9065 131.713 53.4169 131.657 53.2204 131.197C52.7669 130.134 53.6544 129.657 54.9562 129.098C55.2196 128.985 55.6183 128.846 56.171 128.652C57.4352 128.211 59.5502 127.472 62.7162 126.116C65.5916 124.886 67.4944 123.934 68.8832 123.24C69.6871 122.838 70.3224 122.52 70.8775 122.281C71.4903 122.02 71.979 121.893 72.3704 121.896C72.8493 121.899 73.1767 122.101 73.3453 122.496C73.6791 123.278 72.6372 124.237 71.7166 125.082C71.5572 125.227 71.4023 125.37 71.2587 125.507C69.9573 126.829 70.0995 127.866 70.9415 129.84L85.4159 163.75C85.9637 165.033 86.6654 165.607 87.6926 165.614C88.0718 165.617 88.4549 165.544 88.8131 165.464C89.3815 165.338 89.9312 165.215 90.4282 165.218C91.2066 165.223 91.7232 165.551 92.0085 166.219C92.1825 166.627 92.1229 166.986 91.8258 167.315C91.5712 167.596 91.1363 167.862 90.4575 168.153C89.9024 168.39 89.2344 168.631 88.388 168.935C86.9264 169.459 84.9253 170.179 82.05 171.41C79.1746 172.642 77.2722 173.592 75.8829 174.287C75.0791 174.69 74.4433 175.008 73.8872 175.245C73.2251 175.528 72.7423 175.659 72.3689 175.657ZM112.39 216.059L107.343 204.605L95.9057 199.552L107.343 194.497L112.39 183.044L117.436 194.497L128.874 199.552L117.436 204.605L112.39 216.059ZM97.0003 51.2959L95.396 59.0239H96.8625L97.123 59.0254C97.9947 59.0254 99.0796 59.0254 99.5052 58.0706C99.6264 57.8167 99.7066 57.6302 99.7681 57.4883C99.7931 57.4306 99.8121 57.3846 99.8307 57.3449C99.8756 57.3161 99.9338 57.2838 100.009 57.2392C100.177 57.1404 100.405 57.0043 100.72 56.8017C101.434 56.3525 104.013 56.3525 105.253 56.3525H105.69L106.116 56.3535H111.857C109.922 59.2309 107.311 63.7497 105.792 66.5254C103.324 71.0588 100.25 76.7016 100.031 80.2299C99.9934 80.7775 100.135 81.2258 100.45 81.5644C100.982 82.137 101.865 82.252 103.115 82.252C104.388 82.252 106.311 82.252 106.452 80.4619C107.092 72.4447 111.62 61.8177 117.219 55.1932L117.444 54.9275V51.2959H97.0003ZM86.7529 63.8911L86.7519 64.4304C85.8557 65.9127 84.6335 67.3558 82.4614 67.3558C79.4424 67.3558 78.0683 64.1246 78.0683 61.1228C78.0683 60.8341 78.1142 54.0662 82.1052 54.0662C83.3826 54.0662 84.3438 54.4068 85.0416 55.11C86.7803 56.857 86.7661 60.5938 86.7529 63.8911ZM82.3593 50.7919C76.6072 50.7919 72.1002 55.4506 72.1002 61.3973C72.1002 66.22 74.9105 71.0872 81.1889 71.0872C83.3786 71.0872 85.1945 70.5141 86.618 69.3813C86.5423 71.8335 86.2921 74.201 85.5048 76.0332C84.7787 77.7396 83.0234 78.8866 81.1381 78.8866C80.1725 78.8866 79.4654 78.6444 79.0363 78.1653C78.5755 77.6505 78.4011 76.8313 78.5193 75.7293L78.5613 75.3407L78.3195 75.0363C77.6632 74.2093 76.7538 73.8076 75.5419 73.8076C74.0343 73.8076 72.6079 75.3368 72.6079 76.9547C72.6079 78.7702 73.6913 80.2138 75.9269 81.3707C77.3592 82.0988 79.2748 82.252 80.6289 82.252C85.0479 82.252 88.8728 79.6608 90.61 75.4934C92.3545 71.3505 92.7205 66.8097 92.7205 63.7311C92.7205 55.1453 89.2344 50.7919 82.3593 50.7919ZM59.5169 79.0246C57.4626 79.0246 54.6151 77.1127 54.6151 73.5232C54.6151 71.0187 55.8861 68.9599 58.1198 67.8138C61.7257 69.7439 64.063 71.3035 64.063 74.2553C64.063 77.0638 62.1934 79.0246 59.5169 79.0246ZM59.0077 54.0192C62.66 54.0192 62.9444 57.1443 62.9444 58.1025C62.9444 60.0746 62.2579 61.437 60.5304 62.8116C58.1921 61.3773 55.5822 59.7511 55.5822 57.5539C55.5822 56.3217 56.5873 54.0192 59.0077 54.0192ZM63.8182 64.6766C65.8364 63.4815 68.6071 61.2226 68.6071 57.8274C68.6071 53.686 64.8488 50.7924 59.4676 50.7924C53.5439 50.7924 49.7162 53.8778 49.7162 58.652C49.7162 62.3291 52.1815 64.4387 54.5946 65.9396C50.9823 67.6773 48.4443 70.9428 48.4443 74.1168C48.4443 79.1343 52.5895 82.2515 59.2623 82.2515C65.9713 82.2515 69.9803 77.6505 69.9803 73.2027C69.9803 69.3147 67.5736 66.8816 63.8182 64.6766ZM44.0716 78.9645L43.9811 78.9478C43.6473 78.8881 43.4455 78.8509 42.7816 78.044L42.7617 78.019L42.7398 77.995C42.4061 77.6412 42.3374 76.6278 42.3374 75.2159V50.7924H40.4723C39.9674 50.7924 39.4773 51.0713 38.9597 51.3659C38.8234 51.4432 38.6913 51.5191 38.5363 51.5974C36.3688 52.8007 34.7498 53.2994 31.0083 53.9165L30.2132 54.0466V54.8541C30.2132 55.4937 30.2132 56.4602 31.0302 56.9505L31.2874 57.1051L31.5857 57.0831C32.0876 57.0474 32.5735 56.9975 33.0376 56.9495C33.7294 56.8781 34.3822 56.8115 34.9266 56.8115H34.9554L34.9835 56.8096C35.04 56.8066 35.0969 56.8047 35.1515 56.8047C35.543 56.8047 35.7268 56.8942 35.7514 56.9162C35.987 57.2901 36.2674 58.4279 36.2674 61.7179V75.2615C36.2674 76.6101 36.2674 77.5845 35.9652 77.9045L35.9433 77.9275L35.9236 77.9525C35.3452 78.6562 34.7598 78.7545 34.2898 78.8353L34.1247 78.8641C33.5156 79.0016 33.1796 79.4113 33.1796 80.0205V80.8436C33.1796 81.5003 33.6437 81.977 34.3184 81.976C34.7149 81.9603 35.3074 81.929 35.9631 81.8948C37.2066 81.8297 38.7539 81.7479 39.505 81.7479C40.1273 81.7479 40.9203 81.7988 41.8376 81.8585C42.4397 81.8972 43.0996 81.9403 43.8172 81.976L43.8401 81.977H43.8639C44.5021 81.977 44.9661 81.5003 44.9661 80.8436V80.0205C44.9661 79.4524 44.6233 79.0472 44.0716 78.9645Z" fill="#A0ACAF"/>
</svg>
