<svg width="256" height="256" viewBox="0 0 256 256" fill="none" xmlns="http://www.w3.org/2000/svg">
<path d="M0 128C0 57.3071 57.3071 0 128 0C198.695 0 256.002 57.3071 256.002 128C256.002 198.691 198.695 256 128 256C57.3071 256 0 198.691 0 128Z" fill="#231F20"/>
<path d="M27.07 128.002C27.07 72.2633 72.2557 27.0758 127.997 27.0758C183.738 27.0758 228.923 72.2633 228.923 128.002C228.923 183.742 183.738 228.929 127.997 228.929C72.2557 228.929 27.07 183.742 27.07 128.002Z" fill="#F58427"/>
<path d="M16.7664 128.002C16.7664 66.5677 66.5658 16.7683 127.998 16.7683C189.434 16.7683 239.233 66.5677 239.233 128.002C239.233 189.432 189.434 239.235 127.998 239.235C66.5658 239.235 16.7664 189.432 16.7664 128.002ZM23.0802 128C23.0802 185.947 70.0542 232.919 128 232.919C185.945 232.919 232.921 185.947 232.921 128C232.921 70.0543 185.945 23.0803 128 23.0803C70.0542 23.0803 23.0802 70.0543 23.0802 128Z" fill="white"/>
<path d="M202.7 71.5046C208.848 80.6225 215.042 104.675 203.755 119.722C200.13 124.554 193.138 128.852 192.191 130.025C192.191 130.025 244.789 161.273 171.891 205.279L163.98 183.415C163.98 183.415 189.162 172.786 189.162 156.042C189.162 140.564 169.302 137.767 169.302 137.767V155.793H147.037V111.922C147.037 111.922 154.818 112.142 159.564 110.927C163.549 109.907 169.302 106.883 169.302 106.883V122.396C169.302 122.396 200.829 118.195 187.513 88.7546L202.7 71.5046Z" fill="#231F20"/>
<path fill-rule="evenodd" clip-rule="evenodd" d="M151.28 57.7421C167.521 57.7421 175.785 67.3098 176.736 80.6251C177.755 94.891 166.956 106.152 151.28 107.018C150.509 107.06 131.132 107.018 131.132 107.018V155.791H110.988V57.7157L151.28 57.7421ZM133.023 87.4221H148.258C151.627 87.4221 154.218 84.8419 154.221 81.588C154.225 78.3324 152.84 75.7416 148.258 75.7416H133.023V87.4221Z" fill="#231F20"/>
<path d="M90.0179 183.625C84.6688 180.984 61.1228 162.148 61.3785 130.301L78.6496 130.348V155.794H101.446V89.0037H78.6496V108.084H61.6871C61.7824 107.615 61.9252 107.173 62.091 106.594C64.1527 99.3332 66.6323 94.6984 70.1631 89.0037L57.3398 71.013C57.3398 71.013 38.7759 92.4269 38.7001 123.92C38.5608 182.924 78.9759 203.503 84.2879 205.389L90.0179 183.625Z" fill="#231F20"/>
<path d="M202.662 118.633C213.161 104.512 208.856 85.4824 202.5 73.5145L189.107 88.7258C197.891 109.074 186.07 121.291 167.924 123.679V108.815L166.483 109.489C160.018 112.443 155.427 113.134 148.395 113.127V154.147H167.924V135.918C178.43 137.393 190.519 143.19 190.519 155.766C190.519 168.813 176.222 178.9 165.684 183.862L172.601 202.962C207.553 181.459 211.769 163.501 208.06 151.271C205.344 142.315 198.036 134.127 190.128 129.411C190.722 128.673 198.817 123.808 202.662 118.633ZM210.678 150.475C217.981 176.619 187.017 197.462 171.166 207.031L162.24 182.385C171.954 178.282 187.788 168.358 187.788 155.766C187.788 144.043 175.153 140.158 170.659 139.146V156.884H145.662V110.337C157.314 110.665 160.646 109.602 170.659 104.343V120.483C186.341 117.157 194.013 106.182 185.894 88.2372L202.835 68.9961C211.91 82.4543 217.157 104.493 204.838 120.258C201.56 124.455 198.311 126.668 194.705 129.411C194.705 129.411 207.381 138.673 210.678 150.475Z" fill="white"/>
<path d="M175.36 80.4037C174.819 69.3987 166.918 58.8329 151.28 58.8329L112.346 58.8082V154.144H129.755V105.075C129.755 105.075 150.428 105.117 151.194 105.075C166.195 104.246 176.018 93.8672 175.36 80.4037ZM178.092 80.2697C178.833 95.3803 167.699 107.003 151.345 107.906C150.698 107.943 136.936 107.92 132.489 107.911V156.878H109.611V56.071L151.28 56.0975C171.085 56.0975 177.524 68.6597 178.092 80.2697ZM130.284 90.1565V73.0053H148.259C154.638 73.0053 157.073 76.7918 157.07 81.5888C157.066 86.3824 153.432 90.1565 148.259 90.1565H130.284ZM133.023 87.4211H148.259C151.627 87.4211 154.218 84.8419 154.221 81.588C154.225 78.3306 152.839 75.7407 148.259 75.7407H133.023V87.4211Z" fill="white"/>
<path d="M63.468 106.439H77.2736L77.2718 87.36H102.804V156.885H77.2718L77.2736 131.433L62.7414 131.396C62.9794 148.646 74.3936 174.112 91.6153 182.62L85.2222 206.896C51.0433 192.479 37.3241 157.522 37.3241 123.639C37.3241 104.693 44.7842 83.0903 57.4364 68.5298L71.7958 88.6739C67.937 94.8977 65.5102 99.3473 63.468 106.439ZM60.0025 130.015L60.013 128.653L80.0072 128.708V154.146H100.068V90.0936H80.0072V109.174H59.9989C61.5068 101.848 64.6108 95.1464 68.5137 88.7815L57.2671 73.0024C46.4931 87.0567 40.1 106.06 40.0594 123.646C39.9289 178.121 74.7904 199.299 83.3563 203.246L88.4144 184.033C81.3846 179.809 59.7555 160.901 60.0025 130.015Z" fill="white"/>
</svg>
