<svg width="256" height="236" viewBox="0 0 256 236" fill="none" xmlns="http://www.w3.org/2000/svg">
<path fill-rule="evenodd" clip-rule="evenodd" d="M178.334 129.576C175.977 145.042 170.281 155.903 161.645 164.572C167.812 170.02 176.548 172.942 194.722 176.577L195.12 176.66L195.515 176.774C206.774 180.494 215.442 189.986 219.85 199.501L224.327 209.135H213.711C207.96 209.135 198.706 208.591 189.773 206.308C190.69 210.563 191.204 215.432 191.204 221.238V228.932L183.582 227.967C172.716 226.595 162.076 220.746 154.031 210.993C150.124 219.103 144.26 228.242 137.152 233.236L133.264 235.964L129.364 233.236C122.26 228.242 116.401 219.103 112.479 210.993C104.453 220.746 93.8049 226.595 82.935 227.967L75.3063 228.932V221.238C75.3063 215.432 75.826 210.563 76.7459 206.308C67.8158 208.591 58.5635 209.135 52.8061 209.135H42.1953L46.6601 199.501C51.0732 189.986 59.737 180.494 71.0043 176.774L71.3945 176.66L71.798 176.577C89.9804 172.942 98.7147 170.02 104.887 164.552C97.1281 156.775 91.7372 147.207 89.0087 134.148C83.6751 140.336 75.545 147.906 64.8337 151.401C54.3611 154.83 39.6182 161.149 30.8847 166.52L28.9457 167.725C32.9807 170.973 35.5514 175.962 35.5514 181.552C35.5514 191.363 27.5888 199.326 17.7833 199.326C7.96791 199.326 0 191.363 0 181.552C0 171.734 7.96791 163.779 17.7833 163.779C19.0308 163.779 20.2528 163.909 21.4438 164.144C15.4565 155.626 12.1967 140.498 12.1967 127.751C12.1967 91.8226 37.6209 64.0733 67.2301 64.0733C71.9735 64.0733 81.7086 65.4335 90.3935 67.3869C88.7012 61.2488 87.4766 54.4315 87.4766 47.898C87.4766 25.24 101.07 0 141.863 0C177.157 0 208.462 22.7724 217.551 34.7031L219.923 37.8244C223.184 33.8511 228.144 31.3102 233.681 31.3102C243.495 31.3102 251.454 39.2729 251.454 49.0899C251.454 58.9062 243.495 66.8583 233.681 66.8583C223.856 66.8583 215.901 58.9062 215.901 49.0899C215.901 47.8962 216.029 46.7236 216.249 45.5906H212.161C198.675 45.5906 185.249 46.2901 177.786 51.5303C174.794 53.636 172.255 57.3099 170.51 61.6743C179.098 58.9062 189.767 57.1592 200.023 59.4542C237.277 67.8282 246.198 98.4663 246.198 116.516C246.198 133.101 242.222 147.685 238.679 154.189L238.406 154.683C248.136 154.785 256 162.706 256 172.471C256 182.285 248.034 190.247 238.226 190.247C228.402 190.247 220.445 182.285 220.445 172.471C220.445 165.998 223.902 160.334 229.072 157.231C210.472 153.987 188.643 143.526 178.334 129.576Z" fill="#1A1A18"/>
<path fill-rule="evenodd" clip-rule="evenodd" d="M133.264 98.7078C137.095 96.5467 143.542 93.9222 151.31 93.0816C164.221 94.1511 176.17 105.755 179.877 118.063C184.494 133.415 210.247 147.835 232.72 150.947C235.595 145.684 239.418 132.299 239.418 116.516C239.418 100.254 231.53 73.4888 198.526 66.0689C184.535 62.9262 168.883 68.6943 161.231 73.0051C161.669 62.9589 166.093 51.4722 173.905 45.9818C183.427 39.2852 199.253 38.806 212.161 38.806C204.153 28.2937 174.731 6.76964 141.863 6.76964C105.248 6.76964 94.256 28.5325 94.256 47.8981C94.256 58.4191 97.8857 70.1216 101.22 77.7811C94.5238 74.4297 74.3627 70.8475 67.2301 70.8475C42.1362 70.8475 18.9673 94.7634 18.9673 127.751C18.9673 140.19 22.317 154.06 27.3492 160.751C36.6713 155.014 51.926 148.493 62.7272 144.967C73.6923 141.377 81.8566 132.545 86.6378 126.327C86.2767 114.48 92.7353 95.7175 114.494 92.8499C122.026 93.7978 129.916 96.6752 133.264 98.7078Z" fill="#FFE500"/>
<path fill-rule="evenodd" clip-rule="evenodd" d="M227.223 172.471C227.223 166.398 232.157 161.469 238.226 161.469C244.303 161.469 249.216 166.398 249.216 172.471C249.216 178.54 244.303 183.461 238.226 183.461C232.157 183.461 227.223 178.54 227.223 172.471Z" fill="#FEE50D"/>
<path fill-rule="evenodd" clip-rule="evenodd" d="M6.77582 181.552C6.77582 175.473 11.6937 170.552 17.7833 170.552C23.8473 170.552 28.7721 175.473 28.7721 181.552C28.7721 187.625 23.8473 192.556 17.7833 192.556C11.6937 192.556 6.77582 187.625 6.77582 181.552Z" fill="#FEE50D"/>
<path fill-rule="evenodd" clip-rule="evenodd" d="M133.264 108.39C135.41 106.353 143.542 102.046 151.19 101.332C161.347 103.129 170.912 110.78 172.234 123.81C169.842 147.723 160.156 159.795 143.542 170.081C142.031 170.904 137.448 171.507 133.264 171.507C129.075 171.507 124.648 170.953 122.985 170.081C106.367 159.795 96.6708 147.723 94.2841 123.81C95.6048 110.78 105.165 103.129 115.324 101.332C122.985 102.046 131.105 106.353 133.264 108.39Z" fill="white"/>
<path fill-rule="evenodd" clip-rule="evenodd" d="M138.538 114.074C140.338 111.974 147.129 109.705 153.701 109.225C157.282 109.396 162.237 112.026 163.138 114.356C163.138 116.095 161.769 118.548 160.505 118.784C159.194 118.486 155.851 117.001 152.326 117.001C148.801 116.995 142.958 118.784 141.051 119.619C139.61 118.725 138.538 116.462 138.538 114.074Z" fill="#1A1A18"/>
<path fill-rule="evenodd" clip-rule="evenodd" d="M143.033 122.556C143.681 121.714 146.028 119.992 149.072 119.992C153.194 120.397 157.136 122.076 157.854 124.117C157.854 125.548 156.629 127.863 155.262 128.355C154.478 127.512 148.763 126.079 145.205 126.734C144.26 126.079 143.033 124.463 143.033 122.556Z" fill="#1A1A18"/>
<path fill-rule="evenodd" clip-rule="evenodd" d="M110.465 125.001C110.465 121.97 112.921 119.504 115.956 119.504C119 119.504 121.472 121.97 121.472 125.001C121.472 128.034 119 130.502 115.956 130.502C112.921 130.502 110.465 128.034 110.465 125.001Z" fill="#1A1A18"/>
<path fill-rule="evenodd" clip-rule="evenodd" d="M125.102 127.751C125.102 130.081 124.973 131.758 124.831 132.179C119.773 133.376 117.066 136.902 117.066 141.5C118.442 144.374 121.831 147.057 126.262 147.057C128.243 148.917 131.649 150.039 133.264 150.228C134.869 150.039 138.278 148.917 140.247 147.057C144.667 147.057 148.087 144.374 149.463 141.5C149.221 137.262 146.774 134.508 143.3 133.193C140.551 133.303 138.041 134.875 138.041 135.575C138.815 135.763 140.728 137.02 141.235 138.581C140.99 140.065 139.499 141.558 136.806 141.8C136.331 142.762 134.213 143.782 133.264 144.003C132.305 143.782 130.19 142.762 129.731 141.8C127.022 141.558 125.533 140.065 125.289 138.581C126.549 136.248 130.297 135.042 131.07 134.875C131.07 119.803 130.147 114.845 129.31 113.171C126.924 110.42 119.634 108.034 112.829 107.786C109.234 107.965 104.267 110.71 103.372 113.048C103.372 114.788 104.75 117.239 105.998 117.473C107.323 117.172 110.667 115.554 114.185 115.554C117.722 115.554 121.664 116.102 123.921 117.239C124.558 118.182 125.102 120.994 125.102 127.751Z" fill="#1A1A18"/>
<path fill-rule="evenodd" clip-rule="evenodd" d="M133.264 152.22C137.737 152.694 143.184 154.246 147.355 154.491C149.872 153.77 150.387 152.741 151.215 151.542C152.715 150.29 156.353 152.377 155.73 154.437C154.603 157.18 151.252 159.976 147.489 160.876C143.246 160.693 137.264 159.524 133.264 159.398C129.257 159.524 123.279 160.693 119.034 160.876C114.075 159.913 111.452 156.415 110.667 153.057C110.566 150.166 113.912 149.273 115.238 150.644C115.839 152.315 116.236 153.953 119.153 154.491C123.344 154.246 128.773 152.694 133.264 152.22Z" fill="#1A1A18"/>
<path fill-rule="evenodd" clip-rule="evenodd" d="M133.264 179.04C130.034 179.04 125.128 178.313 120.823 177.243C117.235 175.691 113.171 172.349 109.946 169.116C102.18 176.284 91.6588 179.523 73.125 183.232C64.0434 186.214 56.635 194.105 52.8061 202.352C62.6083 202.352 80.0629 200.678 89.265 193.384C85.0872 200.194 82.0892 207.733 82.0892 221.238C94.4058 219.686 106.958 211.082 114.014 195.892C115.324 202.231 123.215 220.645 133.264 227.69C143.3 220.645 151.19 202.231 152.508 195.892C159.564 211.082 172.107 219.686 184.434 221.238C184.434 207.733 181.437 200.194 177.253 193.384C186.458 200.678 203.902 202.352 213.711 202.352C209.89 194.105 202.481 186.214 193.383 183.232C174.86 179.523 164.341 176.284 156.578 169.116C153.35 172.349 149.279 175.691 145.697 177.243C141.398 178.313 136.479 179.04 133.264 179.04Z" fill="#FEE50D"/>
<path fill-rule="evenodd" clip-rule="evenodd" d="M213.711 202.352C209.89 194.105 202.481 186.214 193.383 183.232C174.86 179.523 164.341 176.284 156.578 169.116C156.062 169.62 155.546 170.143 155 170.647C173.068 187.058 196.63 191.713 213.711 202.352Z" fill="#D50C28"/>
<path fill-rule="evenodd" clip-rule="evenodd" d="M177.253 193.384C171.875 188.367 155.355 175.432 153.11 172.328C152.023 173.248 150.904 174.119 149.786 174.898C159.201 188.237 174.149 199.718 184.434 221.238C184.434 207.733 181.437 200.194 177.253 193.384Z" fill="#D50C28"/>
<path fill-rule="evenodd" clip-rule="evenodd" d="M133.264 227.69C143.3 220.645 151.19 202.231 152.508 195.892C151.544 189.795 146.774 184.07 145.697 177.243C141.398 178.313 136.479 179.04 133.264 179.04V227.69Z" fill="#D50C28"/>
<path fill-rule="evenodd" clip-rule="evenodd" d="M52.8061 202.352C62.6083 202.352 80.0629 200.678 89.265 193.384C94.6454 188.367 111.159 175.432 113.426 172.328C112.772 171.778 112.134 171.218 111.535 170.647C93.4438 187.058 69.8951 191.713 52.8061 202.352Z" fill="#D50C28"/>
<path fill-rule="evenodd" clip-rule="evenodd" d="M114.014 195.892C114.962 189.795 119.742 184.07 120.823 177.243C119.498 176.681 118.114 175.86 116.736 174.898C107.323 188.237 92.3565 199.718 82.0892 221.238C94.4058 219.686 106.958 211.082 114.014 195.892Z" fill="#D50C28"/>
<path fill-rule="evenodd" clip-rule="evenodd" d="M133.264 98.7078C129.916 96.6752 122.026 93.7978 114.494 92.8499C112.225 89.2518 104.811 80.8884 101.22 77.7811C97.8857 70.1216 94.256 58.4191 94.256 47.8981C94.256 28.5325 105.248 6.76964 141.863 6.76964C174.654 6.76964 204.03 28.21 212.111 38.7416C202.993 34.8537 186.101 29.01 169.808 29.01C144.106 29.01 132.645 46.8196 132.645 75.0772C132.645 87.3453 133.264 98.7078 133.264 98.7078Z" fill="#D50C28"/>
<path fill-rule="evenodd" clip-rule="evenodd" d="M161.231 73.0051C168.883 68.6943 184.535 62.9262 198.526 66.0689C231.53 73.4888 239.418 100.254 239.418 116.516C239.418 132.299 235.595 145.684 232.72 150.947C223.157 120.583 205.793 92.1151 186.548 92.1151C179.834 92.1151 172.254 94.9078 167.225 99.8178C162.511 96.0814 157.02 93.5627 151.31 93.0816C153.574 86.1507 157.888 77.0701 161.231 73.0051Z" fill="#D50C28"/>
<path fill-rule="evenodd" clip-rule="evenodd" d="M94.7846 102.896C88.5717 110.012 86.4247 119.369 86.6378 126.327C81.8566 132.545 73.6923 141.377 62.7272 144.967C51.926 148.493 36.6713 155.014 27.3492 160.751C36.2819 120.583 50.6203 95.9009 70.8281 95.9009C81.0152 95.9009 91.0905 100.079 94.7846 102.896Z" fill="#D50C28"/>
<path fill-rule="evenodd" clip-rule="evenodd" d="M222.6 48.7915C222.6 42.7291 227.515 37.7981 233.594 37.7981C239.664 37.7981 244.6 42.7291 244.6 48.7915C244.6 54.8748 239.664 59.7917 233.594 59.7917C227.515 59.7917 222.6 54.8748 222.6 48.7915Z" fill="#FEE50D"/>
</svg>
