<svg width="219" height="256" viewBox="0 0 219 256" fill="none" xmlns="http://www.w3.org/2000/svg">
<path d="M98.378 256C96.0609 256 93.867 254.917 92.4614 253.053C91.811 252.194 91.3662 251.215 91.1396 250.193H91.0797C88.8767 250.193 86.7658 249.211 85.3462 247.481L76.7212 236.962C75.7196 235.964 71.9963 232.249 68.2018 228.469C67.0637 229.183 65.7179 229.593 64.275 229.593C64.2595 229.59 64.2405 229.593 64.2194 229.593C63.0461 229.593 61.8629 229.315 60.7734 228.744C60.2546 228.471 57.4956 226.987 54.1706 224.571C52.8325 225.884 50.9997 226.692 48.9783 226.692C48.9515 226.687 48.9438 226.692 48.9269 226.692C48.5933 226.692 48.2582 226.668 47.9232 226.623C45.1543 226.246 35.3806 223.493 25.8237 203.943C21.7238 195.558 20.9524 190.082 21.0573 184.439C21.1635 178.341 22.5572 173.939 22.7148 173.457C22.7254 173.426 22.7359 173.393 22.7465 173.362C22.7289 173.075 22.7289 172.781 22.7465 172.488L22.9907 168.3C22.8894 168.073 22.7993 167.841 22.7212 167.604C22.5888 167.211 22.1785 166.154 21.8012 165.508C21.3796 164.785 20.6371 163.15 19.7629 161.103C17.5197 161.756 15.0295 161.328 13.0932 159.796C11.594 158.61 10.6649 156.946 10.3756 155.171C7.3533 155.15 4.62378 153.287 3.51803 150.437C2.35316 147.431 3.26323 144.016 5.77034 141.988C7.50041 140.581 9.79566 138.257 10.4446 137.054C11.834 134.48 13.0496 129.777 13.0496 128.298C13.0496 125.128 13.6675 114.766 20.8954 103.514C18.7726 99.4589 16.1099 92.7793 15.3223 83.7961C14.0976 69.7832 15.0203 46.276 15.4764 39.7513C15.9938 32.3137 15.2991 27.8464 14.8394 26.6541L14.4622 26.1522C13.1784 24.432 12.8722 24.0231 10.7902 23.4143C10.1054 23.213 9.50919 23.1102 9.00172 23.0159C1.60637 21.6349 0.0248212 16.9402 0.000186461 13.2443C-0.0357099 7.46502 5.11435 2.89985 12.8138 1.88279C13.9188 1.73639 15.701 1.56113 17.911 1.56113C22.4115 1.56113 29.0445 2.29173 35.0808 5.76734C41.5463 9.48719 49.176 16.078 56.734 36.7508L56.8579 37.0872C57.7933 35.9238 58.7583 34.7814 59.731 33.7172C62.5541 30.6336 67.1348 26.3725 71.6929 22.5907C81.1533 14.7393 95.1607 5.27322 108.173 4.76364C108.27 4.75941 108.375 4.75801 108.471 4.75801C110.659 4.75801 122.526 5.59279 141.396 22.0952C149.89 29.5223 155.518 35.2122 159.447 39.8442C160.148 37.8009 160.731 36.0969 161.02 35.234C163.755 27.0412 168.616 15.8247 176.241 8.91989C182.601 3.16733 190.96 0 199.777 0C202.403 0 205.017 0.278009 207.54 0.823492C214.288 2.14251 218.596 6.88576 218.12 12.5961C217.553 19.3636 211.078 21.1408 208.312 21.8989C207.512 22.1192 206.171 22.488 205.771 22.7428L205.134 23.3023C203.64 24.5784 201.949 26.0234 202.645 38.1311C203.556 53.8924 203.981 74.0415 203.171 78.9128C203.109 79.288 203.066 79.8482 203.002 80.5521C202.46 86.4053 201.134 100.743 191.49 109.692C193.004 112.225 194.736 115.647 195.579 119.178C196.716 123.918 197.889 128.815 201.058 133.651C202.149 134.942 202.806 136.61 202.806 138.433C202.806 141.941 200.369 144.881 197.096 145.651C197.33 148.977 197.218 152.718 196.517 156.794C194.544 168.293 190.218 174.555 187.518 177.479L187.442 177.734C187.279 178.277 187.057 178.795 186.781 179.277C186.96 180.22 186.96 181.203 186.756 182.18L185.701 187.248C185.619 187.638 185.508 188.02 185.367 188.387C186.042 189.94 186.465 191.801 186.478 194.029C186.501 200.84 183.975 207.502 178.53 215.008C172.68 223.075 165.651 226.44 160.181 228.469C157.487 229.473 154.44 228.82 152.388 226.791C151.312 225.728 150.611 224.389 150.328 222.968L143.106 236.249C141.735 238.77 139.032 240.266 136.175 240.111C136.159 240.108 136.144 240.108 136.129 240.108L129.218 249.716C127.538 252.049 124.676 253.204 121.833 252.676C119.957 252.324 118.328 251.274 117.232 249.793C112.676 252.852 106.529 255.566 98.7834 255.989C98.6482 255.998 98.5131 256 98.378 256Z" fill="white"/>
<path d="M210.729 11.9775C210.974 9.05093 205.972 8.07258 205.972 8.07258C198.656 6.48892 188.902 7.46798 181.219 14.4143C173.541 21.3662 169.151 34.291 168.052 37.5794C166.954 40.8727 161.59 56.3567 161.59 56.3567C158.664 50.5063 154.397 43.3122 136.514 27.6755C118.636 12.0437 108.464 12.1739 108.464 12.1739C97.5419 12.6018 84.5228 21.5802 76.4292 28.2977C71.7022 32.221 67.5452 36.1618 65.2064 38.7189C59.8663 44.5665 54.543 53.2647 54.543 53.2647C53.0833 47.8626 51.2427 43.3432 49.7681 39.2975C43.0203 20.8383 36.6096 15.2026 31.3808 12.1943C25.0088 8.52587 17.2573 8.77572 13.7852 9.23463C10.3131 9.69354 7.40411 11.3328 7.41607 13.1959C7.43367 15.9163 9.34181 15.261 12.8709 16.2964C17.8232 17.7435 19.1408 20.0788 20.9244 22.4065C23.0359 25.167 23.3597 33.2887 22.874 40.2688C22.3863 47.2538 21.574 70.1528 22.71 83.1459C23.8482 96.1369 29.5303 103.446 29.5303 103.446L29.6401 103.999C21.2432 114.726 20.4655 125.323 20.4655 128.298C20.4655 131.27 18.7839 137.212 16.9743 140.569C15.1654 143.93 10.4328 147.753 10.4328 147.753C19.1232 147.236 21.3255 142.823 21.3255 142.823C22.7544 145.028 17.6958 153.981 17.6958 153.981L22.8846 149.183C22.8846 149.183 27.2956 160.208 28.2022 161.764C29.1137 163.321 29.7598 165.269 29.7598 165.269C29.7668 165.265 29.7739 165.262 29.7809 165.258C30.0892 166.198 30.3538 167.9 30.439 168.502C30.4249 168.506 30.4073 168.511 30.4073 168.511L30.1497 172.922C30.1631 172.92 30.1751 172.919 30.1884 172.918C30.1145 173.874 29.9006 175.02 29.7612 175.682V175.774H29.7598C29.7598 175.774 28.5618 179.414 28.471 184.576C28.3971 188.594 28.7399 193.025 32.4858 200.685C41.0474 218.201 48.9256 219.276 48.9256 219.276C45.5295 212.176 46.1271 199.681 46.1271 199.681C46.3284 201.781 46.4277 205.977 51.3271 211.978C56.2245 217.976 64.2224 222.177 64.2224 222.177L60.5258 213.977L64.0577 213.887C65.3844 215.18 82.2205 231.974 82.2205 231.974L91.0806 242.778C94.6357 234.719 98.1916 233.534 99.2565 233.888C102.65 235.02 99.0869 246.53 98.3795 248.582C113.324 247.769 120.829 236.259 120.829 236.259L123.197 245.385L135.048 228.912L136.59 232.703L146.901 213.745C149.273 214.453 155.554 214.216 155.554 214.216L151.878 211.016C160.413 207.7 161.598 199.759 161.598 199.759C161.361 211.016 157.601 221.517 157.601 221.517C161.549 220.051 167.594 217.456 172.527 210.655C177.462 203.851 179.078 198.653 179.062 194.073C179.06 193.618 179.022 193.203 178.962 192.814C179.019 189.758 178.408 186.172 178.319 185.672C178.395 185.711 178.44 185.736 178.44 185.736L179.496 180.669C179.409 180.61 179.321 180.567 179.233 180.512C179.376 180.591 179.46 180.64 179.46 180.64L180.315 175.585C180.331 175.593 180.339 175.598 180.339 175.598L180.975 173.487C180.975 173.487 186.889 169.051 189.208 155.535C191.533 142.023 186.043 132.94 186.043 132.94L195.337 138.433C191.113 132.306 189.631 126.182 188.367 120.905C187.103 115.623 182.876 110.135 182.876 110.135L183.085 106.752C195.337 99.573 195.243 81.3539 195.854 77.6939C196.464 74.0381 196.219 55.5029 195.243 38.5556C194.266 21.6111 197.805 19.9001 200.973 17.0959C204.144 14.2925 210.484 14.9041 210.729 11.9775Z" fill="#004A80"/>
<path d="M179.484 130.279C179.484 130.279 183.442 144.395 181.207 154.691C181.207 154.691 173.572 141.226 173.745 141.814C173.97 142.571 171.789 145.74 177.874 155.878C181.89 162.573 176.984 171.944 176.984 171.944C176.984 171.944 183.468 167.006 185.949 151.695C187.946 139.379 179.484 130.279 179.484 130.279Z" fill="#FFD401"/>
<path d="M25.5673 146.98C25.5673 146.98 23.5437 131.346 24.8212 122.409C26.0987 113.47 32.8008 107.305 32.8008 107.305C32.8008 107.305 37.5884 111.346 38.5407 111.667C38.5407 111.667 29.4997 120.179 27.6915 127.41C25.8855 134.644 26.842 136.556 26.842 136.556C26.842 136.556 28.2243 129.323 35.7767 121.875L43.7569 115.388C43.7569 115.388 40.458 126.131 41.9494 139.322L43.222 150.598C43.222 150.598 36.415 138.893 39.0756 127.831C39.0756 127.831 29.0746 133.258 26.526 142.301L26.3078 147.193L25.5673 146.98Z" fill="#FFD401"/>
<path d="M92.0146 206.726L93.252 203.72L95.7915 206.461L101.255 202.543L103.211 204.829L105.161 198.821L108.026 204.307L108.873 202.869C108.873 202.869 111.087 203.848 113.101 204.829C115.119 205.811 115.183 206.203 115.183 206.203C115.183 206.203 115.446 204.501 117.852 203.851L122.744 207.313C122.744 207.313 113.101 213.319 106.332 212.599C97.8727 212.275 87.5008 205.125 87.5008 205.125" fill="white"/>
<path d="M42.7077 191.614C45.7582 198.176 51.068 201.851 51.068 201.851C51.068 201.851 49.4308 198.642 48.658 188.396C48.216 182.513 39.9408 180.513 36.392 180.594C36.392 180.594 31.2349 184.341 34.795 195.428C37.5787 204.101 43.1694 207.002 43.1694 207.002C43.1694 207.002 38.89 198.61 42.7077 191.614Z" fill="#FFD401"/>
<path d="M151.429 212.641C143.404 203.196 138.301 204.142 137.687 203.389C133.682 195.661 131.729 193.157 130.781 192.221C124.689 184.967 115.452 182.293 106.635 185.702V138.933C96.8583 137.57 92.605 136.112 79.7231 130.765C68.6642 126.147 54.008 118.917 54.008 118.917C52.1878 125.496 55.4058 134.036 55.4058 134.036L62.1156 146.609L53.012 139.076L51.888 138.939L55.8295 147.878C54.7048 147.363 54.1375 147.458 53.3886 147.506C52.6404 147.552 51.1363 148.961 52.1674 154.519C53.2007 160.077 57.1661 164.015 57.8341 165.037C58.4992 166.062 59.1214 164.818 59.1214 164.818C60.1554 163.507 61.1598 165.605 61.6898 166.48C62.9581 168.567 64.9352 172.433 64.9352 172.433L65.7327 170.693C66.6217 169.177 67.0651 169.093 67.8189 170.383C68.5741 171.677 70.4943 177.507 70.4943 177.507C70.8835 175.715 71.6113 173.816 72.1215 173.794C72.6297 173.776 73.6764 176.333 74.2331 178.127C74.7913 179.919 75.4648 180.459 75.4648 180.459C76.415 178.812 75.462 175.269 76.3109 175.718C77.1611 176.169 77.9178 179.132 77.9178 179.132C80.4523 183.752 80.3383 189.578 80.3383 189.578C80.3383 189.578 62.6843 176.778 61.0817 176.226C59.4811 175.672 60.6741 177.232 60.6741 177.232L64.8036 184.844C64.0787 184.788 59.5599 183.052 59.5599 183.052L65.53 189.769C65.53 189.769 67.3699 191.506 67.0925 192.012C66.8138 192.512 61.3027 188.517 60.5214 188.126C59.7415 187.734 61.0078 190.557 61.0078 190.557C61.0078 190.557 67.6964 193.903 70.0009 198.092C72.3053 202.281 70.0255 203.392 70.0255 203.392L70.9433 204.384C72.6713 202.146 76.9112 200.016 76.9112 200.016C76.1314 203.265 73.8896 205.383 73.8896 205.383C73.8896 205.383 71.6662 206.905 67.9287 208.024C64.1906 209.14 61.1211 212.225 61.1211 212.225L72.5227 208.351L72.8564 211.649C75.778 208.884 78.2732 207.352 80.938 203.439L83.1255 207.571C83.1255 207.571 82.3253 203.197 84.5839 200.036C86.8433 196.876 88.8718 195.638 88.8718 195.638L90.0183 198.936C91.1466 192.501 95.7054 193.583 95.7054 193.583L98.0936 197.167C100.101 194.345 102.3 193.942 102.3 193.942C100.198 190.585 98.3822 189.795 96.2826 188.813C94.1844 187.832 87.2578 189.828 87.2578 189.828C87.2578 189.828 81.2463 186.296 84.0983 186.182C90.1746 185.939 87.5999 180.366 87.5999 180.366C96.7373 179.376 106.635 190.266 106.635 190.266V188.01C110.543 190.088 113.117 192.407 113.117 192.407C113.83 190.542 114.006 191.138 114.736 189.267C118.126 201.008 122.258 194.932 125.78 204.221C125.769 201.103 125.764 199.484 125.769 196.053C129.307 204.168 133.439 199.55 136.302 211.377C136.302 211.377 137.131 207.149 136.8 206.75C136.382 206.26 151.934 213.164 151.429 212.641ZM95.6407 140.481L94.7707 148.424L94.6307 155.834C93.3342 156.772 87.987 157.501 86.0423 157.258C85.6615 156.554 91.4084 154.456 91.0565 153.472C91.0565 153.472 83.1255 156.772 78.2648 156.043C77.4321 155.819 84.6114 153.81 84.1989 152.362C80.4523 153.855 78.5076 153.855 71.9456 153.855C70.7202 153.636 76.705 151.669 76.2869 150.841C70.8567 149.165 68.7853 147.05 68.7853 147.05C75.348 148.508 83.1255 151.668 91.281 148.916C90.3942 147.249 89.5003 145.607 88.3073 143.409C88.3073 143.409 86.2858 148.752 80.3855 147.276C74.8616 146.32 74.844 141.636 74.844 141.636C74.844 141.636 67.9351 142.188 62.7111 138.29C67.5698 127.848 58.1135 127.88 58.1135 127.88C58.1135 127.88 62.4661 120.556 76.7993 135.107C87.2578 147.05 95.6407 140.481 95.6407 140.481Z" fill="white"/>
<path d="M140.379 131.544C154.705 127.687 163.744 132.054 163.744 144.341C165.659 135.592 164.512 126.014 166.237 125.629C169.768 124.837 171.124 144.841 165.821 152.656C174.971 138.519 173.415 125.564 174.947 117.883C163.744 122.719 140.379 131.544 140.379 131.544Z" fill="#FFD401"/>
<path d="M117.397 142.893C117.397 142.893 126.147 145.652 135.67 139.735C149.541 129.975 154.342 135.626 154.342 135.626C154.342 135.626 147.171 134.228 142.125 138.817C126.694 154.159 117.407 146.865 117.407 146.865L117.397 142.893Z" fill="white"/>
<path d="M135.784 150.46C134.558 152.127 131.606 153.426 129.307 153.279C131.568 153.964 134.698 153.269 136.735 152.139C139.427 150.645 140.811 147.255 140.915 144.706C139.407 146.07 137.954 147.242 136.561 148.231C136.546 148.979 136.307 149.746 135.784 150.46Z" fill="white"/>
<path d="M100.713 218.929C100.713 218.929 104.858 219.911 111.483 218.815C118.108 217.719 120.911 216.01 120.911 216.01C120.911 216.01 123.924 218.018 123.473 221.911C123.03 225.807 118.649 228.984 118.649 228.984C118.649 228.984 115.06 227.505 116.873 224.117C118.693 220.732 111.183 220.668 112.293 224.828C114.56 232.425 105.244 237.224 105.244 237.224C105.244 237.224 109.301 222.047 99.6528 222.396C97.7968 222.46 96.6087 223.135 95.8084 224.01C94.11 225.861 91.4748 230.378 91.4748 230.378C91.4748 230.378 74.1327 209.272 93.6962 217.15C97.4104 218.33 100.713 218.929 100.713 218.929Z" fill="white"/>
<path d="M107.202 112.146V107.471C107.202 107.471 116.352 105.526 129.134 100.499C135.594 97.9541 143.863 94.6918 150.67 90.3532L152.954 93.6796C152.954 93.6796 141.845 99.29 132.489 103.537C131.053 104.187 125.014 106.709 119.531 108.584C113.318 110.713 107.202 112.255 107.202 112.146Z" fill="#FFD401"/>
<path d="M120.329 119.75C120.329 119.75 123.51 118.983 123.735 115.521C123.954 112.056 119.834 111.921 119.834 111.921C119.834 111.921 125.953 109.81 126.172 114.725C126.393 119.64 120.885 119.694 120.329 119.75Z" fill="#FFD401"/>
<path d="M137.467 116.512C137.467 116.512 140.697 114.333 140.195 111.205C139.698 108.079 138.415 108.023 137.526 108.023C137.526 108.023 140.195 106.183 141.699 108.189C142.37 109.087 142.62 110.486 142.377 111.804C141.475 116.704 138.016 116.41 137.467 116.512Z" fill="#FFD401"/>
<path d="M152.041 111.735C152.018 111.735 154.596 110.7 154.448 105.826C154.448 105.826 154.195 102.395 151.98 102.354C151.98 102.354 153.647 100.978 154.978 102.119C155.722 102.765 156.477 104.366 156.426 106.308C156.385 107.822 155.495 110.198 154.912 110.779C153.586 112.115 152.067 111.735 152.041 111.735Z" fill="#FFD401"/>
<path d="M107.3 107.195L107.448 21.1215C107.448 21.1215 106.648 18.9846 104.509 19.9207C103.029 20.5682 92.4545 23.6476 76.6883 37.6324C73.7293 40.2556 69.8588 43.2688 66.6478 46.8781C63.3517 50.5825 60.3491 54.8471 56.9326 59.4918L57.6189 61.906C59.0026 61.4373 60.3991 61.2409 61.711 61.3936C63.9549 61.6505 66.2016 63.2673 67.4545 65.7758C68.9016 68.6721 70.6007 72.8066 69.0965 79.7866C68.235 83.7887 67.149 87.2657 65.9123 90.2867L66.0221 90.3451C66.0221 90.3451 92.8662 105.86 107.3 107.195Z" fill="#FFD401"/>
<path d="M107.188 132.831C107.188 130.149 107.161 112.367 107.161 112.367C107.161 112.367 90.1362 109.1 64.3042 93.8097C59.8404 102.62 54.071 106.746 49.7747 108.686C54.5151 111.445 62.1519 115.908 66.1469 117.978C70.1356 120.048 92.6053 130.644 104.212 132.499C104.212 132.499 107.188 133.361 107.188 132.831ZM66.2912 104.748C66.2912 104.748 63.8657 102.316 62.5031 104.85C61.1404 107.384 61.9998 109.561 61.9998 109.561L61.8978 109.813C61.8978 109.813 59.9692 105.261 61.0982 102.589C62.2314 99.9169 64.067 100.593 66.2912 104.748ZM79.7404 109.301C79.7404 109.301 76.963 107.075 75.147 109.199C73.6823 111.481 74.9957 113.859 74.9957 113.859C74.9957 113.859 70.9078 109.505 73.379 106.668C75.8544 103.83 79.639 108.643 79.7404 109.301ZM97.5583 113.051C97.5583 113.051 94.0757 111.072 92.2062 113.151C90.3403 115.228 91.653 117.609 91.653 117.609C91.653 117.609 87.513 113.76 89.9849 111.276C92.4596 108.794 95.8923 110.565 97.5583 113.051Z" fill="#FFD401"/>
<path d="M18.3086 13.8052C19.9873 14.6161 22.0292 15.9083 23.7536 17.8686C25.6519 20.0202 27.1659 22.975 27.3953 26.9799C28.0774 38.7215 26.8794 54.9826 27.2884 66.1759C27.584 74.2877 26.8942 90.5748 33.6892 98.6811C40.0407 106.259 50.8392 100.687 56.6924 94.9493C58.0916 93.5725 60.3123 91.0513 59.3417 88.887C58.9032 87.9157 57.6989 87.0084 54.5069 87.694C48.6671 88.9532 38.6232 86.6642 35.2686 69.6001C33.0163 58.1281 32.342 46.2492 32.0978 39.6084C31.9014 34.2802 31.9478 27.8843 30.2825 22.6716C29.5069 20.2398 27.7402 18.0037 25.8631 16.0864C23.9282 14.1135 21.5119 12.653 18.8147 12.2371C18.3185 12.1632 17.9279 12.1202 17.6217 12.0822C16.7165 11.9619 16.5399 12.2272 16.4456 12.4926C16.2541 13.0226 16.5335 12.9486 18.3086 13.8052Z" fill="#FFD401"/>
<path d="M201.616 10.6695C199.355 10.4605 196.395 10.5858 192.951 11.6514C184.849 14.1465 178.864 21.4609 171.608 40.5282C168.01 49.9887 166.608 56.5401 165.33 60.4429C164.074 64.2641 162.496 66.5587 158.59 65.4346C156.492 64.8329 153.132 64.0192 151.771 67.1957C149.75 71.9171 148.166 77.3902 152.589 87.0773C157.012 96.7665 164.423 99.8409 167.627 102.033C167.627 102.033 159.742 92.8257 159.403 90.7993C159.403 90.7993 156.691 85.6035 164.114 76.6611C171.537 67.7158 172.164 62.3954 172.804 59.6905C173.219 57.9316 176.034 45.2982 179.978 34.7771C182.422 28.251 185.135 22.2767 187.51 19.8829C191.488 15.8801 194.223 14.932 196.285 14.4372C197.7 14.0987 199.691 13.8129 201.69 13.4969C207.856 12.5227 206.88 11.1516 201.616 10.6695Z" fill="#FFD401"/>
<path d="M163.655 178.953L162.977 176.205C162.972 176.182 164.456 175.19 166.707 174.446C168.575 173.829 170.992 173.406 173.325 173.645C178.477 174.173 180.317 175.575 180.317 175.575L179.46 180.64C179.46 180.64 176.47 178.665 172.827 178.094C172.185 177.997 171.517 177.88 170.841 177.895C166.371 177.969 163.655 178.953 163.655 178.953Z" fill="#DC6663"/>
<path d="M162.366 185.979L162.998 183.462C162.998 183.462 164.499 183.047 166.628 182.917C168.279 182.815 170.342 182.899 172.198 183.384C176.445 184.487 178.334 185.754 178.334 185.754C178.334 185.754 179.043 189.618 178.961 192.935C178.961 192.935 178.573 188.923 172.674 187.424C169.559 186.455 166.378 186.019 162.366 185.979Z" fill="#DC6663"/>
<path d="M30.4239 168.488L30.4556 168.435L30.4788 168.493C31.056 168.328 35.0236 167.257 39.0989 167.734C43.5099 168.254 47.6626 170.329 48.7001 171.104L47.1418 165.916C47.1418 165.916 37.2055 161.287 29.775 165.261C30.1396 166.309 30.388 168.202 30.4239 168.488Z" fill="#DC6663"/>
<path d="M29.7612 175.777C29.7612 175.777 36.8947 174.997 40.9151 176.685C44.9376 178.372 49.0875 178.889 50.5191 179.406L51.0379 178.111C51.0379 178.111 44.6927 170.995 30.1891 172.917C30.1195 173.883 29.9027 175.009 29.7612 175.682L29.7612 175.777Z" fill="#DC6663"/>
</svg>
