<svg width="240" height="256" viewBox="0 0 240 256" fill="none" xmlns="http://www.w3.org/2000/svg">
<path d="M202.994 13.7288C175.54 5.45698 137.91 2.85898 91.0523 11.354C28.135 22.7721 -37.5638 69.6697 92.0677 75.5008C124.742 76.9732 161.392 68.9109 157.439 55.4612C153.309 41.4043 118.873 41.1487 103.035 43.5254C109.266 43.9373 128.179 53.6427 98.382 53.5307C65.1826 53.4133 65.0914 43.5507 91.0271 38.6166C102.15 36.3393 119.534 34.2707 137.184 35.7495C165.422 37.4513 178.962 48.5777 174.592 79.5911C161.942 169.398 59.9279 256 59.9279 256C59.9279 256 111.72 238.291 144.514 215.345C195.401 179.72 223.085 140.073 236.324 87.7383C249.111 37.2499 224.453 20.1877 202.994 13.7288Z" fill="black"/>
<path d="M185.567 7.61631C158.12 -0.656442 120.482 -3.268 73.6261 5.24775C10.7141 16.6596 -54.9846 63.5446 74.6459 69.3883C107.321 70.8607 143.964 62.7984 140.011 49.3495C135.882 35.2927 101.452 35.0362 85.6079 37.4129C91.8446 37.8248 110.751 47.5176 80.9485 47.4065C47.7618 47.2881 47.6642 37.439 73.5999 32.5041C84.7245 30.2268 102.106 28.1645 119.763 29.6369C147.989 31.3397 161.536 42.4652 157.17 73.4786C144.513 163.294 42.5071 249.876 42.5071 249.876C42.5071 249.876 94.2926 232.179 127.079 209.234C177.982 173.607 205.646 133.961 218.903 81.6131C231.684 31.1365 207.025 14.0625 185.567 7.61631Z" fill="white"/>
<path d="M75.4641 10.7771C122.361 2.45916 154.422 5.29925 181.87 13.5521C203.341 20.0119 223.203 35.6125 211.331 82.3791C201.868 119.688 176.412 166.612 130.037 199.249C100.032 220.374 81.6023 227.624 69.0305 233.585C82.8787 219.824 167.865 132.614 165.278 56.5085C164.12 22.5439 123.041 20.9676 93.6248 23.5521C34.9088 28.7029 22.4545 52.046 81.4659 52.9819C110.019 53.4534 112.321 46.4047 104.803 41.4444C111.759 41.6332 128.349 42.72 131.53 48.8464C135.089 55.7434 114.175 64.7099 75.1434 63.5699C-38.9579 60.2203 17.3498 21.1103 75.4641 10.7771Z" fill="#E30613"/>
</svg>
