<svg width="256" height="247" viewBox="0 0 256 247" fill="none" xmlns="http://www.w3.org/2000/svg">
<path d="M256 128C256 57.4209 198.579 0 128 0C57.4204 0 0 57.4209 0 128C0 154.435 7.9221 179.715 22.9163 201.144L9.09494 214.967L41.0361 246.904L85.4011 202.539L69.4304 186.569C53.7861 170.924 45.1702 150.125 45.1702 128C45.1702 82.3284 82.3272 45.1707 128 45.1707C173.672 45.1707 210.829 82.3284 210.829 128C210.829 150.127 202.213 170.928 186.57 186.569L170.6 202.539L214.965 246.906L246.905 214.965L233.084 201.144C248.078 179.715 256 154.435 256 128Z" fill="#0F1425"/>
<path d="M195.353 97.246L161.261 111.367C160.909 111.513 160.729 111.906 160.848 112.269L162.089 116.045C162.768 118.115 162.606 120.267 161.622 122.269C160.577 124.394 158.589 125.981 156.305 126.514C153.807 127.098 151.249 126.538 149.284 124.979C147.316 123.418 146.189 121.088 146.189 118.586C146.189 115.709 147.674 113.098 150.161 111.601L154.86 108.775C155.266 108.53 155.335 107.969 155 107.634L128.517 81.1505C128.232 80.8654 127.77 80.8654 127.485 81.1505L101 107.634C100.664 107.969 100.733 108.53 101.14 108.775L105.838 111.601C108.326 113.098 109.811 115.709 109.811 118.586C109.811 121.088 108.683 123.418 106.716 124.979C104.751 126.538 102.192 127.098 99.6946 126.514C97.41 125.981 95.422 124.394 94.3779 122.269C93.3929 120.267 93.2314 118.115 93.9108 116.045L95.1518 112.269C95.2708 111.906 95.0907 111.513 94.7381 111.367L60.6459 97.246C60.0925 97.0169 59.514 97.5149 59.659 98.0965L75.8717 163.121H127.998L128 163.12L128.001 163.121H180.128L196.34 98.0965C196.486 97.5149 195.907 97.0169 195.353 97.246Z" fill="#0F1425"/>
<path d="M214.966 239.813L177.694 202.54L190.118 190.116C206.709 173.526 215.847 151.466 215.847 128C215.847 79.5614 176.439 40.1545 128.001 40.1545C79.5626 40.1545 40.1552 79.5614 40.1552 128C40.1552 151.466 49.2924 173.525 65.8849 190.116L78.3081 202.54L41.0379 239.811L16.1902 214.967L29.4899 201.665C13.606 180.517 5.01693 154.92 5.01693 128C5.01693 60.1867 60.1873 5.01626 128.001 5.01626C195.815 5.01626 250.985 60.1867 250.985 128C250.985 154.918 242.394 180.519 226.513 201.665L239.814 214.966L214.966 239.813Z" fill="#254CA6"/>
<path d="M166.854 114.481C167.279 115.774 167.516 117.152 167.516 118.587C167.516 125.862 161.618 131.76 154.344 131.76C147.069 131.76 141.172 125.862 141.172 118.587C141.172 113.792 143.743 109.607 147.574 107.304L128 87.7288L108.425 107.304C112.255 109.607 114.827 113.792 114.827 118.587C114.827 125.862 108.93 131.76 101.655 131.76C94.3804 131.76 88.4828 125.862 88.4828 118.587C88.4828 117.151 88.7202 115.773 89.1448 114.479L67.2501 105.41L80.3836 158.104H175.614L188.753 105.41L166.854 114.481Z" fill="#EE8017"/>
<path d="M233.416 128C233.416 98.891 221.617 72.5372 202.541 53.4604L190.089 65.9132C205.995 81.8195 215.847 103.781 215.847 128C215.847 151.466 206.709 173.526 190.118 190.116L177.694 202.54L214.963 239.81V214.961L202.52 202.518C221.602 183.448 233.416 157.112 233.416 128Z" fill="#3A73C2"/>
<path d="M128.001 5.01626C60.1873 5.01626 5.01693 60.1867 5.01693 128C5.01693 154.92 13.606 180.517 29.4899 201.665L16.1902 214.967L41.0368 239.811V214.966L53.4652 202.543C34.3869 183.467 22.5863 157.112 22.5863 128C22.5863 69.7811 69.7823 22.585 128.002 22.585C157.111 22.585 183.465 34.3842 202.541 53.4604L214.923 41.0783C192.654 18.8085 161.908 5.01626 128.001 5.01626Z" fill="#3A73C2"/>
<path d="M128 87.7288L108.425 107.304C112.255 109.607 114.827 113.792 114.827 118.587C114.827 125.862 108.93 131.76 101.655 131.76C94.3804 131.76 88.4828 125.862 88.4828 118.587C88.4828 117.151 88.7202 115.773 89.1448 114.479L67.2501 105.41L80.3836 158.104H128.002L128 87.7288Z" fill="#F6DD19"/>
</svg>
