<svg width="220" height="256" viewBox="0 0 220 256" fill="none" xmlns="http://www.w3.org/2000/svg">
<path d="M176.678 38.2173C122.097 66.341 58.8883 47.356 14.426 0.183253C-1.26938 37.1303 -4.91371 86.8726 7.73703 132.765C20.3872 178.658 49.3323 220.701 108.735 255.885C151.66 235.796 171.737 213.005 187.582 187.719C203.277 162.671 214.819 135.175 219.044 97.5297C204.922 77.7591 190.8 57.9884 176.678 38.2173Z" fill="white"/>
<path d="M108.776 255.979C151.722 235.879 171.814 213.074 187.668 187.772C203.37 162.712 214.919 135.201 219.146 97.5372L219.15 97.5002L219.128 97.4699C205.006 77.6985 190.883 57.9269 176.76 38.1549L176.712 38.0866L176.636 38.1247C122.102 66.2244 58.936 47.2622 14.4922 0.108278L14.3908 0L14.3323 0.136567C-1.37296 37.1074 -5.01743 86.8753 7.63949 132.79C20.2973 178.711 49.2608 220.777 108.686 255.975L108.729 256L108.776 255.979ZM108.74 255.781C49.3849 220.612 20.467 178.596 7.82678 132.738C-4.80356 86.92 -1.18368 37.2641 14.4542 0.350197C58.9133 47.4464 122.077 66.4082 176.65 38.3354C190.75 58.0748 204.848 77.8139 218.948 97.5528C214.721 135.165 203.187 162.639 187.503 187.669C171.672 212.934 151.616 235.705 108.74 255.781Z" fill="black"/>
<path d="M56.4012 195.295C59.7063 199.162 63.1732 202.891 66.7767 206.481C71.178 210.866 75.7836 215.045 80.5514 219.028C84.9643 222.714 89.5163 226.233 94.1789 229.597C99.165 233.195 104.278 236.615 109.491 239.875C114.993 237.097 120.388 234.103 125.622 230.847C129.115 228.674 132.536 226.384 135.86 223.962C141.112 220.137 146.125 215.984 150.817 211.493C152.986 209.417 155.086 207.269 157.114 205.055C159.066 202.925 160.951 200.734 162.77 198.49C164.564 196.277 166.294 194.012 167.965 191.707C169.636 189.401 171.25 187.055 172.816 184.677C173.599 183.486 174.372 182.288 175.134 181.083C176.485 178.945 177.804 176.787 179.088 174.609C181.77 170.058 184.298 165.415 186.629 160.674C189.199 155.453 191.53 150.113 193.596 144.673C195.766 138.962 197.643 133.139 199.233 127.239C200.283 123.339 201.207 119.405 202.095 115.297C203.616 108.26 205.031 100.711 205.947 90.4477C156.098 125.397 106.25 160.346 56.4012 195.295ZM106.434 191.886H101.619V182.606H98.8096V179.747L104.427 177.439H106.434V191.886ZM122.384 189.026C121.858 190.485 121.046 191.555 119.334 192.763C117.621 193.971 115.007 195.317 110.498 195.355C110.276 194.518 110.054 193.681 109.832 192.845C113.971 192.159 116.87 190.554 117.232 188.379C115.058 189.622 113.267 189.348 111.907 188.767C110.548 188.186 109.619 187.299 109.111 186.139C108.604 184.98 108.517 183.547 108.836 182.261C109.156 180.975 109.88 179.837 110.743 178.982C111.607 178.128 112.607 177.558 113.85 177.282C115.093 177.006 116.577 177.024 117.94 177.36C119.304 177.696 120.546 178.352 121.435 179.491C122.324 180.63 122.859 182.253 123.006 183.987C123.152 185.721 122.911 187.568 122.384 189.026ZM137.114 191.886H124.411V188.569C126.694 187.688 128.046 186.623 129.031 185.78C130.015 184.939 130.631 184.321 130.871 183.619C131.11 182.916 130.973 182.129 130.149 181.642C129.326 181.156 127.816 180.969 125.62 182.34C125.119 181.26 124.618 180.181 124.117 179.102C127.559 177.128 129.658 177.023 131.325 177.235C133.76 177.545 135.27 178.53 135.971 179.793C136.23 180.258 136.378 180.761 136.466 181.349C136.599 182.236 136.594 183.316 135.048 185.345C134.693 185.81 134.258 186.324 131.805 188.271C133.575 187.924 135.344 187.576 137.114 187.229V191.886ZM152.174 189.026C151.647 190.485 150.837 191.555 149.124 192.763C147.411 193.971 144.796 195.317 140.287 195.355C140.066 194.518 139.844 193.681 139.622 192.845C143.76 192.159 146.66 190.554 147.023 188.379C144.848 189.622 143.057 189.348 141.698 188.767C140.338 188.186 139.409 187.299 138.901 186.139C138.394 184.98 138.307 183.547 138.627 182.261C138.946 180.975 139.67 179.837 140.534 178.982C141.396 178.128 142.397 177.558 143.64 177.282C144.882 177.006 146.366 177.024 147.73 177.36C149.093 177.696 150.336 178.352 151.225 179.491C152.113 180.63 152.649 182.253 152.796 183.987C152.942 185.721 152.7 187.568 152.174 189.026Z" fill="#231F20"/>
<path d="M145.713 181.052C145.102 181.052 144.577 181.375 144.222 181.845C143.867 182.313 143.694 182.905 143.694 183.485C143.694 184.064 143.866 184.656 144.22 185.124C144.576 185.594 145.102 185.918 145.713 185.918C146.324 185.918 146.848 185.595 147.205 185.125C147.559 184.657 147.732 184.064 147.732 183.485C147.732 182.906 147.56 182.314 147.205 181.845C146.849 181.375 146.324 181.052 145.713 181.052Z" fill="#231F20"/>
<path d="M115.923 181.052C115.312 181.052 114.787 181.375 114.431 181.845C114.077 182.313 113.904 182.905 113.904 183.485C113.904 184.064 114.077 184.656 114.43 185.124C114.786 185.594 115.311 185.918 115.923 185.918C116.534 185.918 117.059 185.595 117.414 185.125C117.769 184.657 117.942 184.064 117.942 183.485C117.942 182.906 117.769 182.314 117.415 181.845C117.059 181.375 116.534 181.052 115.923 181.052Z" fill="#231F20"/>
<path d="M142.721 63.9143C135.737 64.9873 128.665 65.4891 121.599 65.4302C114.569 65.3722 107.546 64.7599 100.607 63.6318C93.6414 62.4993 86.7613 60.8473 80.0294 58.7292C73.2232 56.5884 66.5691 53.9715 60.1115 50.9378C53.4303 47.7993 46.9597 44.2146 40.7359 40.247C33.7003 35.7631 26.9795 30.7891 20.6074 25.4045C19.9608 27.7911 19.3668 30.1912 18.8236 32.6034C17.8046 37.1283 16.9629 41.6928 16.2873 46.282C15.5701 51.1513 15.0394 56.0481 14.6892 60.9569C14.3311 65.9749 14.1609 71.0059 14.1738 76.036C14.1996 86.3043 14.9868 96.5715 16.5466 106.72C17.3338 111.844 18.3179 116.938 19.5045 121.985C20.6924 127.038 22.0832 132.044 23.6865 136.982C24.8648 140.609 26.1586 144.2 27.5706 147.743C67.9246 119.451 108.278 91.1585 148.633 62.8654C146.671 63.2609 144.7 63.6105 142.721 63.9143ZM73.8771 90.5641C72.3283 90.7843 70.854 89.831 70.4189 88.3282H69.2763V90.7152H67.5272V88.3282H65.6583V91.3788H63.9097V88.3282H60.5041L57.6269 93.3123C58.1943 94.2956 58.7618 95.2783 59.3292 96.261L61.9707 94.736C62.2624 95.2411 62.5541 95.7458 62.8453 96.2509C61.9649 96.7589 61.0841 97.2679 60.2042 97.7759C60.5152 98.3154 60.8267 98.8553 61.1387 99.3947C61.8273 98.9963 62.5164 98.5988 63.2055 98.2009C63.4972 98.7061 63.7884 99.2112 64.0796 99.7163C63.391 100.114 62.7019 100.512 62.0127 100.91C62.2035 101.239 62.3938 101.568 62.584 101.899C64.1028 101.524 65.6655 102.325 66.2494 103.776C66.8337 105.228 66.2605 106.888 64.9059 107.669C63.5508 108.452 61.8268 108.118 60.862 106.886C59.8976 105.655 59.9859 103.901 61.0691 102.773C60.8784 102.444 60.6881 102.114 60.4978 101.784C59.8092 102.182 59.1201 102.58 58.4309 102.977C58.1398 102.473 57.8481 101.967 57.5564 101.463C58.2455 101.065 58.9346 100.667 59.6233 100.269C59.3118 99.7298 59.0008 99.1904 58.6888 98.6505C57.8085 99.1595 56.9281 99.6675 56.0478 100.176C55.7561 99.6709 55.4644 99.1658 55.1732 98.6611C56.0531 98.1526 56.9339 97.6441 57.8147 97.1361C57.2468 96.1529 56.6799 95.1696 56.1115 94.1874H50.3566C49.7896 95.1696 49.2217 96.1529 48.6543 97.1361C49.5351 97.6441 50.4155 98.1526 51.2959 98.6611C51.0042 99.1658 50.7125 99.6709 50.4213 100.176C49.5409 99.6675 48.6606 99.1595 47.7797 98.6505C47.4683 99.1904 47.1568 99.7298 46.8458 100.269C47.5344 100.667 48.2235 101.065 48.9127 101.463C48.621 101.967 48.3293 102.473 48.0376 102.977C47.3485 102.58 46.6599 102.182 45.9707 101.784C45.7805 102.114 45.5902 102.444 45.3999 102.773C46.4836 103.902 46.5715 105.655 45.6061 106.887C44.6417 108.118 42.9177 108.452 41.5631 107.669C40.2081 106.887 39.6353 105.227 40.2197 103.776C40.804 102.325 42.3662 101.524 43.885 101.899C44.0753 101.568 44.2655 101.239 44.4558 100.91C43.7667 100.512 43.0776 100.114 42.3889 99.7163C42.6806 99.2112 42.9718 98.7061 43.2635 98.2009C43.9526 98.5988 44.6417 98.9963 45.3304 99.3947C45.6423 98.8553 45.9533 98.3154 46.2653 97.7759C45.3845 97.2679 44.5041 96.7589 43.6238 96.2509C43.915 95.7458 44.2066 95.2411 44.4983 94.736C45.3787 95.2445 46.259 95.753 47.1399 96.261C47.7073 95.2783 48.2747 94.2956 48.8422 93.3123L45.9645 88.3282H42.5594V91.3788H40.8108V88.3282H38.9414V90.7152H37.1923V88.3282H36.0502C35.6146 89.831 34.1397 90.7843 32.591 90.5641C31.0428 90.3443 29.8915 89.0183 29.8915 87.4541C29.8915 85.8894 31.0428 84.5633 32.592 84.3436C34.1402 84.1234 35.6146 85.0772 36.0502 86.579H37.1923V84.1925H38.9414V86.579H40.8108V83.5289H42.5594V86.579H45.9645L48.8422 81.5953C48.2747 80.6126 47.7073 79.6294 47.1399 78.6466C46.259 79.1552 45.3787 79.6632 44.4983 80.1717C44.2066 79.6665 43.915 79.1619 43.6238 78.6568C44.5041 78.1483 45.3845 77.6398 46.2653 77.1317C45.9533 76.5923 45.6423 76.0524 45.3304 75.5135C44.6417 75.9114 43.9526 76.3088 43.2635 76.7067C42.9718 76.2016 42.6806 75.6965 42.3889 75.1919C43.0776 74.7939 43.7667 74.396 44.4558 73.9981C44.2655 73.6687 44.0753 73.3389 43.885 73.0096C42.3658 73.3833 40.803 72.5826 40.2192 71.1315C39.6353 69.6798 40.2081 68.021 41.5631 67.2387C42.9182 66.4559 44.6422 66.7901 45.6066 68.0215C46.5715 69.2529 46.4831 71.0064 45.3999 72.1345C45.5902 72.4643 45.7805 72.7942 45.9707 73.124C46.6599 72.7256 47.3485 72.3282 48.0376 71.9302C48.3293 72.4349 48.621 72.9405 48.9127 73.4451C48.2235 73.8431 47.5344 74.2405 46.8458 74.6384C47.1568 75.1783 47.4683 75.7173 47.7797 76.2572C48.6606 75.7487 49.5409 75.2401 50.4213 74.7321C50.7125 75.2368 51.0042 75.7419 51.2959 76.2465C50.4155 76.7551 49.5351 77.2636 48.6543 77.7716C49.2217 78.7548 49.7896 79.738 50.3566 80.7208H56.1115C56.6799 79.738 57.2468 78.7548 57.8147 77.7716C56.9339 77.2636 56.0531 76.7551 55.1732 76.2465C55.4644 75.7419 55.7561 75.2368 56.0478 74.7321C56.9281 75.2401 57.8085 75.7487 58.6888 76.2572C59.0008 75.7173 59.3118 75.1783 59.6233 74.6384C58.9346 74.2405 58.2455 73.8431 57.5564 73.4451C57.8481 72.9405 58.1398 72.4349 58.4309 71.9302C59.1201 72.3282 59.8092 72.7256 60.4978 73.124C60.6881 72.7942 60.8784 72.4643 61.0691 72.1345C59.9855 71.0059 59.8976 69.2524 60.8624 68.021C61.8273 66.79 63.5513 66.4559 64.9059 67.2387C66.261 68.021 66.8337 69.6803 66.2494 71.132C65.6651 72.5831 64.1028 73.3833 62.584 73.0096C62.3938 73.3389 62.2035 73.6687 62.0127 73.9981C62.7019 74.396 63.391 74.7939 64.0796 75.1919C63.7884 75.6965 63.4972 76.2016 63.2055 76.7067C62.5164 76.3088 61.8273 75.9114 61.1387 75.5135C60.8267 76.0524 60.5152 76.5923 60.2042 77.1317C61.0841 77.6398 61.9649 78.1483 62.8453 78.6568C62.5541 79.1619 62.2624 79.6665 61.9707 80.1717L59.3292 78.6466C58.7618 79.6294 58.1943 80.6126 57.6269 81.5953L60.5041 86.579H63.9097V83.5289H65.6583V86.579H67.5272V84.1925H69.2763V86.579H70.4189C70.854 85.0767 72.3288 84.1234 73.8775 84.3436C75.4263 84.5638 76.5775 85.8894 76.5775 87.4541C76.5775 89.0187 75.4263 90.3443 73.8771 90.5641Z" fill="#231F20"/>
<path d="M56.6171 91.5632L58.4841 88.3282H54.7492L56.6171 91.5632Z" fill="#231F20"/>
<path d="M51.3668 92.4378H55.1022L53.2342 89.2032L51.3668 92.4378Z" fill="#231F20"/>
<path d="M47.9845 88.3282L49.8519 91.5632L51.7194 88.3282H47.9845Z" fill="#231F20"/>
<path d="M49.8519 83.3445L47.985 86.5795H51.7194L49.8519 83.3445Z" fill="#231F20"/>
<path d="M55.1022 82.4699H51.3668L53.2342 85.7045L55.1022 82.4699Z" fill="#231F20"/>
<path d="M54.7492 86.5795H58.4841L56.6171 83.3445L54.7492 86.5795Z" fill="#231F20"/>
<path d="M141.893 96.3301C141.662 96.0027 141.37 95.7187 141.038 95.4966C140.679 95.258 140.272 95.0919 139.849 95.0127C139.43 94.9349 138.994 94.9431 138.577 95.0368C138.198 95.1223 137.835 95.2793 137.514 95.4995C136.813 95.9925 136.112 96.4861 135.41 96.9786C136.636 98.7229 137.862 100.467 139.088 102.211C139.789 101.717 140.491 101.225 141.191 100.732C141.507 100.504 141.778 100.216 141.987 99.8872C142.216 99.527 142.372 99.1199 142.44 98.6988C142.509 98.2738 142.491 97.8339 142.387 97.4162C142.291 97.0279 142.122 96.6575 141.893 96.3301Z" fill="#FBC707"/>
<path d="M176.103 48.6671C124.818 84.6237 73.5327 120.58 22.2469 156.537C24.2346 161.062 26.4131 165.503 28.7755 169.843C31.4967 174.842 34.4638 179.708 37.6578 184.419C40.6456 188.826 43.8319 193.098 47.194 197.226C99.3939 160.629 151.594 124.031 203.794 87.4333C194.564 74.5114 185.333 61.589 176.103 48.6671ZM67.7971 175.484L61.8312 167C61.5124 166.549 60.932 166.404 60.4664 166.731L59.6788 167.284C59.8556 167.535 60.0318 167.785 60.2081 168.036C60.2245 168.059 60.2409 168.082 60.2573 168.106C62.2455 170.934 64.2342 173.763 66.2219 176.591C63.2394 178.688 60.2564 180.786 57.2729 182.883C55.3017 180.079 53.3299 177.275 51.3591 174.47C51.3079 174.398 51.2572 174.327 51.2075 174.255C46.345 167.339 41.483 160.423 36.6205 153.508C39.6035 151.411 42.5869 149.313 45.5699 147.216C46.8941 149.1 48.2192 150.985 49.5438 152.869C48.9397 150.478 48.3356 148.087 47.7314 145.696C50.8057 143.535 53.879 141.375 56.9523 139.214L61.0967 155.615C65.0184 155.641 68.6017 157.571 70.8318 160.78L76.7466 169.192C73.7636 171.289 70.7801 173.387 67.7971 175.484ZM99.4388 153.238L95.4214 147.524C93.8935 148.599 92.366 149.673 90.8381 150.747C92.1772 152.651 93.5163 154.556 94.8555 156.46C91.872 158.558 88.889 160.655 85.9065 162.752C81.6858 156.749 77.4651 150.746 73.2444 144.742C73.2155 144.701 73.186 144.659 73.157 144.618C68.7755 138.386 70.3001 129.779 76.5558 125.432C82.841 121.063 91.3741 122.674 95.7257 128.937C99.9464 134.94 104.167 140.943 108.388 146.947C105.405 149.044 102.422 151.141 99.4388 153.238ZM117.46 140.568L96.8079 111.193L105.757 104.901L120.419 125.756L127.197 120.991L133.187 129.511L117.46 140.568ZM149.981 117.704C146.998 119.801 144.015 121.899 141.032 123.995C134.148 114.204 127.264 104.412 120.38 94.6205C124.08 92.0191 127.781 89.4176 131.481 86.8161C137.702 82.5452 146.202 84.0756 150.542 90.2492C154.882 96.4218 153.446 104.939 147.321 109.347C146.604 109.851 145.887 110.355 145.17 110.86L149.981 117.704ZM176.968 90.1922C175.44 91.2662 173.912 92.3402 172.385 93.4147C173.724 95.3193 175.063 97.2239 176.402 99.1286C173.419 101.226 170.436 103.323 167.453 105.42C163.232 99.4174 159.012 93.4137 154.791 87.4101C154.762 87.369 154.732 87.3275 154.703 87.2865C150.322 81.0544 151.846 72.4469 158.103 68.0997C164.387 63.7317 172.92 65.3422 177.272 71.6052C181.493 77.6083 185.714 83.6115 189.935 89.6146C186.952 91.7114 183.968 93.8092 180.985 95.9061C179.647 94.0014 178.307 92.0968 176.968 90.1922Z" fill="#FBC707"/>
<path d="M84.9397 133.966C84.1898 133.818 83.4118 133.984 82.7864 134.423C82.161 134.863 81.7428 135.539 81.6279 136.294C81.5067 137.091 81.7206 137.784 82.1765 138.426C82.9665 139.55 83.7566 140.674 84.5466 141.798C86.0746 140.723 87.602 139.649 89.13 138.576C88.3399 137.451 87.5504 136.328 86.7598 135.204C86.3098 134.558 85.7307 134.122 84.9397 133.966Z" fill="#FBC707"/>
<path d="M166.487 76.6343C165.737 76.4865 164.958 76.6512 164.333 77.0912C163.708 77.5311 163.289 78.2067 163.175 78.9625C163.053 79.7593 163.267 80.4523 163.723 81.095C164.513 82.2188 165.303 83.342 166.093 84.4663C167.621 83.3918 169.148 82.3178 170.677 81.2433C169.887 80.12 169.096 78.9963 168.307 77.8725C167.856 77.2259 167.277 76.7908 166.487 76.6343Z" fill="#FBC707"/>
<path d="M170.744 47.3638C167.69 48.6594 164.585 49.8339 161.437 50.8808C158.275 51.9326 155.068 52.856 151.83 53.646C148.642 54.4235 145.422 55.0725 142.181 55.5902C136.684 56.4686 131.126 56.9685 125.56 57.0955C122.319 57.1689 119.076 57.1158 115.839 56.9395C112.597 56.7637 109.362 56.4648 106.143 56.0461C99.673 55.2058 93.2667 53.8846 86.9834 52.1301C80.6094 50.3496 74.3619 48.1243 68.2839 45.5069C65.2087 44.1833 62.1764 42.7596 59.192 41.2423C53.9765 38.5911 48.9054 35.6544 43.998 32.4682C39.0061 29.2273 34.1822 25.7271 29.5414 22.0014C25.0401 18.3878 20.7108 14.5611 16.5615 10.5486C14.2864 16.8994 12.4155 23.3932 10.9041 29.9676C9.75619 34.9605 8.81508 40.0002 8.06902 45.068C7.32127 50.1429 6.76799 55.2469 6.40276 60.3629C6.03019 65.5856 5.85306 70.8209 5.86629 76.0567C5.89343 86.7408 6.71308 97.4234 8.33554 107.984C9.15616 113.323 10.1822 118.632 11.4185 123.891C12.6599 129.169 14.1132 134.398 15.7884 139.555C17.2241 143.974 18.8231 148.34 20.5891 152.637C21.2816 152.152 21.9731 151.668 22.6651 151.182C21.0049 147.109 19.4982 142.973 18.1392 138.789C16.4848 133.697 15.05 128.535 13.8246 123.324C12.603 118.128 11.5898 112.884 10.779 107.608C9.1748 97.1694 8.36519 86.6109 8.33858 76.0505C8.32521 70.876 8.50046 65.7011 8.86849 60.5396C9.22932 55.485 9.77584 50.4428 10.5146 45.4301C11.2395 40.5054 12.1504 35.6076 13.2596 30.7553C14.4758 25.4335 15.9304 20.1659 17.6472 14.9842C25.3106 22.1057 33.5554 28.6063 42.316 34.3226C47.9647 38.0087 53.8278 41.3688 59.8787 44.3508C66.5015 47.6144 73.3483 50.4245 80.3675 52.7111C85.4477 54.3651 90.6183 55.7453 95.8517 56.8231C102.924 58.2801 110.112 59.1856 117.326 59.4869C120.93 59.6376 124.54 59.6376 128.144 59.484C131.768 59.329 135.385 59.0189 138.982 58.551C142.596 58.0816 146.19 57.4528 149.749 56.6666C153.356 55.8708 156.928 54.9141 160.45 53.8001C161.145 53.5803 161.838 53.3543 162.53 53.1225C165.268 51.2025 168.005 49.2829 170.744 47.3638Z" fill="#DB1F26"/>
<path d="M210.79 97.2278C209.981 104.276 208.866 111.289 207.395 118.229C206.542 122.253 205.569 126.252 204.468 130.215C202.666 136.704 200.522 143.098 198.036 149.357C196.841 152.368 195.567 155.348 194.219 158.294C192.516 162.015 190.694 165.68 188.767 169.291C186.005 174.469 183.027 179.533 179.883 184.49C178.193 187.153 176.455 189.786 174.651 192.373C172.84 194.971 170.962 197.523 169.011 200.018C167.022 202.561 164.958 205.044 162.811 207.455C158.259 212.568 153.339 217.352 148.11 221.77C145.259 224.178 142.317 226.477 139.302 228.673C136.188 230.94 132.995 233.098 129.739 235.154C126.552 237.166 123.304 239.08 120.009 240.909C116.451 242.884 112.838 244.758 109.182 246.544C103.357 242.985 97.6477 239.238 92.0878 235.278C86.9008 231.584 81.8442 227.705 76.9537 223.626C72.0019 219.496 67.221 215.162 62.654 210.61C58.8095 206.78 55.1162 202.796 51.602 198.66C50.9245 199.135 50.2469 199.61 49.5694 200.085C53.172 204.335 56.9609 208.427 60.9073 212.36C65.5448 216.981 70.4005 221.381 75.4291 225.573C80.5215 229.818 85.7916 233.847 91.2012 237.68C97.003 241.791 102.965 245.675 109.048 249.356C112.947 247.477 116.799 245.501 120.59 243.413C124.094 241.483 127.546 239.458 130.93 237.325C134.278 235.215 137.56 232.999 140.76 230.669C143.823 228.438 146.812 226.103 149.706 223.657C155.024 219.164 160.028 214.299 164.656 209.1C166.838 206.65 168.936 204.126 170.957 201.542C172.936 199.011 174.841 196.422 176.678 193.787C178.503 191.171 180.261 188.509 181.969 185.815C185.148 180.804 188.157 175.684 190.951 170.449C192.9 166.796 194.743 163.086 196.467 159.322C197.833 156.338 199.123 153.319 200.334 150.269C202.851 143.928 205.024 137.451 206.85 130.878C207.964 126.866 208.949 122.818 209.813 118.745C211.112 112.615 212.137 106.428 212.921 100.211C212.211 99.2165 211.5 98.2227 210.79 97.2278Z" fill="#DB1F26"/>
<path d="M53.2632 160.448C53.1454 160.532 53.028 160.615 52.9097 160.697C50.3213 157.016 47.7333 153.335 45.1449 149.653C43.1157 151.08 41.0865 152.506 39.0577 153.933C43.5856 160.373 48.1134 166.813 52.6412 173.253C52.6895 173.322 52.7383 173.391 52.7871 173.461C54.4241 175.789 56.0608 178.117 57.6983 180.446L63.785 176.166C62.132 173.814 60.4785 171.462 58.8255 169.11C58.8095 169.087 58.7941 169.066 58.7791 169.044C58.2662 168.316 57.7529 167.588 57.24 166.861C57.9804 166.341 58.7202 165.82 59.4605 165.299C60.7161 164.417 62.3846 164.752 63.2606 165.991C64.9141 168.343 66.5686 170.695 68.2221 173.047C70.2513 171.62 72.2805 170.194 74.3092 168.767C72.6721 166.439 71.035 164.11 69.398 161.782C67.4904 159.038 64.4428 157.386 61.085 157.365C60.6345 157.362 60.1829 157.359 59.7324 157.356C59.6218 156.919 59.5112 156.481 59.4006 156.044C58.2271 151.398 57.0532 146.752 55.8792 142.106C53.8273 143.549 51.7744 144.992 49.723 146.435C50.9027 151.106 52.083 155.778 53.2632 160.448Z" fill="#DB1F26"/>
<path d="M149.111 91.2547C145.325 85.8697 137.909 84.5243 132.479 88.2524C129.258 90.5168 126.037 92.7812 122.817 95.0451C129.03 103.883 135.243 112.721 141.457 121.559C143.486 120.132 145.515 118.705 147.545 117.28C145.94 114.998 144.337 112.717 142.733 110.436C143.924 109.598 145.116 108.759 146.307 107.922C151.653 104.074 152.897 96.6407 149.111 91.2547ZM142.663 101.784C142.556 101.882 142.444 101.976 142.329 102.065C142.181 102.179 142.026 102.283 141.873 102.39C141.474 102.671 141.075 102.952 140.676 103.233C140.005 103.705 139.334 104.176 138.664 104.648C136.767 101.95 134.87 99.2518 132.973 96.5537C134.154 95.7236 135.335 94.8935 136.516 94.0633C139.476 92.0307 143.519 93.7987 144.153 97.3076C144.449 98.9548 143.896 100.645 142.663 101.784Z" fill="#DB1F26"/>
<path d="M130.751 129.086L126.773 123.427L119.994 128.193L105.332 107.339L99.2447 111.618L117.885 138.131L130.751 129.086Z" fill="#DB1F26"/>
<path d="M94.2919 129.939C90.4749 124.447 82.9969 123.041 77.5008 126.905C72.0048 130.769 70.7975 138.282 74.6724 143.732C78.5589 149.26 82.4454 154.788 86.331 160.315C88.3602 158.889 90.3894 157.462 92.4182 156.036L88.4012 150.322C90.883 148.577 93.3652 146.832 95.8464 145.087L99.8638 150.801C101.893 149.375 103.922 147.948 105.951 146.522L94.2919 129.939ZM84.1216 144.235L80.748 139.436C80.0226 138.414 79.7029 137.25 79.9038 135.995C80.0985 134.782 80.775 133.698 81.7805 132.992C82.7859 132.285 84.0347 132.015 85.2425 132.243C86.4908 132.479 87.4779 133.174 88.1931 134.201C89.3183 135.801 90.4421 137.401 91.5668 139C89.0851 140.745 86.6034 142.49 84.1216 144.235Z" fill="#DB1F26"/>
<path d="M175.838 72.6073C172.021 67.1155 164.543 65.7093 159.048 69.5731C153.551 73.4374 152.344 80.9501 156.219 86.3998C160.105 91.9283 163.991 97.4557 167.878 102.983C169.907 101.557 171.936 100.13 173.965 98.7036C172.626 96.799 171.287 94.8948 169.948 92.9897C172.429 91.2449 174.911 89.4997 177.393 87.7559C178.732 89.66 180.071 91.5646 181.41 93.4693C183.439 92.0427 185.469 90.6162 187.497 89.1897C183.611 83.6617 179.725 78.1342 175.838 72.6073ZM165.668 86.903C164.544 85.3036 163.419 83.7037 162.294 82.1043C161.569 81.0824 161.25 79.9172 161.451 78.663C161.645 77.4499 162.322 76.3668 163.327 75.6602C164.332 74.9533 165.581 74.6828 166.789 74.9117C168.037 75.1469 169.024 75.8418 169.739 76.87C170.864 78.4694 171.989 80.0688 173.114 81.6687L165.668 86.903Z" fill="#DB1F26"/>
</svg>
