<svg width="256" height="242" viewBox="0 0 256 242" fill="none" xmlns="http://www.w3.org/2000/svg">
<path d="M33.8771 119.679C34.0031 119.72 34.1283 119.765 34.2525 119.811C34.7008 119.036 35.1011 118.348 35.4633 117.728C35.5964 117.501 35.742 117.277 35.8955 117.063C36.3278 116.46 37.4773 114.859 39.5517 113.804L39.5739 113.793C43.3081 111.907 47.3876 109.91 52.4107 107.507C53.5682 106.954 54.8668 106.661 56.1662 106.661C57.5465 106.661 58.9205 106.989 60.141 107.609C60.3319 107.707 60.5236 107.814 60.7118 107.928C60.9488 108.023 61.1804 108.127 61.4014 108.239C63.8193 109.46 65.5005 111.683 66.0127 114.336C66.0277 114.413 66.0411 114.491 66.0544 114.569C66.3216 116.189 66.128 117.83 65.5103 119.316C74.0838 115.411 82.9485 111.548 92.4701 107.568C92.5526 107.533 92.6352 107.5 92.7186 107.468L115.761 98.6693C115.005 97.1719 114.695 95.4686 114.898 93.7759C115.417 89.4371 116.602 85.9683 118.523 83.1696C120.635 80.0913 123.617 77.8616 127.384 76.5417C132.408 74.7816 137.574 73.0374 142.737 71.3562L142.766 71.3473C143.684 71.0509 144.637 70.9009 145.592 70.9009C147.091 70.9009 148.555 71.2728 149.862 71.982C150.18 71.555 150.474 71.1636 150.748 70.8006C150.93 70.5591 151.127 70.3248 151.334 70.1047C151.871 69.5313 153.296 68.0081 155.696 67.2723C159.559 66.0837 163.792 64.8375 168.634 63.4608C168.701 63.4413 168.767 63.4235 168.832 63.4067C169.545 63.2229 170.278 63.1288 171.011 63.1288C172.607 63.1288 174.168 63.5673 175.538 64.3972C176.193 64.66 176.814 65.0008 177.387 65.4118C179.467 66.9012 180.78 69.2126 180.991 71.753C181.173 73.9383 180.538 76.0766 179.2 77.7995C187.443 75.5769 195.886 73.5318 207.09 71.0322C207.12 71.0251 207.152 71.0189 207.185 71.0118L210.719 70.2636C212.908 60.5849 217.711 50.8876 225.378 40.656L225.941 39.9041L206.598 22.7153L206.025 22.9239C196.081 26.548 184.835 28.4635 173.504 28.4635C156.234 28.4635 139.155 24.0875 125.411 16.1415L124.899 15.8459L124.386 16.1424C110.532 24.1692 93.3284 28.5896 75.9452 28.5896C64.5827 28.5896 53.3107 26.6679 43.3472 23.0322L42.7764 22.8236L23.3676 39.937L23.933 40.6914C34.8863 55.3168 39.9875 68.7608 39.9875 82.9983C39.9875 91.9642 38.1119 100.302 36.1254 109.128C35.3479 112.578 34.5481 116.132 33.8771 119.679ZM19.0529 145.802C19.0511 145.849 19.0502 145.896 19.0493 145.942C18.9978 148.494 18.9463 151.042 18.8966 153.571C18.8407 156.141 18.7608 158.777 18.6827 161.327L18.6818 161.351C18.5265 166.452 18.365 171.727 18.3934 176.737V176.757C18.3925 176.887 18.3792 177.487 18.3614 178.32C18.2931 181.479 18.2647 182.783 18.2948 182.988C18.2984 183.008 18.3028 183.026 18.3081 183.047C18.3951 183.43 18.6179 183.721 18.9375 183.87C19.0804 183.936 19.2313 183.971 19.3857 183.971C19.5597 183.971 19.731 183.928 19.8943 183.845L19.8997 183.842C23.5141 181.964 26.7397 180.309 29.7621 178.78C30.4402 178.438 30.8183 177.57 30.8432 176.889V176.885C31.0314 170.914 31.2231 164.678 31.3687 159.913L31.3802 159.525L32.8829 156.918L34.3058 158.467C38.6463 163.19 41.8888 166.812 44.8224 170.212C45.0718 170.502 45.4446 170.667 45.8467 170.667C46.0668 170.667 46.2799 170.618 46.4814 170.523L46.4849 170.522C50.2839 168.693 53.4501 167.176 56.7166 165.684L56.7281 165.679C56.9003 165.597 57.0432 165.483 57.1533 165.338L57.5421 164.827L58.1785 164.741C58.7093 164.67 59.2534 164.508 59.7957 164.259C65.8822 161.461 71.981 158.745 77.9219 156.188C82.2278 154.334 84.1903 151.089 84.6936 144.987C84.8427 143.231 84.912 141.171 84.9856 138.991C85.0637 136.684 85.1445 134.299 85.3265 132.318C85.5155 130.266 85.7925 128.899 86.1502 128.256L86.199 128.169L86.2585 128.088C86.7316 127.45 87.3618 127.141 88.7429 126.464C88.9267 126.374 89.1211 126.278 89.3279 126.176L91.8079 124.948L91.5496 127.703C91.4662 128.597 91.3819 129.488 91.2984 130.365L91.2966 130.385C90.9425 134.138 90.5759 138.011 90.2697 141.761C90.1942 142.693 90.2031 143.561 90.2972 144.339C90.5351 146.31 91.2931 147.726 92.4878 148.433C93.0497 148.766 93.6888 148.936 94.3856 148.936C95.0114 148.936 95.6673 148.8 96.3357 148.533C102.525 146.052 108.766 143.642 114.886 141.367C117.072 140.555 118.688 139.323 119.826 137.604C121.017 135.804 121.741 133.455 122.103 130.213C122.303 128.469 122.443 126.439 122.591 124.291C122.755 121.908 122.924 119.445 123.182 117.398C123.364 115.95 123.681 114.053 124.155 113.241L124.224 113.122L124.314 113.018C124.751 112.505 125.476 112.151 126.824 111.521C127.145 111.371 127.509 111.201 127.896 111.013L130.471 109.766L130.098 112.603C130.023 113.181 129.863 114.39 129.863 114.39C129.243 119.088 128.659 123.521 128.206 128.257C128.193 128.382 128.123 128.975 128.011 129.937L128 130.028C127.49 134.356 127.41 135.064 127.426 135.247L125.889 135.396L127.427 135.259C127.465 135.666 127.66 136.013 127.962 136.206C128.131 136.314 128.325 136.371 128.523 136.371C128.645 136.371 128.769 136.35 128.889 136.307C131.867 135.263 135.029 134.178 139.145 132.788C139.877 132.541 140.356 131.657 140.45 130.91C140.731 128.617 141.013 126.319 141.296 124.02C141.771 120.144 142.247 116.268 142.725 112.393L142.772 112.011L144.456 109.608L145.701 111.534C148.096 115.239 151.679 120.821 155.137 126.489C155.385 126.896 155.866 127.159 156.363 127.159C156.5 127.159 156.633 127.139 156.76 127.1L157.447 126.887C160.791 125.848 164.246 124.775 167.611 123.817C167.796 123.764 167.964 123.665 168.1 123.529L168.572 123.056L169.24 123.077C169.29 123.079 169.34 123.08 169.39 123.08C169.874 123.08 170.377 123.005 170.885 122.857C177.425 120.959 183.878 119.172 190.069 117.543C192.33 116.948 194.004 115.843 195.183 114.166C196.403 112.433 197.138 110.092 197.496 106.801C197.69 105.063 197.833 103.035 197.984 100.888L199.524 100.984L197.985 100.876C198.15 98.5343 198.32 96.1138 198.563 94.1086C198.799 92.1497 199.076 90.8155 199.387 90.1427L199.537 89.8178L199.815 89.5924C200.279 89.2151 200.965 88.9507 202.872 88.4136L205.073 87.7933L204.628 91.8567C204.165 96.0667 203.687 100.421 203.281 104.726C203.191 105.682 203.188 106.588 203.274 107.42C203.558 110.143 204.671 111.463 205.556 112.091C206.28 112.605 207.155 112.877 208.088 112.877C208.488 112.877 208.9 112.827 209.312 112.73C215.597 111.241 221.98 109.817 228.281 108.499C230.561 108.021 232.143 107.028 233.259 105.373C234.384 103.706 234.987 101.413 235.159 98.1588C235.267 96.2176 235.291 93.8423 235.315 91.5451C235.355 87.6955 235.416 84.1086 235.72 82.5225L235.89 81.641L236.739 81.3526C237.021 81.2567 237.369 81.152 237.624 81.0747C238.921 80.6824 240.882 80.0904 242.486 78.7483C244.376 77.1683 245.35 74.9297 245.466 71.9056C245.477 71.6322 245.363 71.3748 245.154 71.199C244.995 71.0659 244.794 70.9922 244.587 70.9922C244.526 70.9922 244.464 70.9984 244.405 71.0108L208.76 78.5539C194.75 81.6792 185.202 84.0581 174.71 87.0369C172.476 87.6716 170.813 88.7811 169.626 90.4294C168.388 92.1487 167.622 94.4512 167.213 97.676C167.003 99.3092 166.787 100.95 166.572 102.597L166.57 102.609C166.165 105.696 165.746 108.888 165.358 112.051L164.884 115.908L162.583 112.778C161.588 111.424 160.547 110.057 159.542 108.735C157.747 106.375 156.054 104.149 154.779 102.226C153.491 100.285 152.79 98.8805 152.696 98.0515L152.678 97.8872L152.695 97.723C152.809 96.5886 154.028 94.4646 156.318 91.4102C158.488 88.5157 161.351 85.1383 164.12 81.8718C166.557 78.9977 168.855 76.286 170.694 73.9054C170.773 73.8033 170.853 73.7003 170.933 73.5974L170.977 73.5415C171.222 73.2272 171.472 72.905 171.701 72.5891L171.744 72.5305L171.792 72.4763C171.967 72.2775 172.05 72.0201 172.028 71.7493C172.005 71.4653 171.855 71.2052 171.618 71.0348C171.439 70.907 171.218 70.8369 170.996 70.8369C170.914 70.8369 170.834 70.8466 170.759 70.8662L170.744 70.8697C165.952 72.2322 161.77 73.4642 157.955 74.6377C157.516 74.7717 157.207 75.1028 156.959 75.3682C156.937 75.3904 156.918 75.4144 156.899 75.4392C154.938 78.0391 152.165 81.8514 149.717 85.2155L145.46 91.0676L146.259 85.0389C146.79 81.0366 146.882 80.0921 146.861 79.8649C146.83 79.5356 146.703 79.0882 146.277 78.8077C146.078 78.6764 145.839 78.6071 145.586 78.6071C145.431 78.6071 145.273 78.6329 145.116 78.6835C140.008 80.3469 134.897 82.0724 129.93 83.8122C125.482 85.37 123.274 88.6231 122.549 94.6874C122.513 94.9891 122.639 95.2936 122.876 95.4818C123.031 95.6043 123.225 95.6717 123.423 95.6717C123.526 95.6717 123.627 95.654 123.725 95.6185C125.65 94.9155 127.745 94.1637 130.129 93.3186L132.559 92.4576L132.171 95.006C132.144 95.1818 132.122 95.3406 132.103 95.4907C131.925 96.9801 131.745 98.4864 131.565 99.9954L131.455 100.922L95.4675 114.663L95.4401 114.674C83.1562 119.81 71.8985 124.78 61.0286 129.87C56.6917 131.9 54.7079 135.357 54.3936 141.425C54.2853 143.408 54.1664 145.465 54.0608 147.28C53.9063 149.945 53.7466 152.7 53.6089 155.404L53.4306 158.887L50.9718 156.413C49.778 155.211 48.5149 153.991 47.2944 152.812C45.4685 151.048 43.7439 149.381 42.4001 147.922C41.1352 146.548 40.3478 145.499 40.0603 144.807L39.9183 144.464L39.9476 144.094C40.0389 142.932 41.0473 140.73 42.9451 137.55C44.8162 134.414 47.337 130.684 49.7744 127.077C52.1035 123.63 54.2996 120.38 56.0029 117.57C56.088 117.429 56.175 117.288 56.2612 117.147L56.2701 117.133C56.4929 116.769 56.7237 116.392 56.9323 116.022L56.9678 115.959L57.0086 115.9C57.1532 115.691 57.2101 115.435 57.1683 115.179L57.1639 115.156C57.1088 114.861 56.9242 114.617 56.6456 114.475C56.499 114.401 56.3331 114.361 56.1661 114.361C56.0144 114.361 55.8653 114.394 55.734 114.457C50.7623 116.834 46.7281 118.809 43.0392 120.672C42.6424 120.874 42.3832 121.235 42.155 121.553C42.1391 121.575 42.124 121.598 42.1098 121.622C40.5715 124.247 38.4989 127.88 36.4937 131.394L36.4813 131.416C36.0526 132.167 35.6053 132.951 35.157 133.736L32.0699 139.141L32.2749 132.92C32.3947 129.281 32.3859 128.275 32.3574 128.073L32.353 128.052C32.2607 127.597 32.0023 127.239 31.6429 127.067C31.4823 126.991 31.3083 126.952 31.1254 126.952C30.8991 126.952 30.662 127.013 30.4383 127.129C25.5627 129.682 20.5583 132.365 15.5662 135.104C13.4244 136.279 11.888 137.775 10.869 139.679C9.83391 141.612 9.30408 144.022 9.24727 147.046C9.24106 147.361 9.40518 147.656 9.67422 147.818C9.81091 147.9 9.96802 147.944 10.1277 147.944C10.2777 147.944 10.4252 147.906 10.5565 147.833C12.7623 146.604 14.794 145.481 16.7672 144.4L19.1363 143.102L19.0529 145.802ZM42.5492 177.78C44.8117 181.529 47.424 185.067 50.3523 188.347C62.8705 202.364 81.3916 208.084 97.7319 213.131C107.711 216.211 117.135 219.121 124.073 223.771L124.642 224.153L125.211 223.772C132.15 219.122 141.577 216.212 151.557 213.131C167.896 208.084 186.415 202.363 198.931 188.348C210.947 174.889 217.299 157.551 217.299 138.21C217.299 132.493 216.739 126.862 215.492 120.14C214.447 120.382 213.402 120.628 212.369 120.872C211.365 121.109 210.35 121.229 209.352 121.229C207.223 121.229 205.143 120.676 203.33 119.63C203.117 119.539 202.907 119.442 202.7 119.339C200.466 122.467 197.307 124.586 193.312 125.638C187.218 127.241 180.826 129.011 174.314 130.9C173.714 131.075 173.099 131.208 172.483 131.298C172 131.536 171.501 131.73 170.993 131.874C167.718 132.807 164.307 133.865 161.01 134.89L160.301 135.11C159.426 135.377 158.526 135.513 157.621 135.513C155.961 135.513 154.337 135.061 152.915 134.205C151.592 133.669 150.409 132.821 149.472 131.751L149.377 132.532C148.895 136.342 146.353 139.562 142.902 140.73C138.888 142.085 135.654 143.194 132.721 144.223C131.774 144.556 130.791 144.724 129.798 144.724C128.625 144.724 127.469 144.486 126.393 144.029C124.455 146.344 121.923 148.091 118.852 149.234C112.796 151.485 106.615 153.873 100.484 156.329C98.9098 156.96 97.2908 157.278 95.6718 157.278C94.0092 157.278 92.3875 156.931 90.9176 156.267C90.7827 156.509 90.6433 156.746 90.5004 156.977C88.5761 160.081 85.8777 162.349 82.2509 163.911C76.3677 166.443 70.3274 169.133 64.2969 171.905C63.7261 172.167 63.1403 172.39 62.55 172.569C62.1328 172.858 61.6926 173.11 61.2372 173.32L61.2017 173.336C57.9814 174.808 54.7265 176.368 51.1103 178.108L51.0668 178.13C49.8313 178.716 48.5087 179.014 47.1382 179.014C45.5165 179.014 43.9365 178.588 42.5492 177.78ZM120.473 235.684C115.486 230.886 105.715 227.87 94.4024 224.377C77.5127 219.16 56.5018 212.67 41.8515 196.261C39.0928 193.172 36.5577 189.864 34.2996 186.412C31.3003 187.929 28.1697 189.536 24.7381 191.321L24.6982 191.342C23.4502 191.984 22.0557 192.324 20.6692 192.324C19.3786 192.324 18.1262 192.043 16.9456 191.489C16.6634 191.357 16.3838 191.207 16.1139 191.043C15.9488 190.977 15.8042 190.914 15.6648 190.849C13.1874 189.687 11.4131 187.471 10.7962 184.769C10.5388 183.648 10.5405 183.545 10.6577 178.155L10.6595 178.069C10.671 177.514 10.6843 176.918 10.6879 176.723C10.6604 171.592 10.8228 166.269 10.9799 161.121C11.0278 159.536 11.0776 157.912 11.1219 156.289C9.66623 156.241 8.24426 155.822 6.99271 155.071C6.97673 155.061 6.96164 155.052 6.94566 155.042C6.51783 154.872 6.10331 154.666 5.71097 154.431C3.08361 152.854 1.48766 149.971 1.54446 146.908C1.62524 142.591 2.52085 138.854 4.20734 135.8C5.91513 132.708 8.49013 130.202 11.8613 128.352C15.0905 126.582 18.3747 124.806 21.6359 123.069C22.496 117.235 23.7227 111.786 24.9103 106.51C27.2758 95.9976 29.3182 86.9189 28.064 77.037C26.6847 66.1743 21.3243 55.4163 11.1938 43.1795L7.35219 38.5381L40.5494 9.27398L41.4672 9.70714C51.3163 14.3574 63.1004 16.8152 75.5466 16.8152C93.6586 16.8152 111.318 11.613 123.995 2.54409L124.893 1.90135L125.792 2.54409C138.402 11.5649 155.903 16.739 173.805 16.739H173.81C186.225 16.738 198.025 14.2651 207.931 9.5873L208.854 9.15156L241.929 38.5425L238.09 43.1795C230.902 51.8631 226.089 59.8721 223.44 67.5767L242.812 63.4777C243.395 63.3543 243.993 63.2913 244.588 63.2913C246.166 63.2913 247.706 63.7236 249.052 64.5429C249.907 64.8837 250.698 65.3577 251.404 65.9524C253.442 67.67 254.553 70.1828 254.451 72.8465C254.202 79.3716 251.195 83.2247 248.718 85.307C247.457 86.3668 246.029 87.2376 244.375 87.9539C244.334 89.4204 244.317 91.0295 244.305 92.2678C244.28 94.6475 244.255 97.1071 244.139 99.2143C243.889 103.921 242.87 107.453 240.932 110.327C238.687 113.657 235.394 115.797 231.145 116.687C229.732 116.983 228.254 117.297 226.732 117.625C228.163 125.263 228.805 131.669 228.805 138.212C228.805 160.533 221.414 180.607 207.433 196.263C192.781 212.672 171.771 219.162 154.89 224.377C143.57 227.871 133.801 230.887 128.812 235.686L124.641 239.697L120.473 235.684Z" fill="black"/>
<path d="M172.945 132.789C173.552 132.69 174.156 132.554 174.748 132.381C181.245 130.497 187.623 128.73 193.705 127.131C195.871 126.561 197.84 125.684 199.559 124.525C200.903 123.619 202.106 122.532 203.146 121.286C205.05 122.261 207.18 122.773 209.353 122.773C210.471 122.773 211.604 122.639 212.723 122.375C213.233 122.254 213.746 122.134 214.262 122.012C215.292 127.947 215.758 133.046 215.758 138.209C215.758 157.165 209.542 174.147 197.781 187.319C192.354 193.397 185.277 198.413 176.147 202.651C167.986 206.44 159.403 209.092 151.103 211.655C141.147 214.728 131.738 217.632 124.643 222.296C117.549 217.633 108.14 214.729 98.1881 211.656C89.8871 209.093 81.3029 206.441 73.1411 202.651C64.0101 198.412 56.9331 193.397 51.5044 187.317C49.5765 185.159 47.7888 182.884 46.1511 180.509C46.4778 180.539 46.808 180.554 47.1382 180.554C48.7395 180.554 50.2848 180.206 51.7325 179.518L51.7805 179.495C55.3878 177.758 58.6356 176.202 61.8443 174.736L61.847 174.734L61.8497 174.732L61.8577 174.729L61.8683 174.725L61.8843 174.717C62.3467 174.503 62.795 174.254 63.2246 173.972C63.8042 173.785 64.3794 173.562 64.9395 173.304C70.9585 170.538 76.9872 167.853 82.8606 165.324C86.6384 163.698 89.4912 161.354 91.5682 158.169C92.8766 158.596 94.2613 158.817 95.6717 158.817C97.4878 158.817 99.2994 158.461 101.056 157.758C107.178 155.305 113.346 152.923 119.39 150.676C122.35 149.575 124.851 147.951 126.853 145.83C127.805 146.115 128.796 146.263 129.798 146.263C130.966 146.263 132.12 146.065 133.233 145.674C136.157 144.648 139.386 143.54 143.394 142.188C146.795 141.036 149.433 138.185 150.494 134.664C151.04 135.023 151.618 135.332 152.222 135.585C153.859 136.545 155.719 137.052 157.62 137.052C158.679 137.052 159.732 136.894 160.748 136.582C160.761 136.579 160.774 136.574 160.787 136.571L161.467 136.359L161.473 136.358C164.76 135.337 168.16 134.281 171.418 133.353C171.938 133.209 172.449 133.02 172.945 132.789ZM209.1 80.062L243.864 72.7054C243.635 74.8339 242.857 76.4299 241.498 77.566C240.135 78.7057 238.427 79.2214 237.18 79.5986C236.898 79.6839 236.548 79.7895 236.245 79.8925L234.546 80.4704L234.208 82.2331C233.878 83.9471 233.816 87.4586 233.775 91.531C233.751 93.8113 233.727 96.1697 233.622 98.0719V98.079C233.466 101.042 232.945 103.086 231.983 104.512C231.107 105.813 229.831 106.6 227.968 106.99C221.652 108.312 215.256 109.738 208.958 111.23C208.665 111.299 208.372 111.335 208.091 111.335C207.472 111.335 206.92 111.166 206.453 110.834C205.557 110.198 204.99 108.962 204.812 107.261C204.737 106.532 204.74 105.729 204.82 104.875C205.224 100.582 205.702 96.2346 206.164 92.0307L206.187 91.8204C206.245 91.2914 206.304 90.7633 206.361 90.236L206.859 85.6887L202.457 86.9287C200.507 87.4781 199.574 87.803 198.846 88.395L198.29 88.8459L197.99 89.4948C197.745 90.0248 197.379 91.0606 197.034 93.9232C196.788 95.9656 196.616 98.4048 196.449 100.763L196.448 100.774C196.298 102.908 196.155 104.922 195.965 106.624L195.965 106.629L195.964 106.633C195.635 109.655 194.986 111.765 193.923 113.278C192.948 114.663 191.599 115.544 189.678 116.05C183.476 117.682 177.008 119.473 170.458 121.374C170.088 121.481 169.73 121.535 169.392 121.535C169.359 121.535 169.326 121.535 169.293 121.534L167.955 121.49L167.086 122.361C163.738 123.317 160.311 124.381 156.997 125.41L156.99 125.412L156.4 125.595C152.949 119.94 149.384 114.387 146.998 110.695L144.511 106.847L141.289 111.439L141.194 112.203C140.717 116.079 140.241 119.955 139.765 123.831C139.484 126.126 139.202 128.422 138.919 130.717C138.884 130.996 138.722 131.263 138.637 131.329C134.813 132.619 131.813 133.648 129.022 134.623C129.105 133.848 129.278 132.372 129.534 130.206L129.548 130.088C129.673 129.022 129.73 128.541 129.742 128.419L129.743 128.411L129.744 128.403C130.194 123.695 130.777 119.276 131.394 114.598L131.395 114.591L131.421 114.394C131.49 113.867 131.56 113.337 131.63 112.803L132.375 107.13L127.225 109.624C126.846 109.807 126.487 109.975 126.171 110.122C124.752 110.786 123.816 111.224 123.141 112.015L122.963 112.224L122.824 112.462C122.51 113.001 122.046 114.079 121.653 117.205C121.39 119.295 121.218 121.78 121.052 124.183C120.906 126.314 120.767 128.327 120.571 130.032V130.036L120.57 130.041C120.236 133.031 119.591 135.163 118.539 136.752C117.575 138.209 116.243 139.215 114.349 139.919C108.217 142.198 101.964 144.614 95.7623 147.099C95.2776 147.293 94.8152 147.391 94.3864 147.391C93.9702 147.391 93.5965 147.294 93.2751 147.104C92.5082 146.65 92.0085 145.629 91.8301 144.152C91.7484 143.477 91.7413 142.713 91.8088 141.884C92.1141 138.15 92.4789 134.284 92.8322 130.546L92.834 130.53C92.9174 129.647 93.0026 128.748 93.087 127.847L93.6036 122.338L88.6444 124.793C88.4438 124.892 88.2547 124.985 88.0772 125.072L88.0657 125.077C86.5514 125.819 85.717 126.228 85.0202 127.168L84.9004 127.33L84.8028 127.506C84.5036 128.044 84.0722 129.114 83.7909 132.175C83.6045 134.203 83.5228 136.609 83.4447 138.937C83.3719 141.099 83.3027 143.139 83.1571 144.852V144.86C82.6325 151.223 80.4419 153.423 77.3139 154.77C71.3615 157.333 65.2519 160.053 59.1531 162.857C58.7519 163.042 58.356 163.161 57.977 163.211L56.7041 163.381L55.9913 164.319C52.7657 165.793 49.6368 167.292 45.8991 169.091C42.9805 165.711 39.7514 162.104 35.4464 157.421L32.5998 154.323L29.8535 159.088L29.8295 159.863C29.683 164.631 29.4913 170.868 29.304 176.832V176.834C29.296 177.062 29.154 177.344 29.0697 177.401C26.2248 178.839 23.1981 180.391 19.834 182.137C19.8428 181.422 19.8695 180.185 19.9094 178.352C19.9316 177.338 19.9405 176.894 19.9414 176.766V176.725C19.913 171.744 20.0736 166.484 20.2289 161.397C20.3071 158.834 20.3878 156.187 20.4438 153.605V153.599C20.4935 151.072 20.5449 148.527 20.5964 145.974C20.5973 145.933 20.5982 145.89 20.6 145.848L20.7677 140.45L16.0314 143.045C14.3653 143.959 12.6593 144.9 10.845 145.909C10.9932 143.68 11.4512 141.873 12.235 140.408C13.1208 138.754 14.4168 137.499 16.3145 136.457C21.1858 133.786 26.0695 131.165 30.8369 128.667C30.8378 129.228 30.8183 130.406 30.7375 132.87L30.3283 145.312L36.5035 134.503C36.9385 133.742 37.3716 132.981 37.7888 132.251L37.8385 132.163C39.833 128.668 41.895 125.053 43.4315 122.431C43.53 122.294 43.6773 122.091 43.7483 122.048C47.013 120.4 50.5502 118.663 54.7709 116.635C54.7425 116.682 54.714 116.729 54.6856 116.775C53.0036 119.55 50.8183 122.785 48.5034 126.211L48.4998 126.216C46.0508 129.841 43.5176 133.589 41.6243 136.763C38.8948 141.337 38.4838 143.071 38.4128 143.977L38.3551 144.717L38.6392 145.401C39.0013 146.274 39.8614 147.441 41.2692 148.97C42.6432 150.463 44.3839 152.144 46.2275 153.925C47.4435 155.099 48.7004 156.313 49.8827 157.504L54.7993 162.454L55.1552 155.486C55.2928 152.79 55.4526 150.036 55.607 147.373C55.7117 145.567 55.8307 143.518 55.9399 141.518V141.509C56.0863 138.669 56.626 136.487 57.5891 134.838C58.4936 133.29 59.7957 132.158 61.6872 131.272C72.5358 126.193 83.7696 121.232 96.0321 116.105L132.883 102.034L133.103 100.181C133.282 98.6738 133.461 97.1684 133.641 95.6736C133.658 95.5414 133.677 95.4002 133.701 95.2422L134.479 90.1446L129.619 91.8666C127.655 92.5625 125.884 93.1971 124.238 93.7944C124.613 91.484 125.251 89.6981 126.179 88.356C127.17 86.9243 128.525 85.9443 130.446 85.2715C135.308 83.5691 140.305 81.879 145.306 80.2494C145.213 81.2391 144.861 83.8877 144.735 84.8384L143.132 96.8976L150.959 86.1369C153.396 82.7871 156.156 78.9925 158.111 76.4015C158.207 76.2993 158.346 76.1529 158.415 76.1157C161.798 75.0754 165.468 73.9889 169.598 72.8066C169.556 72.8608 169.514 72.914 169.472 72.9682C167.658 75.3177 165.372 78.0143 162.951 80.8698L162.945 80.8769C160.16 84.1611 157.282 87.5563 155.084 90.488C151.797 94.8721 151.26 96.5762 151.161 97.5713L151.128 97.8997L151.165 98.2282C151.244 98.9232 151.571 100.182 153.494 103.082C154.797 105.046 156.504 107.291 158.312 109.667L158.316 109.671C159.318 110.99 160.355 112.352 161.342 113.694L165.945 119.955L166.892 112.242C167.28 109.087 167.698 105.898 168.102 102.815L168.104 102.8C168.316 101.185 168.535 99.5135 168.745 97.8785L168.746 97.8749L168.747 97.8714C169.122 94.9119 169.8 92.8349 170.881 91.333C171.87 89.959 173.222 89.0661 175.135 88.5238C185.593 85.5546 195.118 83.182 209.1 80.062ZM75.946 30.1358C84.6536 30.1358 93.2911 29.0635 101.619 26.9474C110.024 24.8127 117.855 21.6785 124.9 17.6301C131.89 21.6377 139.662 24.7399 148.007 26.8533C156.275 28.9473 164.853 30.0089 173.504 30.0089C179.206 30.0089 184.883 29.5393 190.378 28.6135C195.884 27.6859 201.225 26.2959 206.261 24.4817L223.855 40.1171C219.939 45.3835 216.841 50.3931 214.392 55.419C212.167 59.9821 210.538 64.4319 209.439 68.9588L206.862 69.5037C206.824 69.5118 206.787 69.5197 206.752 69.5277C197.029 71.697 189.38 73.5247 182.135 75.4233C182.5 74.2081 182.637 72.9238 182.528 71.6252C182.281 68.6338 180.734 65.9116 178.286 64.1585C177.646 63.7004 176.955 63.316 176.23 63.0143C174.645 62.0797 172.847 61.587 171.012 61.587C170.147 61.587 169.284 61.6971 168.445 61.9137C168.368 61.934 168.29 61.9544 168.212 61.9766C163.358 63.3561 159.116 64.6067 155.24 65.7988C152.45 66.6535 150.82 68.3951 150.207 69.0501C149.962 69.312 149.73 69.588 149.515 69.8721C149.468 69.9342 149.421 69.9972 149.373 70.0612C148.174 69.5988 146.893 69.359 145.591 69.359C144.474 69.359 143.363 69.5347 142.287 69.8809L142.261 69.889C137.083 71.5745 131.906 73.3232 126.873 75.0859C122.79 76.5159 119.552 78.9418 117.25 82.2971C115.185 85.3061 113.914 89.0005 113.365 93.5929C113.194 95.0159 113.331 96.4441 113.746 97.787L92.1683 106.027C92.0689 106.065 91.9712 106.104 91.8754 106.144C83.3808 109.695 75.4064 113.154 67.6947 116.632C67.7426 115.866 67.7036 115.09 67.5766 114.319C67.5607 114.223 67.5438 114.13 67.5269 114.04C66.9233 110.918 64.9439 108.3 62.0964 106.861C61.8728 106.748 61.6402 106.642 61.4032 106.543C61.2168 106.433 61.0286 106.329 60.8404 106.234C59.4052 105.503 57.7888 105.117 56.1662 105.117C54.6377 105.117 53.1092 105.462 51.745 106.115C46.7104 108.523 42.6219 110.524 38.8779 112.415L38.8691 112.42L38.8602 112.424L38.8655 112.421L38.8522 112.427C37.9708 112.876 37.2358 113.405 36.6349 113.928C36.9562 112.459 37.2891 110.978 37.6299 109.466C39.6351 100.553 41.5293 92.1346 41.5293 82.9975C41.5293 75.6071 40.2058 68.5362 37.4826 61.3802C34.8384 54.431 30.9017 47.4818 25.4553 40.1518L43.1101 24.5891C48.1554 26.4096 53.5104 27.8041 59.0288 28.7351C64.5365 29.6644 70.228 30.1358 75.946 30.1358ZM124.893 0L123.098 1.28439C110.675 10.1713 93.3444 15.2672 75.5466 15.2672C63.3258 15.2672 51.7698 12.8599 42.1258 8.30728L40.2902 7.44006L5.20856 38.3658L10.0053 44.1602C15.2884 50.5422 19.1913 56.4219 21.9376 62.1356C24.3884 67.2349 25.8911 72.1719 26.5329 77.2278C27.7533 86.8409 25.7384 95.7969 23.4049 106.167C22.2625 111.24 21.0855 116.47 20.2254 122.069C17.1844 123.691 14.1274 125.345 11.1201 126.995C7.48798 128.988 4.70794 131.698 2.85725 135.05C1.04827 138.326 0.0869652 142.304 0.00175323 146.875C-0.0657063 150.489 1.81783 153.89 4.91653 155.75C5.34348 156.006 5.79173 156.232 6.2533 156.423C7.27229 157.025 8.38448 157.442 9.53928 157.659C9.50643 158.806 9.47183 159.946 9.43721 161.067V161.074C9.2801 166.229 9.11766 171.56 9.14429 176.712C9.14074 176.926 9.12654 177.567 9.11589 178.087L9.115 178.119C9.05731 180.8 9.02801 182.146 9.04132 182.985C9.05818 184.021 9.14784 184.48 9.29341 185.113C10.0151 188.278 12.0992 190.878 15.0097 192.243C15.142 192.305 15.2778 192.364 15.4242 192.425C15.7065 192.591 15.9968 192.745 16.2906 192.883C17.677 193.533 19.1505 193.863 20.6692 193.863C22.3007 193.863 23.9392 193.464 25.4082 192.71C25.4224 192.702 25.4366 192.695 25.4508 192.687C28.412 191.147 31.1503 189.739 33.775 188.405C35.8769 191.507 38.1989 194.485 40.7002 197.286C47.3707 204.756 55.8875 210.864 66.7387 215.957C76.0117 220.309 85.5359 223.251 93.9382 225.846L93.9471 225.849C99.595 227.593 104.931 229.24 109.394 231.036C114.115 232.937 117.296 234.766 119.403 236.794L124.643 241.833L129.883 236.794C131.992 234.766 135.172 232.937 139.893 231.037C144.358 229.24 149.692 227.593 155.339 225.85L155.347 225.847C163.749 223.252 173.273 220.309 182.546 215.957C193.397 210.865 201.914 204.757 208.585 197.286C222.823 181.343 230.349 160.914 230.349 138.208C230.349 131.993 229.78 125.908 228.52 118.816C229.526 118.601 230.508 118.392 231.461 118.193C233.748 117.714 235.814 116.883 237.605 115.725C239.427 114.545 240.977 113.019 242.212 111.187C244.312 108.072 245.415 104.293 245.68 99.2951C245.798 97.1542 245.824 94.6767 245.848 92.2801V92.2748C245.858 91.31 245.87 90.118 245.894 88.949C247.311 88.2565 248.57 87.4418 249.71 86.484C251.385 85.0763 252.759 83.3764 253.795 81.4325C255.133 78.9206 255.873 76.0499 255.993 72.9006C256.051 71.3695 255.755 69.8197 255.135 68.4181C254.516 67.0166 253.57 65.7544 252.398 64.7664C251.598 64.0927 250.707 63.5504 249.742 63.1518C248.181 62.2287 246.405 61.7423 244.588 61.7423C243.885 61.7423 243.179 61.816 242.491 61.9616L225.87 65.4783C228.597 58.743 233.018 51.7192 239.279 44.1567L244.068 38.372L209.117 7.31315L207.274 8.1839C197.57 12.7658 185.999 15.1874 173.812 15.1874C169.54 15.1874 165.226 14.8855 160.99 14.289C156.745 13.6916 152.559 12.7969 148.549 11.6288C144.494 10.4473 140.595 8.98012 136.961 7.26709C133.259 5.52193 129.804 3.50801 126.691 1.28087L124.893 0ZM157.621 133.969C156.194 133.969 154.804 133.565 153.608 132.819C152.092 132.233 150.764 131.162 149.873 129.696C149.403 128.927 148.929 128.156 148.453 127.386C148.252 129.027 148.05 130.667 147.849 132.308C147.848 132.317 147.847 132.325 147.846 132.332C147.438 135.564 145.303 138.287 142.408 139.267C138.391 140.622 135.153 141.732 132.211 142.765C131.421 143.042 130.607 143.178 129.799 143.178C128.462 143.178 127.139 142.804 125.972 142.069C125.968 142.067 125.965 142.066 125.96 142.064C124.119 144.659 121.55 146.582 118.315 147.784C112.247 150.04 106.055 152.432 99.9101 154.894C98.5103 155.454 97.0733 155.732 95.6726 155.732C93.8805 155.732 92.1479 155.277 90.6274 154.376C90.6167 154.37 90.606 154.362 90.5954 154.356C90.4729 154.306 90.3513 154.253 90.2306 154.197C89.9208 154.883 89.5746 155.537 89.1885 156.16C87.4363 158.986 84.9679 161.057 81.6402 162.489C75.7428 165.027 69.6901 167.723 63.6515 170.499C63.0631 170.77 62.4648 170.989 61.8648 171.158C61.4662 171.453 61.0384 171.707 60.5892 171.915C60.5795 171.92 60.5706 171.924 60.5608 171.928C57.3246 173.407 54.0625 174.97 50.441 176.714C50.4304 176.719 50.4188 176.724 50.4082 176.73C49.3608 177.228 48.2433 177.467 47.1382 177.467C45.7224 177.467 44.3262 177.073 43.1226 176.32C41.9997 175.888 40.9745 175.185 40.1552 174.234C39.5934 173.582 39.0262 172.931 38.4563 172.281C38.4439 172.675 38.4315 173.068 38.4199 173.463C41.2763 179.2 44.8801 184.532 49.2028 189.373C62.0068 203.71 80.7454 209.498 97.2792 214.605C107.148 217.651 116.469 220.529 123.216 225.052L124.645 226.009L126.073 225.052C132.821 220.529 142.143 217.651 152.015 214.604C168.546 209.497 187.283 203.71 200.086 189.374C212.359 175.627 218.847 157.934 218.847 138.209C218.847 130.981 217.946 124.569 216.711 118.273C215.142 118.634 213.577 118.999 212.016 119.369C211.122 119.58 210.231 119.684 209.355 119.684C207.46 119.684 205.639 119.196 204.025 118.244C203.393 117.981 202.785 117.655 202.207 117.266C201.988 117.64 201.755 118.003 201.509 118.353C199.487 121.228 196.598 123.177 192.923 124.144C186.812 125.751 180.409 127.525 173.887 129.417C173.263 129.599 172.638 129.726 172.017 129.803C171.561 130.047 171.079 130.244 170.576 130.387C167.28 131.326 163.862 132.387 160.555 133.415L159.875 133.626C159.867 133.628 159.858 133.631 159.849 133.634C159.109 133.861 158.36 133.969 157.621 133.969ZM147.79 85.2457C148.451 80.2635 148.429 80.0487 148.398 79.7202C148.31 78.7847 147.858 78.0045 147.127 77.5225C146.671 77.2216 146.139 77.068 145.588 77.068C145.276 77.068 144.958 77.1178 144.645 77.2189C139.524 78.8859 134.402 80.6159 129.422 82.36C124.405 84.1175 121.813 87.8642 121.018 94.509C120.918 95.3451 121.259 96.1741 121.92 96.697C122.355 97.0414 122.886 97.2208 123.425 97.2208C123.705 97.2208 123.986 97.1727 124.256 97.0733C126.443 96.2754 128.615 95.4978 130.646 94.778C130.619 94.9537 130.594 95.1294 130.572 95.3061C130.393 96.8017 130.213 98.3089 130.034 99.8179L94.9172 113.226C94.8933 113.235 94.8702 113.245 94.8471 113.255C82.5429 118.398 71.2665 123.378 60.3744 128.478C55.5147 130.753 53.1953 134.725 52.8527 141.351C52.7462 143.298 52.6317 145.279 52.5207 147.196C52.3654 149.875 52.2065 152.624 52.068 155.33C50.8715 154.124 49.6138 152.909 48.3675 151.706C46.5577 149.958 44.849 148.306 43.5362 146.881C41.9544 145.162 41.5728 144.426 41.4867 144.219C41.5142 143.87 41.8035 142.48 44.2711 138.345C46.121 135.245 48.6303 131.532 51.057 127.941C53.3933 124.483 55.5999 121.217 57.3228 118.375C57.4098 118.232 57.4985 118.087 57.5864 117.944C57.8172 117.567 58.0551 117.179 58.277 116.786C58.6436 116.258 58.8016 115.597 58.6924 114.933C58.6897 114.917 58.6871 114.901 58.6835 114.885C58.5397 114.113 58.0533 113.464 57.3468 113.105C56.9775 112.917 56.5719 112.822 56.168 112.822C55.7907 112.822 55.4144 112.904 55.0709 113.068C50.0904 115.451 46.0491 117.429 42.3459 119.299C41.6101 119.673 41.1849 120.265 40.9035 120.657C40.86 120.718 40.8192 120.78 40.781 120.845C39.2374 123.479 37.1622 127.117 35.1544 130.635C34.7221 131.393 34.2721 132.182 33.8194 132.973C33.9738 128.271 33.9161 127.987 33.8673 127.745C33.6791 126.813 33.1119 126.059 32.3104 125.676C31.9376 125.499 31.5355 125.41 31.1272 125.41C30.6559 125.41 30.1774 125.528 29.7265 125.762C24.8375 128.322 19.8242 131.01 14.826 133.752C12.4134 135.075 10.6746 136.777 9.50999 138.952C8.35696 141.106 7.76759 143.745 7.70634 147.02C7.69036 147.887 8.13861 148.697 8.88244 149.143C9.2659 149.373 9.69816 149.489 10.1295 149.489C10.5352 149.489 10.9417 149.386 11.3092 149.182C13.499 147.963 15.5503 146.828 17.511 145.754C17.5093 145.806 17.5084 145.857 17.5066 145.909C17.4551 148.464 17.4036 151.012 17.3539 153.54C17.298 156.109 17.2181 158.75 17.14 161.304C16.9838 166.419 16.8222 171.708 16.8515 176.746C16.8506 176.87 16.8347 177.59 16.8196 178.287C16.7175 183 16.7175 183.012 16.8045 183.392C16.9953 184.234 17.5341 184.916 18.2824 185.268C18.6339 185.432 19.0093 185.514 19.3857 185.514C19.8002 185.514 20.2165 185.415 20.6017 185.216C20.6053 185.214 20.608 185.213 20.6115 185.211C24.2188 183.336 27.4409 181.683 30.4579 180.157C31.7326 179.515 32.3441 178.081 32.385 176.944V176.933C32.5678 171.115 32.7524 165.126 32.9113 159.959C32.9974 159.809 33.0835 159.66 33.1705 159.51C36.6402 163.286 40.2289 167.247 43.6543 171.218C44.209 171.864 45.0159 172.209 45.8467 172.209C46.2834 172.209 46.7272 172.113 47.1435 171.916C47.1471 171.914 47.1506 171.913 47.155 171.911C50.9434 170.088 54.0998 168.575 57.3583 167.086C57.3689 167.082 57.3787 167.077 57.3894 167.072C57.7959 166.88 58.1314 166.602 58.3826 166.271C59.0572 166.181 59.7487 165.979 60.4392 165.662C66.5141 162.869 72.6015 160.159 78.5317 157.606C83.3781 155.519 85.6806 151.782 86.231 145.114C86.3836 143.322 86.4537 141.243 86.5274 139.042C86.6046 136.758 86.6845 134.396 86.8629 132.459C87.107 129.808 87.4417 129.109 87.4985 129.007C87.7248 128.702 88.0772 128.509 89.4228 127.85C89.6075 127.759 89.8045 127.664 90.0131 127.56C89.9288 128.46 89.8436 129.357 89.7601 130.24C89.4061 133.994 89.0385 137.875 88.7314 141.636C88.6471 142.671 88.6587 143.643 88.7651 144.524C89.1415 147.639 90.5697 149.092 91.7014 149.762C92.5073 150.239 93.4207 150.479 94.3855 150.479C95.2004 150.479 96.0525 150.308 96.9091 149.965C103.086 147.49 109.315 145.084 115.423 142.813C117.927 141.883 119.788 140.458 121.112 138.456C122.443 136.444 123.246 133.878 123.636 130.385C123.84 128.613 123.981 126.566 124.13 124.397C124.292 122.036 124.461 119.593 124.713 117.592C125.057 114.863 125.42 114.136 125.487 114.021C125.728 113.738 126.54 113.359 127.477 112.92C127.81 112.765 128.173 112.594 128.568 112.403C128.489 113.004 128.411 113.599 128.333 114.189C127.711 118.898 127.126 123.346 126.669 128.111C126.658 128.227 126.56 129.051 126.467 129.848C125.857 135.027 125.859 135.04 125.888 135.381C125.889 135.387 125.889 135.392 125.89 135.397C125.973 136.289 126.426 137.057 127.133 137.508C127.555 137.778 128.036 137.916 128.524 137.916C128.818 137.916 129.116 137.865 129.405 137.763C132.372 136.722 135.53 135.639 139.64 134.251C141.044 133.778 141.827 132.333 141.983 131.104C142.265 128.806 142.547 126.508 142.83 124.209C143.305 120.334 143.781 116.457 144.259 112.582C144.307 112.512 144.357 112.442 144.406 112.371C147.4 117.005 150.69 122.161 153.821 127.293C154.36 128.179 155.349 128.702 156.364 128.702C156.648 128.702 156.934 128.661 157.213 128.576C157.216 128.575 157.219 128.574 157.222 128.573L157.906 128.361C161.24 127.326 164.686 126.255 168.035 125.301C168.476 125.175 168.875 124.939 169.194 124.62C169.259 124.622 169.326 124.623 169.393 124.623C170.018 124.623 170.665 124.529 171.319 124.339C177.848 122.445 184.29 120.66 190.465 119.036C193.093 118.344 195.051 117.042 196.448 115.055C197.824 113.098 198.646 110.527 199.033 106.968C199.23 105.201 199.375 103.157 199.527 100.991C199.692 98.6666 199.861 96.262 200.098 94.2924C200.395 91.8301 200.687 91.017 200.791 90.7898C201.1 90.5386 202.118 90.2297 203.294 89.8986C203.229 90.4934 203.163 91.0898 203.097 91.6881C202.634 95.9052 202.155 100.266 201.749 104.582C201.649 105.637 201.647 106.645 201.744 107.579C202.087 110.877 203.523 112.537 204.667 113.35C205.662 114.056 206.842 114.42 208.093 114.42C208.61 114.42 209.139 114.358 209.671 114.232C215.944 112.746 222.313 111.325 228.602 110.01C231.264 109.451 233.208 108.217 234.544 106.236C235.832 104.327 236.519 101.784 236.706 98.2405C236.815 96.27 236.84 93.8761 236.863 91.5612C236.893 88.648 236.937 84.3954 237.241 82.8136C237.493 82.7275 237.813 82.6308 238.075 82.5518C240.877 81.705 246.709 79.9422 247.014 71.9651C247.042 71.2186 246.725 70.5005 246.153 70.0194C245.712 69.6475 245.158 69.4486 244.591 69.4486C244.424 69.4486 244.256 69.4655 244.09 69.501L208.46 77.0405C208.452 77.0423 208.443 77.0441 208.435 77.0458C194.389 80.1791 184.816 82.5642 174.293 85.552C171.711 86.2851 169.776 87.5855 168.378 89.5276C166.984 91.4644 166.129 93.9933 165.687 97.4816C165.477 99.1104 165.262 100.75 165.046 102.396C164.638 105.503 164.22 108.69 163.831 111.863C162.839 110.514 161.803 109.151 160.775 107.8C158.997 105.463 157.317 103.255 156.068 101.373C154.413 98.8779 154.25 98.0204 154.234 97.8784C154.259 97.6281 154.547 96.3508 157.556 92.3369C159.699 89.4788 162.547 86.1191 165.302 82.8695C167.749 79.9839 170.06 77.258 171.92 74.849C172.012 74.7291 172.106 74.6084 172.199 74.4895C172.451 74.1664 172.71 73.8335 172.955 73.4962C173.394 72.9974 173.628 72.3272 173.57 71.6233C173.509 70.8875 173.128 70.2173 172.521 69.7815C172.076 69.4628 171.537 69.2942 170.999 69.2942C170.79 69.2942 170.58 69.3199 170.377 69.3723C170.358 69.3768 170.34 69.3821 170.321 69.3874C165.522 70.7517 161.328 71.9873 157.505 73.1634C156.674 73.4172 156.149 73.9791 155.835 74.3146C155.776 74.3767 155.721 74.4424 155.67 74.5108C153.699 77.1239 150.918 80.9461 148.465 84.3181C148.24 84.6261 148.016 84.935 147.79 85.2457ZM166.59 66.5097C167.16 66.034 167.804 65.6496 168.499 65.3727C167.791 65.6541 167.15 66.0402 166.59 66.5097ZM75.946 27.0486C64.912 27.0486 53.9276 25.252 43.877 21.5844L42.4444 21.0616L21.2781 39.7212L22.6974 41.6172C33.4404 55.9621 38.4439 69.1114 38.4439 82.9991C38.4439 91.7919 36.5861 100.049 34.6191 108.791C33.7058 112.847 32.8155 116.806 32.0921 120.852C32.8483 120.952 33.5921 121.171 34.3005 121.509C34.4984 121.604 34.691 121.706 34.8783 121.817C35.5689 120.617 36.2177 119.496 36.7947 118.511C36.9048 118.324 37.0228 118.142 37.1497 117.965C37.5572 117.397 38.5122 116.067 40.252 115.183C40.2582 115.18 40.2644 115.177 40.2697 115.174C43.9942 113.294 48.064 111.301 53.0773 108.903C54.0474 108.438 55.1064 108.208 56.1671 108.208C57.2926 108.208 58.4199 108.469 59.4415 108.989C59.6395 109.09 59.8321 109.2 60.0185 109.318C60.2511 109.406 60.481 109.506 60.7046 109.62C62.6929 110.625 64.0758 112.451 64.4975 114.632C64.5099 114.696 64.5214 114.76 64.5321 114.824C64.8285 116.625 64.4291 118.417 63.4785 119.88C63.2486 120.279 63.0178 120.656 62.8074 120.998C62.724 121.135 62.6397 121.272 62.5571 121.409C62.2917 121.846 62.013 122.297 61.7245 122.756C71.6508 118.163 81.9402 113.645 93.0648 108.995C93.1322 108.967 93.2006 108.94 93.2689 108.913L118.113 99.4265C116.818 97.9405 116.19 95.9593 116.429 93.9622C116.917 89.8774 118.018 86.634 119.794 84.0465C121.717 81.2443 124.441 79.2108 127.892 78.0019C132.905 76.2461 138.06 74.5046 143.213 72.8278C143.22 72.8261 143.226 72.8235 143.233 72.8216C144.009 72.5713 144.804 72.4479 145.59 72.4479C146.976 72.4479 148.338 72.8315 149.528 73.5788C149.802 73.6835 150.069 73.8051 150.33 73.9428C150.917 73.1483 151.473 72.4027 151.978 71.7343C152.128 71.5354 152.288 71.3447 152.458 71.1635C152.962 70.6265 154.14 69.3679 156.146 68.7528C159.999 67.5678 164.224 66.3233 169.053 64.9502C169.108 64.9352 169.162 64.92 169.217 64.9058C169.809 64.7522 170.412 64.6777 171.01 64.6777C172.355 64.6777 173.682 65.0576 174.843 65.789C175.419 66.0082 175.972 66.3038 176.486 66.6713C178.2 67.898 179.277 69.7957 179.45 71.8852C179.608 73.7829 179.007 75.6008 177.867 76.997C177.607 77.3512 177.347 77.6832 177.111 77.9858C177.024 78.0968 176.938 78.2087 176.852 78.3197C176.3 79.035 175.712 79.7735 175.096 80.5316C184.921 77.7843 194.209 75.4916 207.423 72.5438C207.448 72.5385 207.473 72.5332 207.498 72.5279L212.012 71.5727C214.061 61.7166 218.834 51.9651 226.611 41.5871L228.025 39.699L206.933 20.9551L205.494 21.4796C195.463 25.1358 184.505 26.9262 173.502 26.9262C156.804 26.9262 140.001 22.8013 126.182 14.8109L124.897 14.068L123.611 14.8119C109.682 22.8812 92.755 27.0486 75.946 27.0486ZM124.893 3.7955C138.164 13.2886 156.093 18.278 173.81 18.278C186.04 18.278 198.172 15.8983 208.59 10.979L239.789 38.7031L236.901 42.1924C228.27 52.6184 223.504 61.4813 221.174 69.6306L243.13 64.9848C243.614 64.8827 244.102 64.8321 244.588 64.8321C245.919 64.8321 247.228 65.2102 248.358 65.9266C249.096 66.2054 249.791 66.6091 250.409 67.1293C252.069 68.5283 252.991 70.615 252.908 72.7843C252.68 78.7448 249.963 82.2403 247.724 84.1221C246.092 85.4943 244.349 86.3357 242.866 86.8967C242.799 88.6108 242.778 90.733 242.762 92.2491C242.738 94.6111 242.712 97.0539 242.598 99.1255C242.364 103.544 241.429 106.828 239.653 109.461C237.641 112.446 234.672 114.368 230.829 115.173C228.871 115.583 226.903 116.004 224.934 116.433C226.252 123.146 227.263 130.243 227.263 138.209C227.263 160.144 220.009 179.863 206.283 195.232C191.915 211.324 171.131 217.742 154.428 222.902C142.924 226.453 132.992 229.522 127.743 234.571L124.643 237.552L121.543 234.571C116.295 229.522 106.361 226.453 94.8579 222.902C78.1562 217.742 57.3698 211.324 43.0027 195.232C39.944 191.807 37.2074 188.165 34.8002 184.331C34.4895 184.552 34.1629 184.751 33.8211 184.923C30.7455 186.478 27.5394 188.123 24.0262 189.951C24.0164 189.956 24.0067 189.961 23.9969 189.966C22.9442 190.507 21.8071 190.779 20.6692 190.779C19.6245 190.779 18.5806 190.55 17.6016 190.091C17.3255 189.961 17.061 189.816 16.8071 189.656C16.6438 189.593 16.4814 189.527 16.3207 189.451C14.2748 188.492 12.8119 186.66 12.3016 184.424C12.0868 183.488 12.0869 183.475 12.2013 178.187C12.2146 177.59 12.2288 176.918 12.2314 176.73C12.2039 171.621 12.3655 166.305 12.5226 161.163C12.5883 159.013 12.6557 156.801 12.7082 154.629C12.2794 154.709 11.8444 154.749 11.4104 154.749C10.1553 154.749 8.90019 154.414 7.78622 153.745C7.73749 153.716 7.68948 153.685 7.64066 153.655C7.2501 153.508 6.86931 153.325 6.5036 153.105C4.34233 151.808 3.03921 149.454 3.08625 146.934C3.23892 138.769 6.35093 133.133 12.6025 129.702C16.0935 127.787 19.5907 125.9 23.0498 124.062C23.9019 118.011 25.1695 112.374 26.4139 106.846C31.129 85.8901 34.8534 69.3377 12.3806 42.1924L9.49224 38.7031L40.8085 11.0998C51.1769 15.9959 63.3 18.3553 75.5475 18.3553C93.4322 18.3553 111.58 13.3198 124.893 3.7955Z" fill="white"/>
<path d="M166.59 66.5097C167.16 66.034 167.804 65.6496 168.499 65.3727C167.791 65.6541 167.15 66.0402 166.59 66.5097Z" fill="#ED7025"/>
<path d="M201.213 179.697C199.694 181.871 198.041 183.96 196.256 185.959C196.071 186.167 195.885 186.372 195.696 186.576C183.842 199.406 166.143 204.873 150.499 209.706C140.896 212.67 131.818 215.502 124.643 219.916C117.466 215.503 108.391 212.671 98.7908 209.707C89.4264 206.815 79.327 203.694 70.1844 198.903C64.24 195.789 58.6995 191.968 54.0306 187.046C93.6569 166.077 145.35 144.573 213.568 133.433C213.659 134.994 213.714 136.582 213.714 138.211C213.714 153.773 209.416 167.96 201.213 179.697ZM212.014 119.37C209.185 120.038 206.383 119.637 204.023 118.246C203.391 117.983 202.783 117.656 202.205 117.268C201.986 117.642 201.754 118.004 201.508 118.355C199.485 121.23 196.596 123.178 192.921 124.146C186.81 125.753 180.407 127.527 173.886 129.418C173.261 129.6 172.636 129.728 172.016 129.805C171.559 130.05 171.077 130.247 170.574 130.389C167.278 131.329 163.86 132.39 160.554 133.417L159.874 133.628C159.865 133.631 159.856 133.634 159.847 133.636C157.69 134.297 155.425 133.953 153.61 132.82C152.094 132.234 150.766 131.163 149.875 129.697C149.405 128.927 148.931 128.157 148.455 127.387C148.254 129.028 148.052 130.668 147.851 132.309C147.85 132.317 147.849 132.325 147.848 132.333C147.44 135.565 145.305 138.287 142.41 139.267C138.393 140.623 135.155 141.733 132.213 142.766C130.116 143.501 127.846 143.248 125.973 142.07C125.969 142.068 125.965 142.067 125.961 142.065C124.12 144.66 121.551 146.582 118.316 147.785C112.248 150.041 106.056 152.433 99.911 154.895C96.72 156.172 93.3373 155.982 90.6282 154.378C90.6176 154.371 90.6069 154.364 90.5963 154.358C90.4738 154.307 90.3522 154.255 90.2315 154.199C89.9217 154.885 89.5755 155.538 89.1894 156.162C87.4372 158.988 84.9687 161.059 81.641 162.49C75.7436 165.029 69.691 167.725 63.6524 170.501C63.0639 170.772 62.4657 170.991 61.8656 171.16C61.4671 171.455 61.0393 171.709 60.5901 171.917C60.5803 171.921 60.5715 171.926 60.5617 171.93C57.3254 173.409 54.0634 174.972 50.4419 176.715C50.4313 176.721 50.4197 176.726 50.4091 176.731C48.0187 177.867 45.2653 177.663 43.1234 176.322C42.0007 175.89 40.9754 175.187 40.1561 174.235C39.5942 173.584 39.0271 172.933 38.4572 172.283C38.4448 172.677 38.4323 173.07 38.4208 173.465C41.2772 179.202 44.8809 184.534 49.2037 189.375C62.0076 203.712 80.7463 209.5 97.2801 214.606C107.149 217.653 116.47 220.531 123.217 225.054L124.646 226.011L126.074 225.054C132.821 220.531 142.144 217.653 152.015 214.605C168.547 209.499 187.284 203.712 200.087 189.376C212.361 175.629 218.847 157.936 218.847 138.21C218.847 130.982 217.947 124.571 216.712 118.275C215.14 118.636 213.575 119.001 212.014 119.37Z" fill="#EF7021"/>
<path d="M28.1714 40.4819C29.4567 39.3484 41.7024 28.5549 43.5824 26.8968C53.7394 30.4021 64.7433 32.124 75.7996 32.1329C93.047 32.1462 110.42 27.9895 124.901 19.9272C146.599 31.9785 174.856 35.2086 199.386 28.7307C201.55 28.159 203.685 27.5137 205.783 26.7903C207.217 28.0641 214.731 34.7417 218.903 38.4493C219.866 39.3049 220.651 40.0026 221.143 40.4393C219.064 43.3268 217.212 46.176 215.563 49.0013C198.352 51.4157 180.412 55.07 162.363 59.7123C160.464 60.2014 158.563 60.7003 156.661 61.2106C154.76 61.721 152.858 62.2421 150.956 62.7729C150.005 63.0383 149.053 63.3063 148.103 63.577C144.3 64.6599 140.499 65.7837 136.708 66.9465C134.812 67.5279 132.917 68.1181 131.026 68.7182C130.553 68.8682 130.081 69.0191 129.607 69.17C127.245 69.9262 124.887 70.6958 122.536 71.4805C122.065 71.6376 121.595 71.7947 121.125 71.9527C120.185 72.2687 119.247 72.5864 118.309 72.9069C117.84 73.0666 117.371 73.2273 116.903 73.3888C115.966 73.711 115.031 74.0359 114.097 74.3626C112.695 74.8525 111.297 75.3469 109.902 75.8467C108.042 76.5124 106.187 77.1861 104.338 77.8678C103.875 78.0382 103.414 78.2095 102.952 78.3809C101.567 78.8948 100.187 79.414 98.8104 79.9369C97.8926 80.2857 96.9765 80.6363 96.0623 80.9887C93.3195 82.0458 90.5927 83.1199 87.8846 84.2099C87.4337 84.3918 86.9828 84.5738 86.5319 84.7558C70.3229 91.3269 54.8055 98.4616 40.5059 105.944C42.0778 98.7776 43.4803 91.405 43.5664 83.7394C43.569 83.4918 43.5708 83.2441 43.5708 82.9965C43.5708 82.5465 43.5664 82.0964 43.5566 81.6482C43.5371 80.7508 43.4989 79.8561 43.4403 78.9649C43.411 78.5193 43.3773 78.0737 43.3383 77.629C43.2646 76.7902 43.1732 75.9532 43.0649 75.1171C43.0516 75.0132 43.0374 74.9102 43.024 74.8064C41.4778 63.3613 36.626 52.2367 28.1714 40.4819ZM34.6191 108.791C33.7058 112.847 32.8155 116.806 32.0921 120.852C32.8483 120.952 33.5921 121.171 34.3005 121.509C34.4984 121.604 34.691 121.706 34.8783 121.817C35.5689 120.617 36.2177 119.496 36.7947 118.511C36.9048 118.324 37.0228 118.142 37.1497 117.965C37.5572 117.397 38.5122 116.067 40.252 115.183C40.2582 115.18 40.2644 115.177 40.2697 115.174C43.9942 113.294 48.064 111.301 53.0773 108.903C55.0771 107.946 57.4559 107.978 59.4416 108.987C59.6395 109.088 59.8321 109.198 60.0185 109.316C60.252 109.405 60.481 109.505 60.7046 109.618C62.6929 110.623 64.0758 112.45 64.4975 114.631C64.5099 114.694 64.5214 114.758 64.5321 114.822C64.8285 116.623 64.4291 118.415 63.4785 119.878C63.2486 120.277 63.0178 120.654 62.8074 120.997C62.724 121.133 62.6397 121.27 62.5571 121.407C62.2917 121.844 62.013 122.295 61.7245 122.754C71.6508 118.162 81.9402 113.644 93.0648 108.993C93.1322 108.965 93.2006 108.938 93.2689 108.912L118.113 99.4247C116.818 97.9388 116.19 95.9576 116.429 93.9604C116.917 89.8756 118.018 86.6322 119.794 84.0448C121.717 81.2425 124.441 79.209 127.893 78.0001C132.905 76.2443 138.06 74.5028 143.213 72.8261C143.22 72.8243 143.226 72.8217 143.233 72.8199C145.378 72.1293 147.663 72.4062 149.528 73.577C149.802 73.6818 150.069 73.8034 150.33 73.9409C150.917 73.1465 151.473 72.4009 151.978 71.7325C152.128 71.5337 152.288 71.3429 152.458 71.1618C152.962 70.6248 154.14 69.3661 156.147 68.751C159.999 67.566 164.224 66.3216 169.053 64.9484C169.108 64.9333 169.162 64.9182 169.217 64.904C171.139 64.407 173.166 64.7301 174.844 65.7872C175.42 66.0074 175.973 66.3021 176.487 66.6695C178.2 67.8962 179.278 69.794 179.451 71.8834C179.609 73.7812 179.008 75.599 177.868 76.9953C177.607 77.3494 177.348 77.6814 177.112 77.9841C177.025 78.095 176.939 78.2069 176.853 78.3178C176.301 79.0332 175.712 79.7718 175.097 80.5298C184.922 77.7817 194.21 75.4898 207.424 72.542C207.449 72.5367 207.474 72.5314 207.499 72.5261L212.013 71.571C214.062 61.7148 218.835 51.9634 226.611 41.5852L228.026 39.6973L206.934 20.9533L205.495 21.4779C180.241 30.6817 149.109 28.0649 126.182 14.8092L124.897 14.0662L123.611 14.81C100.535 28.1803 69.2356 30.8405 43.8753 21.5862L42.4426 21.0634L21.2781 39.7212L22.6974 41.6172C33.4404 55.9621 38.4439 69.1114 38.4439 82.9991C38.4439 91.7919 36.5861 100.049 34.6191 108.791Z" fill="#EF7021"/>
<path d="M213.568 133.433C145.35 144.573 93.6569 166.077 54.0306 187.046C58.6995 191.968 64.24 195.789 70.1844 198.903C79.327 203.694 89.4264 206.815 98.7908 209.707C108.391 212.671 117.466 215.503 124.643 219.916C131.818 215.502 140.896 212.67 150.499 209.706C166.143 204.873 183.842 199.406 195.696 186.576C195.885 186.372 196.071 186.167 196.256 185.959C198.041 183.96 199.694 181.871 201.213 179.697C209.416 167.96 213.714 153.772 213.714 138.209C213.714 136.58 213.66 134.994 213.568 133.433Z" fill="black"/>
<path d="M43.0666 75.1189C43.1749 75.9541 43.2664 76.7911 43.34 77.6308C43.3791 78.0755 43.4128 78.5211 43.4421 78.9667C43.5007 79.8588 43.5389 80.7526 43.5584 81.65C43.5682 82.0991 43.5726 82.5483 43.5726 82.9983C43.5726 83.2459 43.5708 83.4936 43.5682 83.7412C43.4821 91.4077 42.0796 98.7803 40.5076 105.946C54.8073 98.4643 70.3247 91.3295 86.5336 84.7576C86.9837 84.5747 87.4346 84.3928 87.8864 84.2117C90.5945 83.1217 93.3204 82.0477 96.0641 80.9905C96.9783 80.6381 97.8943 80.2875 98.8121 79.9387C100.189 79.4158 101.57 78.8966 102.954 78.3826C103.415 78.2113 103.877 78.04 104.339 77.8696C106.188 77.1879 108.043 76.5142 109.904 75.8485C111.299 75.3487 112.698 74.8543 114.099 74.3644C115.033 74.0377 115.968 73.7128 116.905 73.3906C117.373 73.2291 117.841 73.0684 118.311 72.9087C119.248 72.5882 120.187 72.2705 121.127 71.9545C121.597 71.7965 122.067 71.6394 122.537 71.4823C124.89 70.6985 127.247 69.928 129.609 69.1718C130.081 69.0209 130.555 68.87 131.028 68.72C132.919 68.1199 134.813 67.5288 136.709 66.9483C140.501 65.7864 144.302 64.6626 148.105 63.5788C149.055 63.3081 150.006 63.04 150.957 62.7746C152.86 62.2438 154.761 61.7228 156.663 61.2124C158.564 60.702 160.466 60.2023 162.365 59.7141C180.414 55.0718 198.353 51.4175 215.565 49.0031C217.213 46.1778 219.066 43.3286 221.145 40.4411C220.653 40.0044 219.868 39.3067 218.905 38.4511C214.732 34.7426 207.218 28.0659 205.785 26.7921C203.687 27.5155 201.551 28.1608 199.388 28.7325C174.859 35.2103 146.601 31.9803 124.903 19.929C110.422 27.9913 93.0488 32.148 75.8014 32.1347C64.7451 32.1259 53.7412 30.4039 43.5841 26.8986C41.7041 28.5567 29.4585 39.3502 28.1732 40.4837C36.6278 52.2385 41.4805 63.3631 43.0276 74.81C43.0391 74.912 43.0533 75.0159 43.0666 75.1189Z" fill="black"/>
<path d="M247.01 71.9678C246.706 79.9457 240.874 81.7077 238.072 82.5545C237.81 82.6335 237.489 82.7302 237.237 82.8163C236.934 84.3972 236.889 88.6507 236.859 91.5639C236.835 93.8788 236.81 96.2727 236.702 98.2432C236.515 101.787 235.828 104.33 234.541 106.239C233.205 108.22 231.262 109.454 228.599 110.012C222.309 111.329 215.94 112.749 209.668 114.235C207.846 114.664 206.07 114.351 204.664 113.351C203.52 112.539 202.085 110.879 201.741 107.581C201.644 106.647 201.646 105.639 201.747 104.584C202.153 100.268 202.631 95.907 203.095 91.6899C203.16 91.0916 203.226 90.4952 203.291 89.9005C202.117 90.2315 201.098 90.5404 200.789 90.7916C200.684 91.0189 200.392 91.8319 200.095 94.2942C199.858 96.2638 199.689 98.6675 199.525 100.993C199.372 103.158 199.228 105.203 199.03 106.969C198.643 110.529 197.821 113.1 196.446 115.057C195.048 117.044 193.09 118.346 190.462 119.038C184.287 120.662 177.845 122.447 171.316 124.341C170.663 124.531 170.017 124.625 169.39 124.625C169.323 124.625 169.258 124.623 169.191 124.622C168.873 124.94 168.474 125.178 168.033 125.302C164.684 126.257 161.237 127.327 157.903 128.363L157.22 128.575C157.216 128.576 157.214 128.577 157.21 128.578C155.934 128.968 154.508 128.429 153.817 127.295C150.687 122.163 147.396 117.007 144.402 112.373C144.354 112.443 144.304 112.514 144.255 112.584C143.777 116.459 143.302 120.334 142.826 124.211C142.544 126.509 142.262 128.807 141.979 131.106C141.824 132.336 141.04 133.78 139.637 134.252C135.526 135.64 132.369 136.724 129.402 137.765C128.636 138.035 127.807 137.942 127.129 137.51C126.424 137.059 125.971 136.29 125.887 135.399C125.886 135.394 125.886 135.389 125.885 135.383C125.855 135.042 125.854 135.029 126.463 129.85C126.558 129.053 126.654 128.229 126.666 128.113C127.122 123.348 127.708 118.9 128.329 114.191C128.407 113.601 128.485 113.005 128.565 112.405C128.17 112.596 127.806 112.767 127.474 112.922C126.536 113.36 125.725 113.74 125.484 114.023C125.416 114.138 125.052 114.866 124.71 117.593C124.457 119.596 124.29 122.038 124.126 124.399C123.977 126.567 123.836 128.615 123.633 130.387C123.242 133.88 122.439 136.447 121.108 138.458C119.784 140.459 117.924 141.885 115.42 142.815C109.311 145.086 103.082 147.492 96.9056 149.967C95.0336 150.716 93.1837 150.644 91.6978 149.764C90.5661 149.093 89.1379 147.64 88.7616 144.526C88.6552 143.644 88.6445 142.673 88.7279 141.637C89.035 137.877 89.4025 133.996 89.7566 130.242C89.84 129.359 89.9253 128.462 90.0096 127.561C89.8001 127.665 89.6039 127.761 89.4193 127.852C88.0737 128.511 87.7213 128.704 87.4949 129.009C87.4381 129.111 87.1035 129.81 86.8594 132.461C86.681 134.398 86.6011 136.76 86.5248 139.044C86.4502 141.245 86.3801 143.324 86.2283 145.116C85.678 151.784 83.3755 155.522 78.529 157.608C72.5988 160.16 66.5115 162.871 60.4366 165.664C59.7452 165.981 59.0545 166.183 58.3799 166.273C58.1287 166.604 57.7932 166.881 57.3867 167.074C57.376 167.079 57.3663 167.084 57.3556 167.088C54.0972 168.577 50.9399 170.089 47.1524 171.913C47.1488 171.914 47.1453 171.916 47.1409 171.918C45.9328 172.492 44.4975 172.205 43.6516 171.22C40.2254 167.249 36.6376 163.287 33.1679 159.512C33.0818 159.661 32.9957 159.811 32.9087 159.961C32.7498 165.127 32.566 171.117 32.3823 176.935V176.945C32.3415 178.082 31.7299 179.516 30.4553 180.158C27.4382 181.684 24.2162 183.338 20.6089 185.213C20.6053 185.214 20.6026 185.216 20.5991 185.218C20.213 185.416 19.7976 185.516 19.383 185.516C19.0068 185.516 18.6312 185.435 18.2797 185.269C17.5306 184.918 16.9927 184.235 16.8009 183.394C16.714 183.014 16.7139 183.001 16.816 178.288C16.8311 177.591 16.8471 176.872 16.848 176.747C16.8196 171.709 16.9811 166.42 17.1365 161.305C17.2146 158.752 17.2953 156.111 17.3504 153.542C17.4001 151.013 17.4517 148.466 17.5031 145.91C17.504 145.859 17.5057 145.807 17.5075 145.756C15.5476 146.83 13.4954 147.964 11.3065 149.184C10.5486 149.607 9.6236 149.591 8.87977 149.145C8.13594 148.698 7.68769 147.889 7.70367 147.022C7.76492 143.746 8.35519 141.108 9.50733 138.954C10.6719 136.779 12.4107 135.078 14.8233 133.754C19.8215 131.012 24.8348 128.324 29.7239 125.764C30.5653 125.326 31.5053 125.294 32.3077 125.678C33.1093 126.061 33.6765 126.815 33.8646 127.747C33.9135 127.988 33.972 128.273 33.8167 132.975C34.2685 132.184 34.7194 131.394 35.1508 130.637C37.1577 127.119 39.2339 123.481 40.7775 120.847C40.8156 120.782 40.8565 120.72 40.9 120.658C41.1813 120.267 41.6065 119.674 42.3423 119.3C46.0446 117.431 50.0869 115.453 55.0673 113.07C55.781 112.729 56.6313 112.743 57.3441 113.106C58.0498 113.465 58.5371 114.114 58.6809 114.886C58.6836 114.902 58.6862 114.918 58.6897 114.934C58.7989 115.598 58.6418 116.258 58.2743 116.787C58.0524 117.179 57.8154 117.568 57.5837 117.945C57.4959 118.089 57.4071 118.233 57.3201 118.376C55.5981 121.219 53.3915 124.484 51.0544 127.941C48.6276 131.533 46.1183 135.247 44.2685 138.346C41.8009 142.481 41.5115 143.871 41.484 144.22C41.5692 144.427 41.9518 145.163 43.5335 146.882C44.8463 148.308 46.5559 149.959 48.3649 151.707C49.6111 152.91 50.868 154.125 52.0654 155.331C52.2039 152.625 52.3628 149.877 52.5181 147.197C52.629 145.281 52.7435 143.3 52.8501 141.352C53.1927 134.726 55.512 130.753 60.3718 128.478C71.2638 123.379 82.5402 118.399 94.8445 113.256C94.8676 113.246 94.8915 113.236 94.9146 113.227L130.031 99.8188C130.21 98.3098 130.39 96.8027 130.57 95.307C130.592 95.1312 130.617 94.9546 130.643 94.7797C128.612 95.4996 126.439 96.2763 124.253 97.0751C123.462 97.3646 122.577 97.2216 121.917 96.6979C121.257 96.1751 120.916 95.3469 121.015 94.5099C121.81 87.8651 124.401 84.1185 129.419 82.361C134.4 80.6168 139.521 78.8868 144.642 77.2198C145.507 76.9411 146.409 77.053 147.125 77.5243C147.856 78.0055 148.307 78.7857 148.396 79.722C148.428 80.0505 148.448 80.2653 147.788 85.2475C148.013 84.9378 148.238 84.6288 148.461 84.3226C150.914 80.9505 153.694 77.1284 155.665 74.5152C155.717 74.4469 155.772 74.3821 155.831 74.3191C156.145 73.9836 156.669 73.4217 157.5 73.1679C161.323 71.9918 165.516 70.7562 170.317 69.3919C170.335 69.3865 170.354 69.3812 170.373 69.3769C171.097 69.1895 171.897 69.3431 172.516 69.786C173.123 70.2209 173.505 70.892 173.565 71.6278C173.624 72.3317 173.389 73.0018 172.95 73.5008C172.705 73.839 172.446 74.1709 172.195 74.4939C172.102 74.6138 172.008 74.7336 171.915 74.8534C170.055 77.2624 167.744 79.9875 165.298 82.8741C162.544 86.1236 159.695 89.4834 157.552 92.3414C154.543 96.3553 154.255 97.6326 154.229 97.8829C154.245 98.025 154.409 98.8823 156.064 101.378C157.313 103.26 158.992 105.468 160.77 107.805C161.798 109.156 162.834 110.518 163.826 111.867C164.216 108.694 164.634 105.508 165.041 102.401C165.257 100.755 165.473 99.1149 165.682 97.4862C166.124 93.9977 166.979 91.468 168.374 89.5321C169.772 87.59 171.707 86.2897 174.289 85.5564C184.812 82.5687 194.384 80.1837 208.43 77.0503C208.439 77.0485 208.448 77.0468 208.456 77.0451L244.085 69.5055C244.816 69.3511 245.577 69.5419 246.149 70.023C246.722 70.5032 247.038 71.2213 247.01 71.9678ZM200.083 189.376C187.281 203.712 168.544 209.499 152.012 214.605C142.141 217.653 132.818 220.531 126.07 225.054L124.642 226.011L123.214 225.054C116.466 220.531 107.145 217.654 97.2767 214.606C80.7437 209.5 62.0041 203.713 49.2001 189.375C44.8775 184.534 41.2736 179.202 38.4173 173.465C38.4297 173.071 38.4422 172.677 38.4537 172.283C39.0235 172.933 39.5907 173.584 40.1527 174.235C40.9719 175.187 41.9971 175.89 43.1199 176.322C45.2626 177.663 48.016 177.867 50.4055 176.731C50.4162 176.726 50.4277 176.721 50.4384 176.715C54.0608 174.972 57.3219 173.409 60.5582 171.93C60.568 171.926 60.5769 171.922 60.5866 171.917C61.0358 171.709 61.4636 171.455 61.8621 171.16C62.4631 170.991 63.0604 170.772 63.6489 170.501C69.6874 167.725 75.7392 165.03 81.6375 162.491C84.9652 161.058 87.4337 158.988 89.1859 156.162C89.5729 155.538 89.919 154.885 90.2279 154.199C90.3486 154.254 90.4703 154.307 90.5928 154.358C90.6034 154.364 90.6141 154.371 90.6247 154.378C93.3338 155.983 96.7166 156.172 99.9075 154.895C106.053 152.433 112.245 150.041 118.312 147.785C121.546 146.583 124.116 144.66 125.958 142.065C125.961 142.067 125.965 142.068 125.969 142.07C127.843 143.248 130.112 143.501 132.209 142.766C135.152 141.733 138.39 140.623 142.406 139.267C145.302 138.287 147.436 135.565 147.845 132.333C147.846 132.325 147.846 132.317 147.847 132.309C148.049 130.668 148.25 129.028 148.452 127.387C148.928 128.156 149.402 128.927 149.871 129.697C150.763 131.163 152.09 132.234 153.606 132.82C155.422 133.953 157.687 134.297 159.843 133.636C159.852 133.634 159.861 133.631 159.87 133.628L160.55 133.417C163.856 132.39 167.276 131.329 170.571 130.389C171.074 130.248 171.556 130.049 172.012 129.805C172.632 129.728 173.257 129.601 173.882 129.418C180.404 127.527 186.807 125.753 192.917 124.146C196.592 123.178 199.481 121.23 201.504 118.355C201.751 118.004 201.983 117.642 202.202 117.268C202.78 117.657 203.388 117.983 204.02 118.246C206.38 119.637 209.181 120.038 212.011 119.371C213.571 119.001 215.137 118.636 216.706 118.275C217.941 124.571 218.841 130.982 218.841 138.21C218.844 157.936 212.357 175.628 200.083 189.376ZM166.59 66.5097C167.16 66.034 167.804 65.6496 168.499 65.3727C167.791 65.6541 167.15 66.0402 166.59 66.5097ZM22.6974 41.6172L21.2781 39.7212L42.4444 21.0616L43.877 21.5844C69.2383 30.8387 100.538 28.1795 123.614 14.8083L124.899 14.0645L126.185 14.8074C149.111 28.0623 180.243 30.6799 205.498 21.4761L206.936 20.9515L228.029 39.6955L226.614 41.5835C218.838 51.9616 214.065 61.713 212.015 71.5692L207.502 72.5243C207.477 72.5296 207.451 72.535 207.426 72.5403C194.213 75.4881 184.924 77.7799 175.1 80.528C175.715 79.77 176.303 79.0315 176.856 78.3161C176.942 78.2051 177.029 78.0933 177.115 77.9823C177.351 77.6796 177.609 77.3477 177.87 76.9935C179.011 75.5973 179.612 73.7794 179.454 71.8817C179.281 69.7922 178.203 67.8954 176.49 66.6678C175.976 66.2994 175.423 66.0047 174.847 65.7855C173.169 64.7283 171.143 64.4052 169.219 64.9023C169.164 64.9165 169.11 64.9316 169.056 64.9467C164.227 66.3198 160.002 67.5643 156.149 68.7492C154.141 69.3644 152.964 70.623 152.461 71.16C152.291 71.342 152.131 71.5328 151.981 71.7308C151.477 72.3991 150.921 73.1448 150.333 73.9392C150.072 73.8016 149.804 73.68 149.531 73.5752C147.664 72.4045 145.38 72.1266 143.236 72.8181C143.229 72.8199 143.223 72.8226 143.216 72.8243C138.062 74.5019 132.908 76.2426 127.895 77.9983C124.445 79.2072 121.72 81.2408 119.797 84.043C118.02 86.6304 116.92 89.8738 116.432 93.9587C116.193 95.9558 116.819 97.9361 118.115 99.4229L93.2716 108.91C93.2032 108.936 93.1349 108.963 93.0674 108.991C81.9428 113.643 71.6535 118.16 61.7272 122.752C62.0148 122.293 62.2944 121.843 62.5598 121.405C62.6423 121.268 62.7267 121.132 62.8101 120.995C63.0205 120.651 63.2512 120.275 63.4811 119.876C64.4318 118.414 64.8312 116.622 64.5347 114.821C64.5241 114.757 64.5126 114.693 64.5001 114.629C64.0785 112.448 62.6965 110.621 60.7073 109.616C60.4836 109.503 60.2537 109.403 60.0212 109.315C59.8348 109.197 59.6421 109.086 59.4442 108.985C57.4586 107.975 55.0798 107.943 53.0799 108.9C48.0666 111.298 43.9969 113.29 40.2724 115.171C40.2662 115.175 40.26 115.177 40.2546 115.18C38.5149 116.064 37.5607 117.395 37.1524 117.963C37.0255 118.139 36.9074 118.321 36.7974 118.509C36.2204 119.493 35.5715 120.614 34.881 121.814C34.6937 121.704 34.5011 121.601 34.3031 121.506C33.5948 121.168 32.851 120.95 32.0947 120.849C32.8181 116.804 33.7084 112.845 34.6218 108.788C36.5888 100.047 38.4466 91.7902 38.4466 82.9965C38.4439 69.1114 33.4395 55.9621 22.6974 41.6172ZM250.409 67.1293C249.791 66.6091 249.096 66.2054 248.358 65.9266C246.816 64.9484 244.941 64.6013 243.13 64.9848L221.174 69.6306C223.504 61.4813 228.27 52.6184 236.901 42.1924L239.789 38.7031L208.59 10.979C183.08 23.0241 147.324 19.8411 124.893 3.7955C102.464 19.8411 66.3189 23.1449 40.8076 11.0989L9.49489 38.7031L12.3823 42.1924C34.8552 69.3377 31.1308 85.8902 26.4157 106.846C25.1712 112.374 23.9037 118.012 23.0516 124.062C19.5925 125.9 16.0953 127.787 12.6042 129.702C6.3527 133.133 3.24069 138.77 3.08802 146.934C3.04098 149.454 4.34401 151.807 6.50538 153.105C6.87108 153.324 7.2501 153.507 7.64066 153.655C7.68948 153.685 7.73749 153.716 7.78622 153.745C9.28542 154.646 11.0403 154.941 12.7082 154.629C12.6557 156.801 12.5883 159.013 12.5226 161.163C12.3655 166.305 12.2039 171.621 12.2314 176.73C12.2288 176.919 12.2137 177.591 12.2013 178.187C12.0869 183.475 12.0868 183.488 12.3016 184.424C12.8119 186.66 14.2748 188.492 16.3207 189.451C16.4814 189.527 16.6438 189.593 16.8071 189.656C17.061 189.816 17.3255 189.961 17.6016 190.091C18.5806 190.55 19.6245 190.779 20.6692 190.779C21.8071 190.779 22.9442 190.507 23.9969 189.966C24.0067 189.961 24.0164 189.956 24.0262 189.951C27.5394 188.123 30.7455 186.478 33.8211 184.923C34.1629 184.751 34.4895 184.552 34.8002 184.331C37.2074 188.165 39.944 191.807 43.0027 195.232C57.3698 211.324 78.1562 217.742 94.8579 222.902C106.36 226.454 116.295 229.522 121.543 234.571L124.643 237.552L127.743 234.571C132.992 229.522 142.924 226.453 154.428 222.902C171.131 217.742 191.915 211.324 206.283 195.232C220.009 179.863 227.263 160.144 227.263 138.209C227.263 130.243 226.252 123.146 224.934 116.433C226.903 116.004 228.871 115.583 230.829 115.173C234.672 114.368 237.641 112.446 239.653 109.461C241.429 106.828 242.364 103.544 242.598 99.1255C242.712 97.0539 242.738 94.6111 242.762 92.2491C242.778 90.733 242.799 88.6108 242.866 86.8967C244.349 86.3357 246.092 85.4943 247.724 84.1221C249.964 82.2394 252.681 78.7447 252.908 72.7843C252.991 70.615 252.069 68.5283 250.409 67.1293Z" fill="black"/>
<path d="M67.8545 149.253C68.7767 148.838 69.7007 148.424 70.6239 148.012C70.8103 145.755 71.1857 140.277 71.4281 136.611C70.4685 137.047 69.5179 137.482 68.5806 137.912C68.4084 140.155 68.0684 145.638 67.8545 149.253Z" fill="black"/>
<path d="M104.978 133.663C105.913 133.298 106.866 132.928 107.846 132.551C108.116 130.206 108.704 124.448 109.078 120.697C108.097 121.08 107.119 121.465 106.147 121.851C105.885 124.187 105.325 129.959 104.978 133.663Z" fill="black"/>
<path d="M180.075 108.618C181.091 108.335 182.107 108.053 183.118 107.775C183.442 105.254 184.134 99.28 184.553 95.5937C183.56 95.8671 182.564 96.144 181.57 96.4218C181.232 98.9365 180.506 104.958 180.075 108.618Z" fill="black"/>
<path d="M221.925 86.4112C221.004 86.6091 220.077 86.8097 219.15 87.013C218.889 89.6413 218.366 95.5626 218.073 99.0625C219.048 98.845 220.033 98.6267 221.027 98.4083C221.25 95.773 221.678 89.9049 221.925 86.4112Z" fill="black"/>
<path d="M241.5 77.6015C240.166 78.7226 238.514 79.2223 237.186 79.6235C235.979 79.9883 235.108 80.252 234.699 80.876C233.949 82.0228 233.858 85.6665 233.797 91.5319C233.773 93.8131 233.749 96.1724 233.643 98.0755C233.489 101.006 232.951 103.116 232 104.527C231.12 105.832 229.839 106.623 227.97 107.015C221.655 108.336 215.26 109.763 208.962 111.255C208.29 111.414 207.306 111.473 206.437 110.855C205.535 110.215 204.964 108.973 204.786 107.265C204.71 106.534 204.713 105.729 204.794 104.874C205.198 100.58 205.676 96.231 206.138 92.0254C206.3 90.5502 206.461 89.0838 206.618 87.6281L206.655 87.2748C206.667 87.1568 206.667 87.1568 206.668 87.1328C206.671 87.0813 206.684 86.9171 206.708 86.6429L206.79 85.7055L205.888 85.9762C204.834 86.2931 203.931 86.5443 203.134 86.7653C200.661 87.4533 199.298 87.8323 198.43 88.8255C197.298 90.1197 196.918 94.3989 196.468 100.778C196.318 102.911 196.175 104.926 195.985 106.631C195.66 109.62 194.991 111.8 193.939 113.294C192.961 114.685 191.608 115.568 189.681 116.075C183.482 117.706 177.015 119.497 170.46 121.399C169.774 121.598 168.778 121.716 167.936 121.136C167.091 120.555 166.572 119.373 166.433 117.717C166.373 116.993 166.394 116.19 166.494 115.332C166.979 111.165 167.537 106.912 168.077 102.798C168.294 101.149 168.508 99.5073 168.719 97.8749C169.089 94.9493 169.789 92.8047 170.858 91.3207C171.85 89.9422 173.207 89.0466 175.125 88.5015C185.586 85.5316 195.11 83.1589 209.093 80.0389L243.89 72.6752C243.665 74.8241 242.879 76.4414 241.5 77.6015ZM156.996 125.437L156.388 125.626C152.553 119.343 148.492 113.038 145.022 107.696L144.508 106.905L143.964 107.676C143.109 108.889 142.254 110.105 141.401 111.321L141.31 111.452L141.29 111.61C140.788 115.686 140.287 119.762 139.788 123.839C139.505 126.137 139.224 128.435 138.942 130.731C138.903 131.031 138.73 131.295 138.643 131.358C134.804 132.654 131.795 133.685 128.992 134.665C129.101 133.665 129.356 131.501 129.508 130.209C129.635 129.133 129.707 128.518 129.717 128.41C130.168 123.695 130.752 119.274 131.369 114.592C131.65 112.468 131.939 110.272 132.219 108.026L132.387 106.672L131.24 107.41C129.109 108.779 127.485 109.539 126.18 110.149C124.764 110.811 123.74 111.29 123.067 112.147C121.795 113.764 121.446 118.828 121.076 124.19C120.928 126.323 120.79 128.337 120.594 130.042C119.957 135.737 118.208 138.515 114.357 139.947C108.225 142.226 101.971 144.641 95.7711 147.126C95.0859 147.4 94.0953 147.623 93.2627 147.13C92.4896 146.672 91.9854 145.644 91.8061 144.16C91.7245 143.483 91.7174 142.719 91.7848 141.887C92.0902 138.146 92.4567 134.275 92.81 130.531C92.9893 128.637 93.1739 126.678 93.3497 124.755C93.3808 124.402 93.387 124.208 93.3914 124.067C93.3976 123.872 93.4003 123.783 93.4704 123.396L93.7198 122.024L92.518 122.731C90.5341 123.899 89.1131 124.595 88.0754 125.104C86.5443 125.854 85.701 126.267 85.0034 127.235C83.806 128.895 83.6417 133.776 83.4669 138.943C83.3941 141.103 83.3249 143.145 83.1793 144.86C82.7231 150.392 81.0801 153.178 77.321 154.797C71.3677 157.36 65.2582 160.081 59.1611 162.884C58.1767 163.336 57.2642 163.39 56.5941 163.035C55.8484 162.64 55.3327 161.714 55.1037 160.357C54.9963 159.715 54.9599 158.987 54.9963 158.193C55.1579 154.647 55.3718 150.95 55.5795 147.375C55.6904 145.457 55.8058 143.473 55.9123 141.518C56.1973 136.01 57.866 133.035 61.6748 131.252C72.5251 126.172 83.7607 121.211 96.0215 116.085L132.858 102.019L132.903 101.636C133.139 99.6421 133.377 97.6476 133.613 95.6744C133.663 95.2688 133.738 94.8365 133.817 94.3803C133.975 93.4616 134.139 92.5118 134.117 91.6677C134.115 91.6162 134.109 91.5727 134.105 91.5443L134.104 91.5354C134.069 91.2097 133.918 90.9478 133.68 90.7961C133.465 90.6602 133.2 90.6318 132.952 90.7188C130.347 91.6349 127.31 92.708 124.202 93.8353C124.962 89.0386 126.813 86.5204 130.433 85.2519C135.308 83.5442 140.319 81.8506 145.331 80.2173C145.19 81.7299 144.186 89.1309 143.495 94.0918L143.426 94.5889L143.893 94.7735C144.338 94.9493 144.638 94.6022 144.782 94.4353C144.885 94.3164 145.024 94.1451 145.205 93.9125C145.529 93.4971 145.985 92.8917 146.6 92.06C147.748 90.5094 149.298 88.379 150.939 86.1236C153.376 82.7737 156.138 78.9773 158.091 76.3864C158.191 76.2798 158.336 76.1281 158.404 76.0943C161.806 75.0478 165.501 73.9542 169.661 72.7639C169.604 72.8376 169.547 72.9104 169.49 72.9841C167.674 75.3354 165.385 78.0356 162.962 80.8937C156.93 88.008 151.233 94.7282 151.167 97.826C151.116 100.171 154.46 104.568 158.333 109.659C161.052 113.234 164.053 117.181 165.779 120.403C165.858 120.579 165.947 120.751 166.046 120.918C166.323 121.466 166.559 121.993 166.745 122.487C163.506 123.415 160.199 124.442 156.996 125.437ZM45.8893 169.124C41.7148 164.289 37.3184 159.484 33.1865 155.01L32.5971 154.372L32.164 155.125C31.4752 156.321 30.7872 157.515 30.1002 158.706L29.8748 159.098L29.8694 159.259C29.707 164.559 29.5153 170.793 29.3253 176.836C29.3155 177.099 29.154 177.372 29.0803 177.424C26.2195 178.87 23.1794 180.429 19.8064 182.18C19.8197 181.231 19.8579 179.443 19.8819 178.353C19.9032 177.359 19.9147 176.836 19.9138 176.737C19.8854 171.752 20.0461 166.487 20.2014 161.397C20.2795 158.836 20.3603 156.188 20.4162 153.605C20.4659 151.072 20.5174 148.525 20.5689 145.972C20.5778 145.57 20.6062 145.144 20.6364 144.691C20.6967 143.79 20.7597 142.859 20.6648 142.034L20.6639 142.025C20.6594 141.989 20.6515 141.951 20.6426 141.913L20.6399 141.902C20.5716 141.58 20.3914 141.337 20.1322 141.218C20.0248 141.168 19.9094 141.143 19.7922 141.143C19.6502 141.143 19.5064 141.179 19.3733 141.252C16.698 142.702 13.8895 144.244 10.8148 145.953C11.1175 141.241 12.7942 138.36 16.3003 136.437C21.1858 133.757 26.0846 131.129 30.8671 128.622C30.8681 130.276 30.5955 137.544 30.3949 142.439L30.3745 142.942L30.8591 143.08C31.3287 143.212 31.5861 142.832 31.7397 142.604C31.8435 142.45 31.982 142.231 32.1648 141.932C32.4915 141.398 32.9495 140.622 33.5655 139.562C34.7114 137.59 36.2186 134.948 37.8138 132.151C39.81 128.652 41.8747 125.034 43.4075 122.418C43.5078 122.278 43.6596 122.07 43.7315 122.028C47.0148 120.371 50.5742 118.622 54.8303 116.578C54.7877 116.648 54.7452 116.718 54.7025 116.788C53.0205 119.564 50.8342 122.799 48.5193 126.225C42.2385 135.52 38.143 141.819 38.4359 144.582C38.6472 146.574 41.997 149.811 46.239 153.908C49.2773 156.843 52.6308 160.083 54.5925 162.782C54.7078 162.978 54.8348 163.157 54.9715 163.321C55.244 163.726 55.4819 164.117 55.6762 164.49C52.2793 166.049 48.7519 167.746 45.8893 169.124ZM246.15 70.0212C245.578 69.5401 244.817 69.3484 244.086 69.5037L208.457 77.0432C208.448 77.045 208.439 77.0467 208.431 77.0485C194.385 80.1818 184.812 82.5669 174.29 85.5546C171.708 86.2878 169.773 87.5882 168.374 89.5303C166.98 91.4671 166.125 93.9959 165.683 97.4843C165.474 99.1131 165.258 100.753 165.042 102.399C164.635 105.506 164.217 108.692 163.827 111.866C162.836 110.516 161.799 109.154 160.771 107.803C158.993 105.466 157.314 103.257 156.065 101.376C154.409 98.8805 154.246 98.0231 154.23 97.8811C154.255 97.6308 154.544 96.3535 157.553 92.3396C159.695 89.4815 162.544 86.1218 165.299 82.8722C167.745 79.9866 170.056 77.2607 171.916 74.8516C172.008 74.7318 172.103 74.6111 172.196 74.4922C172.448 74.1691 172.706 73.8362 172.951 73.4989C173.39 73.0001 173.625 72.3299 173.566 71.626C173.506 70.8902 173.124 70.22 172.517 69.7842C171.898 69.3413 171.098 69.1877 170.373 69.375C170.355 69.3794 170.336 69.3848 170.318 69.3901C165.518 70.7544 161.324 71.9899 157.501 73.166C156.67 73.4199 156.146 73.9818 155.831 74.3173C155.773 74.3794 155.718 74.4451 155.666 74.5135C153.695 77.1266 150.915 80.9487 148.462 84.3208C148.24 84.6262 148.014 84.9351 147.789 85.2457C148.449 80.2635 148.428 80.0487 148.397 79.7203C148.308 78.7847 147.856 78.0045 147.126 77.5225C146.41 77.0512 145.508 76.9402 144.643 77.2181C139.522 78.885 134.4 80.615 129.42 82.3592C124.403 84.1167 121.811 87.8633 121.016 94.5081C120.916 95.3442 121.258 96.1733 121.918 96.6961C122.578 97.2189 123.462 97.3618 124.254 97.0733C126.441 96.2754 128.613 95.4987 130.644 94.7779C130.618 94.9537 130.593 95.1294 130.571 95.3052C130.391 96.8008 130.211 98.308 130.032 99.817L94.9156 113.225C94.8916 113.234 94.8685 113.244 94.8454 113.254C82.5412 118.398 71.2648 123.377 60.3728 128.477C55.513 130.752 53.1936 134.725 52.851 141.35C52.7444 143.297 52.6299 145.278 52.519 147.195C52.3636 149.875 52.2048 152.623 52.0664 155.329C50.8698 154.124 49.612 152.908 48.3658 151.705C46.556 149.957 44.8473 148.305 43.5345 146.88C41.9528 145.161 41.5711 144.425 41.485 144.219C41.5124 143.869 41.8019 142.479 44.2694 138.344C46.1193 135.244 48.6286 131.531 51.0553 127.94C53.3916 124.482 55.5982 121.216 57.3211 118.375C57.4081 118.231 57.4968 118.086 57.5847 117.943C57.8154 117.566 58.0534 117.178 58.2753 116.785C58.6419 116.257 58.7999 115.596 58.6907 114.932C58.6879 114.916 58.6854 114.9 58.6818 114.884C58.538 114.112 58.0516 113.463 57.3451 113.104C56.6323 112.741 55.7819 112.727 55.0683 113.068C50.0878 115.451 46.0465 117.429 42.3433 119.299C41.6075 119.673 41.1823 120.265 40.9009 120.657C40.8574 120.718 40.8166 120.78 40.7784 120.845C39.2348 123.479 37.1596 127.117 35.1518 130.635C34.7195 131.392 34.2695 132.182 33.8176 132.973C33.9721 128.271 33.9144 127.987 33.8656 127.745C33.6774 126.813 33.1102 126.059 32.3086 125.676C31.5062 125.294 30.5663 125.324 29.7249 125.762C24.8358 128.322 19.8225 131.01 14.8243 133.752C12.4117 135.075 10.6728 136.777 9.50831 138.952C8.35528 141.106 7.76581 143.745 7.70465 147.02C7.68867 147.887 8.13692 148.697 8.88075 149.143C9.62449 149.59 10.5504 149.605 11.3074 149.182C13.4973 147.963 15.5486 146.828 17.5085 145.754C17.5067 145.806 17.5057 145.857 17.5039 145.909C17.4525 148.464 17.4011 151.012 17.3513 153.54C17.2954 156.109 17.2155 158.75 17.1374 161.304C16.9812 166.419 16.8196 171.708 16.849 176.746C16.8481 176.87 16.8321 177.59 16.817 178.287C16.7149 183 16.7149 183.012 16.8019 183.392C16.9928 184.234 17.5315 184.916 18.2806 185.268C18.6321 185.432 19.0076 185.515 19.384 185.515C19.7985 185.515 20.2147 185.415 20.6001 185.216C20.6036 185.214 20.6063 185.213 20.6098 185.211C24.2171 183.336 27.4392 181.683 30.4563 180.157C31.7309 179.515 32.3425 178.081 32.3833 176.944V176.933C32.566 171.115 32.7507 165.126 32.9096 159.959C32.9957 159.809 33.0817 159.66 33.1687 159.51C36.6385 163.286 40.2271 167.247 43.6526 171.218C44.4985 172.203 45.9337 172.489 47.1417 171.916C47.1453 171.914 47.1488 171.912 47.1534 171.911C50.9416 170.088 54.098 168.575 57.3565 167.087C57.3672 167.082 57.3769 167.077 57.3877 167.072C57.7942 166.88 58.1296 166.602 58.3808 166.271C59.0555 166.181 59.747 165.979 60.4375 165.662C66.5125 162.869 72.5997 160.159 78.5299 157.606C83.3764 155.519 85.6789 151.782 86.2293 145.114C86.381 143.322 86.452 141.243 86.5257 139.042C86.603 136.758 86.6828 134.396 86.8604 132.459C87.1045 129.808 87.4391 129.109 87.4959 129.007C87.7222 128.702 88.0746 128.509 89.4203 127.85C89.6048 127.759 89.802 127.664 90.0105 127.56C89.9262 128.46 89.841 129.357 89.7576 130.24C89.4033 133.994 89.0359 137.875 88.7288 141.636C88.6445 142.672 88.656 143.643 88.7625 144.524C89.1389 147.639 90.5671 149.092 91.6988 149.762C93.1856 150.642 95.0345 150.715 96.9065 149.965C103.083 147.49 109.312 145.084 115.421 142.813C117.925 141.883 119.785 140.458 121.109 138.456C122.441 136.444 123.243 133.878 123.634 130.385C123.837 128.613 123.978 126.565 124.127 124.397C124.29 122.036 124.458 119.593 124.71 117.592C125.054 114.863 125.417 114.136 125.484 114.021C125.726 113.738 126.537 113.359 127.475 112.92C127.807 112.765 128.17 112.594 128.565 112.404C128.486 113.004 128.408 113.599 128.33 114.189C127.709 118.898 127.123 123.346 126.667 128.111C126.655 128.227 126.558 129.051 126.464 129.848C125.855 135.027 125.856 135.041 125.886 135.381C125.886 135.387 125.886 135.392 125.887 135.397C125.971 136.289 126.424 137.057 127.13 137.508C127.808 137.941 128.636 138.034 129.402 137.763C132.37 136.722 135.527 135.639 139.638 134.251C141.041 133.778 141.825 132.333 141.98 131.104C142.262 128.806 142.545 126.508 142.827 124.209C143.303 120.333 143.778 116.457 144.256 112.582C144.305 112.512 144.354 112.442 144.403 112.372C147.397 117.005 150.688 122.161 153.818 127.293C154.508 128.427 155.935 128.966 157.211 128.576C157.214 128.575 157.217 128.574 157.221 128.573L157.904 128.361C161.238 127.326 164.685 126.255 168.034 125.301C168.475 125.175 168.873 124.938 169.192 124.62C169.258 124.622 169.324 124.623 169.391 124.623C170.017 124.623 170.664 124.529 171.317 124.339C177.846 122.445 184.288 120.66 190.463 119.036C193.091 118.344 195.049 117.042 196.447 115.055C197.822 113.099 198.644 110.527 199.031 106.968C199.228 105.201 199.373 103.157 199.526 100.991C199.69 98.6666 199.859 96.2621 200.096 94.2924C200.394 91.8301 200.685 91.0171 200.79 90.7898C201.099 90.5386 202.117 90.2298 203.292 89.8987C203.227 90.4934 203.161 91.0898 203.096 91.6881C202.632 95.9052 202.153 100.266 201.747 104.582C201.647 105.637 201.645 106.645 201.742 107.579C202.086 110.877 203.521 112.537 204.665 113.35C206.071 114.348 207.847 114.663 209.669 114.233C215.941 112.747 222.31 111.326 228.6 110.01C231.262 109.452 233.206 108.218 234.542 106.237C235.829 104.328 236.516 101.785 236.703 98.2415C236.812 96.2709 236.836 93.877 236.86 91.5621C236.89 88.6489 236.935 84.3963 237.238 82.8145C237.49 82.7284 237.811 82.6317 238.073 82.5527C240.875 81.7059 246.707 79.9431 247.011 71.966C247.038 71.2213 246.722 70.5032 246.15 70.0212Z" fill="white"/>
<path d="M54.5925 162.782C52.6308 160.083 49.2773 156.843 46.239 153.908C41.997 149.811 38.6472 146.574 38.4359 144.582C38.143 141.82 42.2376 135.521 48.5193 126.225C50.8342 122.799 53.0205 119.564 54.7025 116.788C54.7452 116.718 54.7877 116.648 54.8303 116.578C50.5742 118.622 47.0148 120.371 43.7315 122.028C43.6596 122.07 43.5078 122.278 43.4075 122.418C41.8747 125.034 39.81 128.652 37.8138 132.151C36.2186 134.948 34.7114 137.59 33.5655 139.562C32.9495 140.622 32.4915 141.398 32.1648 141.932C31.982 142.231 31.8435 142.45 31.7397 142.604C31.5861 142.832 31.3287 143.212 30.8591 143.08L30.3745 142.942L30.3949 142.439C30.5955 137.544 30.8681 130.276 30.8671 128.622C26.0846 131.128 21.1849 133.756 16.3003 136.437C12.7942 138.36 11.1175 141.241 10.8148 145.953C13.8895 144.244 16.6989 142.701 19.3733 141.252C19.5064 141.179 19.6502 141.143 19.7922 141.143C19.9094 141.143 20.0248 141.168 20.1322 141.218C20.3914 141.337 20.5716 141.58 20.6399 141.902L20.6426 141.913C20.6515 141.951 20.6594 141.989 20.6639 142.025L20.6648 142.034C20.7597 142.859 20.6967 143.79 20.6364 144.691C20.6062 145.144 20.5778 145.57 20.5689 145.972C20.5174 148.525 20.4659 151.072 20.4162 153.605C20.3603 156.188 20.2795 158.836 20.2014 161.397C20.0461 166.487 19.8854 171.752 19.9138 176.737C19.9147 176.836 19.9032 177.359 19.8819 178.353C19.8579 179.443 19.8197 181.231 19.8064 182.18C23.1794 180.429 26.2195 178.87 29.0803 177.424C29.154 177.372 29.3155 177.099 29.3253 176.836C29.5153 170.793 29.707 164.559 29.8694 159.259L29.8748 159.098L30.1002 158.706C30.7872 157.515 31.4752 156.321 32.164 155.125L32.5971 154.372L33.1865 155.01C37.3184 159.484 41.7148 164.289 45.8893 169.124C48.7519 167.746 52.2802 166.049 55.6781 164.491C55.4837 164.117 55.2467 163.727 54.9733 163.322C54.8356 163.157 54.7078 162.978 54.5925 162.782Z" fill="#F47121"/>
<path d="M110.736 134.063C110.697 134.275 110.609 134.769 110.108 134.961C107.546 135.945 105.173 136.869 102.855 137.787C102.758 137.825 102.656 137.845 102.554 137.845C102.403 137.845 102.251 137.802 102.113 137.719C101.843 137.556 101.66 137.257 101.623 136.92C101.603 136.742 102.005 132.505 102.347 128.982C102.63 126.063 103.123 121.061 103.25 120.356C103.289 120.144 103.379 119.655 103.869 119.459C106.296 118.494 108.777 117.521 111.242 116.569C111.498 116.469 111.781 116.492 112.016 116.633C112.265 116.783 112.427 117.048 112.463 117.361L112.464 117.373C112.496 117.72 110.897 133.162 110.736 134.063ZM73.5637 149.413C73.5353 149.604 73.4616 150.106 72.977 150.317C70.6097 151.368 68.2202 152.443 65.8786 153.51C65.7695 153.56 65.6541 153.585 65.5378 153.585C65.3983 153.585 65.2582 153.549 65.1277 153.479C64.8534 153.331 64.6608 153.046 64.6102 152.717C64.5827 152.54 64.8312 148.405 65.0443 144.968C65.2208 142.119 65.5325 137.237 65.6328 136.538C65.6585 136.353 65.7277 135.855 66.2071 135.633C68.5513 134.552 70.9878 133.442 73.4492 132.336C73.7102 132.22 73.9986 132.231 74.241 132.365C74.493 132.505 74.6635 132.761 74.7078 133.068C74.7549 133.403 73.696 148.523 73.5637 149.413ZM165.781 120.401C164.055 117.179 161.053 113.233 158.335 109.657C154.462 104.566 151.118 100.169 151.169 97.8243C151.236 94.7265 156.932 88.0063 162.963 80.8919C165.387 78.0338 167.676 75.3336 169.492 72.9823C169.549 72.9086 169.606 72.8359 169.662 72.7622C165.503 73.9525 161.808 75.046 158.406 76.0926C158.337 76.1263 158.192 76.279 158.093 76.3846C156.139 78.9765 153.378 82.7719 150.941 86.1218C149.299 88.3773 147.75 90.5076 146.602 92.0583C145.987 92.8891 145.53 93.4953 145.207 93.9107C145.025 94.1433 144.887 94.3146 144.784 94.4336C144.639 94.6004 144.339 94.9484 143.895 94.7717L143.428 94.5871L143.497 94.09C144.188 89.1291 145.191 81.7281 145.333 80.2156C140.321 81.8488 135.31 83.5424 130.435 85.2502C126.814 86.5186 124.964 89.0368 124.204 93.8335C127.311 92.7053 130.349 91.6331 132.954 90.7171C133.202 90.6301 133.467 90.6585 133.682 90.7943C133.92 90.9452 134.07 91.207 134.106 91.5337L134.107 91.5426C134.11 91.571 134.117 91.6145 134.118 91.6659C134.141 92.5101 133.976 93.4598 133.818 94.3785C133.739 94.8356 133.665 95.267 133.615 95.6727C133.378 97.6459 133.141 99.6404 132.905 101.634L132.86 102.017L96.0233 116.084C83.7616 121.21 72.527 126.171 61.6766 131.25C57.8687 133.034 56.1991 136.007 55.9142 141.516C55.8077 143.47 55.6923 145.454 55.5813 147.373C55.3745 150.949 55.1597 154.646 54.9981 158.191C54.9617 158.985 54.9981 159.713 55.1055 160.356C55.3345 161.713 55.8503 162.639 56.5959 163.033C57.2669 163.388 58.1785 163.335 59.1629 162.882C65.26 160.079 71.3695 157.358 77.3228 154.796C81.0828 153.177 82.7249 150.391 83.1811 144.859C83.3267 143.143 83.3959 141.102 83.4687 138.941C83.6436 133.774 83.8078 128.893 85.0052 127.233C85.7028 126.265 86.5461 125.852 88.0773 125.102C89.1149 124.593 90.536 123.896 92.5198 122.729L93.7217 122.022L93.4722 123.394C93.4021 123.781 93.3994 123.87 93.3932 124.065C93.3888 124.207 93.3826 124.401 93.3515 124.753C93.1758 126.677 92.9911 128.636 92.8118 130.53C92.4577 134.274 92.092 138.145 91.7866 141.885C91.7192 142.716 91.7263 143.481 91.8079 144.158C91.9872 145.643 92.4914 146.67 93.2645 147.128C94.0971 147.621 95.0877 147.398 95.773 147.124C101.973 144.639 108.226 142.224 114.359 139.945C118.21 138.513 119.959 135.736 120.596 130.04C120.792 128.335 120.93 126.321 121.077 124.189C121.447 118.827 121.795 113.763 123.069 112.145C123.743 111.289 124.766 110.809 126.182 110.147C127.487 109.536 129.111 108.777 131.242 107.408L132.389 106.67L132.221 108.024C131.941 110.271 131.652 112.467 131.371 114.591C130.754 119.272 130.171 123.693 129.719 128.408C129.709 128.517 129.637 129.131 129.51 130.207C129.358 131.499 129.103 133.663 128.994 134.663C131.797 133.683 134.807 132.652 138.644 131.356C138.73 131.293 138.905 131.029 138.943 130.729C139.226 128.433 139.508 126.135 139.789 123.837C140.29 119.761 140.79 115.684 141.292 111.608L141.312 111.45L141.403 111.32C142.256 110.103 143.111 108.887 143.966 107.674L144.51 106.903L145.024 107.694C148.493 113.036 152.555 119.342 156.39 125.625L156.998 125.436C160.2 124.442 163.507 123.414 166.747 122.483C166.562 121.988 166.326 121.463 166.049 120.914C165.949 120.749 165.86 120.577 165.781 120.401Z" fill="#F47121"/>
<path d="M70.6239 148.012C69.7007 148.424 68.7767 148.838 67.8545 149.253C68.0684 145.638 68.4083 140.155 68.5814 137.911C69.5188 137.481 70.4694 137.047 71.4289 136.61C71.1857 140.277 70.8103 145.755 70.6239 148.012ZM74.241 132.365C73.9986 132.231 73.7102 132.22 73.4492 132.336C70.9878 133.442 68.5513 134.552 66.2071 135.633C65.7277 135.855 65.6585 136.353 65.6328 136.538C65.5325 137.237 65.2208 142.119 65.0443 144.968C64.8312 148.405 64.5827 152.54 64.6102 152.717C64.6599 153.045 64.8534 153.331 65.1277 153.479C65.2582 153.549 65.3983 153.585 65.5378 153.585C65.6541 153.585 65.7695 153.56 65.8786 153.51C68.2202 152.443 70.6097 151.368 72.977 150.317C73.4616 150.105 73.5362 149.603 73.5637 149.413C73.696 148.523 74.7549 133.403 74.7078 133.068C74.6635 132.761 74.493 132.505 74.241 132.365Z" fill="white"/>
<path d="M107.846 132.551C106.866 132.928 105.913 133.298 104.978 133.663C105.326 129.96 105.884 124.187 106.146 121.85C107.117 121.464 108.096 121.08 109.077 120.696C108.703 124.448 108.117 130.206 107.846 132.551ZM112.463 117.361C112.427 117.048 112.265 116.783 112.016 116.633C111.781 116.492 111.498 116.469 111.242 116.569C108.777 117.521 106.296 118.494 103.869 119.459C103.379 119.655 103.289 120.144 103.25 120.356C103.123 121.061 102.63 126.063 102.347 128.982C102.005 132.505 101.603 136.742 101.623 136.92C101.66 137.257 101.843 137.556 102.113 137.719C102.251 137.802 102.403 137.845 102.554 137.845C102.656 137.845 102.758 137.825 102.855 137.787C105.173 136.869 107.546 135.945 110.108 134.961C110.609 134.769 110.697 134.275 110.736 134.063L110.735 134.062C110.896 133.161 112.496 117.719 112.464 117.373L112.463 117.361Z" fill="white"/>
<path d="M215.455 93.8024C215.709 90.899 216.153 85.9265 216.269 85.2413C216.354 84.7398 216.592 84.4424 216.975 84.3563C219.131 83.8761 221.304 83.411 223.406 82.961L224.051 82.8234C224.288 82.7719 224.543 82.8252 224.749 82.9716C224.979 83.1341 225.131 83.4004 225.168 83.6995C225.211 84.0572 224.068 99.28 223.934 100.154V100.157C223.903 100.349 223.811 100.934 223.225 101.062C220.747 101.601 218.302 102.144 215.955 102.68C215.896 102.693 215.837 102.699 215.777 102.699C215.606 102.699 215.435 102.644 215.284 102.537C215.027 102.356 214.85 102.048 214.811 101.711C214.787 101.515 215.204 96.6721 215.455 93.8024ZM187.05 100.69C186.628 104.328 186.098 108.802 185.97 109.466C185.93 109.671 185.824 110.216 185.273 110.361C182.822 111.029 180.325 111.724 177.854 112.424C177.782 112.444 177.709 112.454 177.635 112.454C177.465 112.454 177.295 112.401 177.147 112.299C176.888 112.119 176.715 111.808 176.684 111.465C176.668 111.266 177.256 106.345 177.608 103.43C177.965 100.477 178.586 95.4206 178.729 94.7202C178.77 94.5205 178.879 93.9915 179.423 93.8442C181.877 93.1518 184.358 92.4657 186.792 91.8079C187.041 91.7396 187.31 91.7858 187.527 91.9358C187.762 92.0982 187.915 92.368 187.944 92.676L187.945 92.6885C187.958 92.8403 187.323 98.3347 187.05 100.69ZM175.127 88.5015C173.208 89.0465 171.852 89.9422 170.86 91.3206C169.791 92.8056 169.091 94.9492 168.721 97.8749C168.51 99.5072 168.295 101.149 168.079 102.798C167.539 106.911 166.982 111.165 166.496 115.332C166.396 116.191 166.375 116.993 166.435 117.717C166.574 119.373 167.093 120.555 167.938 121.136C168.781 121.716 169.776 121.598 170.462 121.399C177.016 119.497 183.483 117.706 189.683 116.075C191.61 115.568 192.963 114.684 193.941 113.294C194.992 111.799 195.661 109.62 195.987 106.631C196.177 104.925 196.32 102.911 196.47 100.778C196.92 94.398 197.299 90.1197 198.432 88.8255C199.3 87.8332 200.663 87.4541 203.136 86.7653C203.932 86.5434 204.835 86.2922 205.89 85.9763L206.792 85.7055L206.71 86.6429C206.686 86.9162 206.673 87.0813 206.67 87.1328C206.669 87.1568 206.669 87.1568 206.657 87.2748L206.62 87.6281C206.462 89.0838 206.302 90.5502 206.139 92.0254C205.677 96.231 205.199 100.58 204.796 104.874C204.715 105.729 204.711 106.534 204.788 107.265C204.966 108.974 205.537 110.216 206.439 110.855C207.308 111.472 208.291 111.413 208.964 111.255C215.262 109.763 221.658 108.336 227.972 107.015C229.842 106.623 231.122 105.832 232.002 104.527C232.953 103.116 233.491 101.006 233.645 98.0755C233.75 96.1724 233.775 93.8131 233.799 91.5319C233.859 85.6665 233.95 82.0219 234.7 80.876C235.11 80.2511 235.981 79.9883 237.188 79.6235C238.516 79.2223 240.167 78.7226 241.501 77.6015C242.881 76.4414 243.668 74.825 243.894 72.6752L209.097 80.0389C195.112 83.158 185.588 85.5307 175.127 88.5015Z" fill="#F47121"/>
<path d="M183.118 107.775C182.107 108.053 181.091 108.335 180.075 108.618C180.505 104.958 181.232 98.9365 181.572 96.4218C182.566 96.1431 183.562 95.867 184.555 95.5937C184.135 99.28 183.442 105.254 183.118 107.775ZM187.945 92.6752C187.916 92.3671 187.764 92.0982 187.528 91.9349C187.311 91.785 187.042 91.7387 186.793 91.8071C184.359 92.4658 181.878 93.1509 179.424 93.8433C178.88 93.9915 178.771 94.5205 178.73 94.7194C178.586 95.4188 177.966 100.477 177.609 103.429C177.257 106.345 176.668 111.265 176.685 111.464C176.715 111.807 176.888 112.119 177.148 112.298C177.296 112.4 177.466 112.453 177.636 112.453C177.71 112.453 177.783 112.443 177.855 112.423C180.325 111.723 182.823 111.028 185.274 110.36C185.825 110.215 185.93 109.671 185.97 109.466L185.971 109.466C186.099 108.802 186.628 104.327 187.051 100.69C187.324 98.3347 187.959 92.8394 187.947 92.6858L187.945 92.6752Z" fill="white"/>
<path d="M219.15 87.013C220.077 86.8097 221.004 86.6091 221.925 86.4112C221.678 89.9049 221.249 95.773 221.027 98.4074C220.034 98.6258 219.048 98.8442 218.074 99.0616C218.367 95.5617 218.89 89.6413 219.15 87.013ZM215.282 102.538C215.434 102.645 215.604 102.7 215.775 102.7C215.835 102.7 215.893 102.694 215.953 102.68C218.3 102.145 220.745 101.601 223.223 101.063C223.808 100.934 223.901 100.35 223.932 100.158V100.155C224.067 99.2809 225.209 84.0581 225.166 83.7004C225.13 83.4004 224.977 83.135 224.748 82.9725C224.542 82.8261 224.286 82.7719 224.049 82.8243L223.404 82.9619C221.303 83.4119 219.13 83.877 216.973 84.3572C216.589 84.4433 216.352 84.7416 216.267 85.2422C216.151 85.9274 215.707 90.8999 215.453 93.8033C215.202 96.673 214.785 101.516 214.808 101.712C214.85 102.048 215.026 102.356 215.282 102.538Z" fill="white"/>
</svg>
