<svg width="247" height="256" viewBox="0 0 247 256" fill="none" xmlns="http://www.w3.org/2000/svg">
<path d="M133.89 119.002C133.972 126.737 129.501 128.763 128.745 129.64C128.745 131.816 132.978 176.815 132.978 176.815C132.978 176.815 129.482 181.837 122.28 181.796C115.346 181.761 112.219 176.975 111.746 176.275C111.432 175.664 115.812 129.844 115.812 129.844C115.812 129.844 107.033 126.38 109.729 116.406C113.204 103.521 133.739 105.457 133.89 119.002Z" fill="#004187"/>
<path d="M61.7209 127.479C61.7209 127.479 68.0474 126.986 69.1274 119.097C71.6635 119.17 73.7363 119.17 73.7363 119.17V141.925L76.6952 144.67V144.992L61.9812 144.997V144.66L65.2589 141.911L65.2719 131.138H61.7209V127.479Z" fill="#004187"/>
<path d="M164.542 137.606C162.645 133.159 162.551 127.164 164.687 122.385C167.295 116.509 172.519 115.998 175.451 115.998C178.4 115.998 182.837 116.773 184.671 120.005C184.449 121.444 182.518 122.027 181.791 122.056C180.563 121.025 178 120.433 176.26 120.577C173.948 120.76 172.021 122.123 171.58 125.215C172.725 124.504 173.991 123.796 177.919 123.796C180.811 123.796 186.264 126.605 185.96 133.38C185.685 139.778 180.729 144.343 174.339 144.343C169.026 144.343 166.374 141.927 164.542 137.606ZM171.4 133.763C171.4 136.668 172.944 139.013 174.849 139.013C176.744 139.013 178.302 136.668 178.302 133.763C178.302 130.866 176.744 128.518 174.849 128.518C172.944 128.518 171.4 130.866 171.4 133.763Z" fill="#004187"/>
<path d="M101.225 124.451C103.15 129.251 102.093 136.467 100.622 139.293C99.0003 142.411 96.0088 146.383 89.9452 146.383C86.994 146.383 80.4412 144.332 79.8283 140.845C80.043 139.409 81.5186 138.871 82.229 138.835C83.4574 139.87 86.7325 141.78 89.7057 141.422C92.0089 141.141 93.8995 138.066 93.8696 135.135C92.3316 136.172 91.1644 137.767 87.2348 137.767C84.3409 137.767 78.1536 135.459 78.5219 128.33C78.8628 121.937 84.0091 117.793 90.3863 117.793C95.7069 117.793 99.6144 120.425 101.225 124.451ZM87.1137 127.464C87.1137 130.226 88.6166 132.459 90.4787 132.459C92.3316 132.459 93.8397 130.226 93.8397 127.464C93.8397 124.704 92.3316 122.467 90.4787 122.467C88.6166 122.467 87.1137 124.704 87.1137 127.464Z" fill="#004187"/>
<path d="M159.441 121.091C161.138 125.316 157.35 128.185 157.35 128.185C157.35 128.185 162.036 129.884 162.107 134.744C162.194 140.01 156.468 145.087 150.896 144.997C146.239 144.941 142.493 141.912 141.896 140.01C141.248 137.899 142.277 134.759 143.075 134.179C143.873 133.601 147.145 133.858 147.115 134.846C147.094 136.022 146.579 139.574 150.113 139.653C152.586 139.701 153.989 136.995 153.989 135C153.989 131.417 151.594 130.086 149.124 130.018C149.124 128.932 149.145 128.728 149.145 128.728C149.145 128.728 153.009 127.79 152.815 124.461C152.633 121.312 148.792 120.104 147.754 122.119C147.561 122.502 148.14 123.671 148.14 124.371C148.14 125.032 146.093 126.82 144.697 126.626C143.491 126.465 141.62 124.653 141.819 122.545C142.014 120.436 144.047 118.526 145.748 117.468C147.81 116.188 156.555 113.878 159.441 121.091Z" fill="#004187"/>
<path d="M64.7712 151.753L93.8727 151.745C93.8727 151.745 102.016 154.19 102.016 162.021C102.016 169.131 92.6691 171.362 92.6691 171.362C92.6691 171.362 95.5916 172.133 101.024 176.363C103.781 178.506 108.544 185.534 113.404 188.263C118.797 191.3 125.146 190.823 125.146 190.823C125.146 190.823 125.151 194.076 121.86 195.874C118.914 197.489 114.977 197.921 113.162 198C111.137 198.088 106.064 196.55 99.9949 191.266C96.3177 187.965 91.8181 181.075 88.1721 177.697C85.2496 174.988 83.8287 173.194 83.8287 173.194H80.0188V182.468L84.4702 192.133C84.4702 192.133 84.3115 192.565 83.627 192.645C76.9505 189.563 75.1809 187.421 70.7724 183.67C68.749 181.941 66.0997 180.811 66.0997 180.811V179.75L68.9273 177.529V156.977L64.7673 152.358L64.7712 151.753ZM79.8639 156.222V167.528C79.8639 167.528 79.8639 168.527 83.1534 168.396C86.4389 168.272 88.5794 166.039 88.4454 161.945C88.2671 156.167 83.9992 155.61 82.2464 155.666C80.9999 155.717 79.8639 156.222 79.8639 156.222Z" fill="#004187"/>
<path d="M136.92 151.048H158.563V151.853C158.563 151.853 154.247 153.871 154.042 156.288V187.793C154.042 187.793 160.861 187.653 164.883 184.4C168.361 181.604 171.166 178.861 172.169 176.59C170.066 176.446 168.92 175.924 168.847 173.671C168.778 171.528 172.396 169.785 175.476 169.785C178.707 169.785 180.957 171.458 180.446 173.733C179.366 178.589 171.385 187.586 164.243 191.872C157.23 196.072 139.071 199.654 136.637 198.715V197.839C136.637 197.839 142.404 192.985 142.225 189.706C142.106 187.726 141.592 159.211 141.592 156.565C141.456 154.433 136.92 151.853 136.92 151.853V151.048Z" fill="#004187"/>
<path d="M53.2294 63.7185C53.2294 31.2291 85.3315 0 121.53 0C157.732 0 187.121 29.1147 188.473 61.5873C188.749 68.1427 188.771 77.6772 182.221 95.0889C200.572 116.581 201.68 143.305 194.187 165.441C181.902 202.395 140.361 215.423 123.014 215.423C104.234 215.423 50.3628 201.809 46.2237 144.055C44.8132 124.373 54.0062 106.769 61.1238 96.4917C54.2938 82.2556 53.2294 71.7808 53.2294 63.7185ZM73.549 82.1528C76.1983 81.9241 169.357 82.1528 169.357 82.1528C169.357 82.1528 174.571 65.7893 170.088 51.3977C162.06 25.5909 134.664 16.0295 120.335 16.5048C106.004 16.984 78.9282 24.472 71.389 57.2954C68.3182 70.6567 73.9121 81.6621 73.5946 82.1387L73.549 82.1528ZM60.239 105.839C60.239 105.839 54.0335 114.02 51.569 125.204C49.1709 136.106 50.2457 150.394 51.8124 158.503C55.215 176.109 79.1234 212.754 124.251 211.084C146.595 210.26 175.764 199.021 188.805 166.926C194.157 153.713 195.151 136.278 192.28 125.022C188.925 111.908 182.608 103.262 182.608 103.262C182.608 103.262 177.829 110.183 169.568 110.183C162.635 110.183 144.668 96.3402 139.51 96.3402C133.804 96.3402 127.316 100.871 121.691 101.102C116.058 101.342 112.458 97.2638 106.411 97.2638C100.37 97.2638 80.1201 112.479 71.8327 112.218C63.8407 111.964 60.239 105.839 60.239 105.839Z" fill="#004187"/>
<path d="M41.6501 72.2115C41.6501 72.2115 46.1561 94.8645 40.7483 108.979C37.8909 116.406 33.5162 121.025 30.163 127.854C27.5762 133.063 27.2014 138.278 26.0291 140.395C22.4195 146.94 22.0591 151.836 21.9029 156.661C21.7715 160.629 26.2932 173.301 28.8683 179.019C29.3953 179.019 29.9028 178.89 29.9028 178.89C29.9028 178.89 19.7013 159.53 25.5177 145.12C28.1396 138.611 38.4231 131.569 42.2981 129.091C41.5199 131.326 38.2929 138.53 39.4562 153.063C40.4608 165.562 33.6333 171.32 33.5162 177.527C33.4733 180.159 32.7563 183.702 35.3275 188.826C37.4107 192.986 41.4015 196.622 44.5426 200.789C47.4626 204.675 49.6564 208.719 51.4377 210.776C56.7193 216.861 64.9768 224.138 64.9768 224.138L65.5402 223.682C65.5402 223.682 47.3363 207.235 44.8224 198.175C42.302 189.109 41.6501 176.41 46.419 170.818C50.0559 175.297 56.532 186.897 60.6256 193.915C63.5936 199.009 64.2703 217.83 69.924 224.465C75.2134 230.682 85.6647 236.759 85.6647 236.759H73.5348C73.5348 236.759 60.6516 229.111 55.7187 227.696C50.5529 226.202 39.9754 226.828 28.0954 214.784C21.2914 207.878 19.9641 204.72 18.0318 199.254C20.5158 199.795 32.1929 203.394 36.1394 204.827C45.0397 208.09 53.7851 218.76 53.7851 218.76L54.2991 218.377C54.2991 218.377 49.9296 212.693 48.2693 211.288C44.9863 208.517 40.3749 206.169 39.7737 205.366C35.252 199.412 30.4167 196.208 27.7076 194.532C21.2601 190.564 6.92473 182.858 3.31388 174.665C-0.718567 165.534 0.60476 154.051 0.60476 154.051C0.60476 154.051 13.7665 165.562 17.1743 168.195C20.3961 170.673 31.8403 187.454 31.8403 187.454L32.4752 187.221L22.9361 173.544C22.9361 173.544 22.9751 170.201 21.0038 166.102C18.5432 161.012 3.18636 138.155 1.76284 134.302C-0.172059 129.091 -2.23838 110.836 5.76015 101.151C10.0333 109.349 12.8764 116.039 15.9577 124.133C19.0364 132.208 20.3402 150.975 20.3402 150.975H21.0038L20.3402 138.263C20.3402 138.263 22.5028 133.773 22.4169 125.864C22.344 118.318 22.5965 94.799 27.2014 87.6167C31.9665 80.1607 41.6501 72.2115 41.6501 72.2115Z" fill="#004187"/>
<path d="M204.375 71.8088C204.375 71.8088 199.852 94.4592 205.273 108.569C208.129 116.014 212.494 120.621 215.866 127.442C218.441 132.67 218.827 137.883 219.985 139.99C223.59 146.535 223.95 151.449 224.119 156.255C224.242 160.227 219.732 172.899 217.153 178.611C216.633 178.611 216.113 178.49 216.113 178.49C216.113 178.49 226.322 159.113 220.504 144.702C217.869 138.213 207.606 131.172 203.725 128.696C204.49 130.917 207.736 138.121 206.566 152.658C205.548 165.157 212.373 170.917 212.494 177.114C212.541 179.761 213.25 183.304 210.692 188.431C208.594 192.586 204.619 196.22 201.489 200.385C198.558 204.283 196.366 208.319 194.578 210.371C189.294 216.462 181.047 223.731 181.047 223.731L180.474 223.282C180.474 223.282 198.683 206.83 201.197 197.767C203.725 188.707 204.375 176.013 199.594 170.42C195.962 174.905 189.485 186.493 185.387 193.511C182.406 198.607 181.751 217.424 176.094 224.07C170.802 230.272 160.338 236.356 160.338 236.356H172.483C172.483 236.356 185.359 228.716 190.301 227.292C195.472 225.803 206.04 226.422 217.91 214.379C224.731 207.475 226.051 204.321 227.992 198.854C225.501 199.399 213.829 202.983 209.883 204.427C200.982 207.69 192.229 218.343 192.229 218.343L191.722 217.977C191.722 217.977 196.098 212.289 197.745 210.888C201.025 208.112 205.639 205.777 206.239 204.975C210.76 199.011 215.605 195.802 218.305 194.129C224.765 190.17 239.09 182.463 242.698 174.273C246.733 165.131 245.419 153.648 245.419 153.648C245.419 153.648 232.249 165.157 228.845 167.791C225.619 170.263 214.166 187.055 214.166 187.055L213.543 186.82L223.09 173.149C223.09 173.149 223.044 169.798 225.017 165.697C227.47 160.595 242.841 137.748 244.24 133.907C246.201 128.696 248.255 110.428 240.246 100.746C235.986 108.95 233.134 115.636 230.049 123.722C226.981 131.81 225.681 150.575 225.681 150.575H225.017L225.681 137.87C225.681 137.87 223.522 133.377 223.607 125.465C223.67 117.916 223.432 94.3963 218.827 87.2114C214.06 79.7619 204.375 71.8088 204.375 71.8088Z" fill="#004187"/>
<path d="M74.6072 205.603C74.6072 205.603 79.6103 211.71 83.618 213.369C87.6219 215.028 97.187 217.985 101.769 220.567C106.351 223.144 111.293 229.891 114.342 234.478C117.387 239.075 118.847 241.76 124.207 241.564C130.244 241.337 133.966 232.808 138.552 226.941C143.133 221.085 150.4 217.601 154.665 216.228C158.316 215.074 168.683 210.284 172.835 202.995C173.31 210.284 171.5 217.772 168.563 224.334C165.15 231.996 159.317 236.115 151.252 240.546C144.234 244.392 129.539 246.122 129.539 246.122V246.917C129.539 246.917 138.909 246.472 144.71 244.768C150.047 243.203 153.71 239.689 159.676 238.475C165.83 237.222 178.217 237.538 181.267 237.91C184.329 238.279 192.864 242.204 193.933 245.446C184.207 245.174 181.301 246.885 174.49 249.213C164.882 252.505 159.187 255.253 152.069 255.931C145.327 256.579 132.724 252.494 128.101 249.782C124.557 247.709 120.339 249.808 117.779 251.146C113.401 253.432 107.594 255.253 97.8702 255.364C88.6954 255.47 74.4055 250.374 69.6301 249.108C64.8572 247.82 59.318 246.472 55.2842 247.481C57.0513 243.491 63.383 239.439 67.0068 238.702C70.632 237.969 87.4202 237.796 87.4202 237.796C87.4202 237.796 97.0621 243.747 101.529 245.224C107.713 247.258 119.088 247.378 119.088 247.378V246.578C119.088 246.578 101.554 245.784 92.3973 239.727C83.2407 233.65 78.1829 225.681 77.2278 220.002C76.2688 214.315 74.6072 205.603 74.6072 205.603Z" fill="#004187"/>
</svg>
