<svg width="256" height="158" viewBox="0 0 256 158" fill="none" xmlns="http://www.w3.org/2000/svg">
<path d="M223.124 92.9879C222.247 89.1697 216.594 87.0625 206.469 84.5104C183.962 78.8372 148.312 78.1848 148.037 78.1782C148.022 78.1782 148.007 78.1775 147.992 78.1775C145.818 78.1775 143.551 81.3973 142.252 83.2537C141.694 84.1822 131.084 84.7152 104.746 79.7231C68.2291 73.8624 32.856 98.5163 32.5035 98.7585L31.5759 99.3942L32.1699 100.345C33.0618 101.772 54.2479 135.461 74.4263 150.138C79.0421 154.166 83.7729 156.627 89.2799 157.474C90.9401 157.728 93.0098 157.558 94.7224 157.197C103.024 155.446 115.148 147.928 124.278 132.075C127.862 125.852 131.717 120.361 135.735 119.548C140.384 118.609 144.322 121.574 146.438 123.167C147.655 124.084 148.224 124.063 149.16 123.87C150.722 123.478 153.051 121.586 153.111 121.648C154.821 123.414 157.409 124.043 163.426 123.402C172.396 122.441 178.431 127.948 180.722 129.939C181.495 130.612 182.598 131.498 183.084 131.631C184.246 131.951 185.541 129.798 188.674 126.898C189.795 125.86 191.292 124.541 193.267 122.847C192.819 122.853 191.284 122.887 193.332 122.285C193.723 122.17 194.215 121.914 194.749 121.581C197.474 119.94 199.046 117.952 201.878 115.588C201.98 115.401 201.926 115.265 201.605 115.205C200.858 115.064 198.906 114.569 200.132 114.652C202.21 114.793 204.533 113.369 204.533 113.369C204.533 113.369 208.084 110.803 210.834 108.141C211.512 107.447 211.871 106.883 211.332 106.795C210.443 106.65 209.67 106.457 209.67 106.457C209.67 106.457 212.544 106.744 215.189 104.497C215.382 104.332 223.691 95.4539 223.124 92.9879Z" fill="white"/>
<path d="M143.471 84.4844C143.471 84.4844 141.098 89.0049 148.389 96.269C154.245 102.102 157.362 109.035 155.508 114.918C153.654 120.8 151.25 122.543 151.25 122.543C151.25 122.543 149.626 123.516 147.688 123.107C145.749 122.698 137.259 107.732 120.535 133.243C109.115 150.662 93.7903 153.331 91.7864 153.731C68.5071 158.377 34.262 101.855 33.2685 100.499C32.2743 99.144 35.2979 98.3382 35.2979 98.3382C35.2979 98.3382 53.2216 86.27 63.2872 84.6485C73.3529 83.0262 83.3755 78.2595 95.7336 80.1573C108.091 82.0537 122.651 84.3843 127.763 84.7185C132.874 85.0527 140.561 86.6543 142.465 85.3302C144.369 84.0054 143.471 84.4844 143.471 84.4844Z" fill="#F68B1E"/>
<mask id="mask0_18_177" style="mask-type:luminance" maskUnits="userSpaceOnUse" x="33" y="79" width="124" height="76">
<path d="M63.2868 84.6481C53.2211 86.2697 35.2975 98.3378 35.2975 98.3378C35.2975 98.3378 32.2745 99.1436 33.2681 100.5C34.2616 101.854 68.5073 158.378 91.786 153.731C93.7898 153.331 109.114 150.663 120.535 133.243C137.26 107.732 145.749 122.698 147.687 123.107C149.627 123.516 151.25 122.543 151.25 122.543C151.25 122.543 153.654 120.799 155.508 114.917C157.362 109.035 154.245 102.103 148.389 96.2686C141.941 89.8444 143.051 85.5653 143.394 84.6628C143.209 84.8042 142.915 85.017 142.464 85.3298C140.561 86.6546 132.874 85.053 127.763 84.7181C122.651 84.3839 108.091 82.054 95.7331 80.1569C93.7367 79.8507 91.8021 79.718 89.9167 79.718C80.1369 79.718 71.726 83.2887 63.2868 84.6481ZM143.471 84.484C143.471 84.484 143.439 84.5447 143.394 84.6628C143.664 84.4567 143.706 84.3999 143.672 84.3999C143.628 84.3999 143.471 84.484 143.471 84.484Z" fill="white"/>
</mask>
<g mask="url(#mask0_18_177)">
<path d="M34.2566 99.8564C34.2566 99.8564 85.5522 80.9965 124.157 89.3999C166.712 98.6631 144.323 76.8421 144.323 76.8421L120.445 79.1074L91.4178 74.9524L56.8041 82.1925L38.339 92.3889L30.4413 99.3395L34.2566 99.8564Z" fill="white"/>
</g>
<path d="M210.05 106.825C212.134 106.257 215.273 102.981 215.273 102.981C215.273 102.981 218.223 96.6951 216.435 99.1598C211.881 105.435 199.067 101.108 196.829 101.276C194.166 101.476 209.15 107.07 210.05 106.825Z" fill="#20C4F4"/>
<path d="M200.947 114.68C202.706 114.198 205.358 111.433 205.358 111.433C205.358 111.433 208.908 106.629 206.968 108.281C200.759 113.565 191.693 110.399 189.808 110.03C187.605 109.598 200.188 114.889 200.947 114.68Z" fill="#20C4F4"/>
<path d="M191.799 122.563C193.074 122.334 195.133 120.548 195.133 120.548C195.133 120.548 199.332 116.182 197.898 117.295C191.468 122.287 184.646 118.572 183.339 118.192C181.811 117.748 191.249 122.662 191.799 122.563Z" fill="#20C4F4"/>
<path d="M34.1456 99.9631C34.1456 99.9631 84.4067 75.0844 137.652 92.088C145.34 94.5428 145.958 107.996 144.624 110.154C144.624 110.154 141.17 100.108 130.823 95.6681C96.4318 80.9097 34.1456 99.9631 34.1456 99.9631Z" fill="#A25C0A"/>
<path d="M148.901 84.9854C149.751 85.3262 183.043 86.6883 185.106 87.6328C185.667 87.8903 185.025 88.2539 183.698 88.6834C181.43 89.4185 173.25 93.0172 170.574 93.7523C167.898 94.4867 164.69 94.5708 161.532 92.2288C157.05 88.9049 153.436 85.7831 154.004 86.196C154.572 86.6096 163.992 92.7677 166.817 92.4596C173.187 91.7652 175.993 88.2932 178.08 88.4226C180.169 88.5514 152.514 87.9944 151.07 86.9445C149.627 85.8939 148.901 84.9854 148.901 84.9854Z" fill="#00244C"/>
<path d="M164.542 88.7609C163.1 89.2472 160.42 88.5448 160.42 88.5448C160.42 88.5448 161.597 90.3238 164.185 90.3684C166.774 90.4138 167.318 86.9892 167.318 86.9892C167.318 86.9892 166.16 88.2139 164.542 88.7609Z" fill="#00244C"/>
<path d="M157.608 102.296C157.608 102.296 162.764 108.966 161.781 114.023C161.308 116.461 160.721 117.01 161.846 117.119C162.971 117.228 170.762 116.538 176.104 118.948C180.198 120.795 175.38 117.224 169.426 116.326C164.634 115.604 164.463 115.13 164.373 113.37C163.966 105.293 157.013 101.924 157.608 102.296Z" fill="#20C4F4"/>
<path d="M141.06 125.412C140.284 124.634 139.349 124.245 138.256 124.245C137.145 124.245 136.198 124.634 135.416 125.412C134.633 126.19 134.241 127.124 134.241 128.215C134.241 129.306 134.633 130.241 135.418 131.021C136.203 131.801 137.145 132.191 138.245 132.191C139.337 132.191 140.274 131.801 141.055 131.021C141.835 130.241 142.226 129.307 142.226 128.221C142.226 127.126 141.837 126.19 141.06 125.412ZM140.545 130.578C139.902 131.229 139.133 131.555 138.239 131.555C137.339 131.555 136.566 131.229 135.922 130.578C135.278 129.926 134.956 129.139 134.956 128.215C134.956 127.3 135.278 126.515 135.919 125.862C136.561 125.208 137.339 124.882 138.251 124.882C139.144 124.882 139.911 125.209 140.551 125.864C141.191 126.519 141.511 127.303 141.511 128.215C141.511 129.139 141.189 129.926 140.545 130.578ZM139.394 128.494C139.964 128.26 140.25 127.858 140.25 127.288C140.25 126.89 140.106 126.564 139.819 126.311C139.532 126.058 139.095 125.932 138.51 125.932H136.37V130.505H137.355V128.656H138.459L139.208 130.505H140.244L139.394 128.494ZM137.355 126.651H138.442C138.968 126.651 139.23 126.86 139.23 127.277C139.23 127.713 138.943 127.931 138.369 127.931H137.355V126.651Z" fill="#00244C"/>
<path d="M223.129 92.984C222.251 89.1658 216.598 87.0586 206.474 84.5065C183.966 78.8333 148.316 78.1809 148.041 78.1743C148.026 78.1736 148.011 78.1736 147.996 78.1736C145.822 78.1736 143.556 81.3934 142.257 83.2498C141.699 84.1783 131.088 84.7113 104.75 79.7191C68.2335 73.8585 32.8604 98.5124 32.5079 98.7546L31.5803 99.3903L32.1743 100.341C33.0662 101.768 54.2523 135.457 74.4314 150.134C79.0465 154.163 83.7773 156.623 89.2843 157.47C90.9445 157.725 93.0142 157.554 94.7268 157.193C103.029 155.443 115.152 147.924 124.282 132.071C127.867 125.848 131.721 120.357 135.739 119.545C140.388 118.605 144.326 121.57 146.442 123.163C147.66 124.08 148.229 124.059 149.164 123.866C150.726 123.475 153.055 121.582 153.115 121.644C154.825 123.41 157.414 124.039 163.43 123.398C172.401 122.437 178.435 127.944 180.726 129.935C181.499 130.608 182.602 131.494 183.089 131.627C184.25 131.947 185.546 129.794 188.678 126.894C189.799 125.857 191.296 124.537 193.271 122.843C192.823 122.849 191.288 122.884 193.337 122.281C193.727 122.166 194.219 121.91 194.754 121.577C197.479 119.937 199.051 117.948 201.882 115.584C201.985 115.397 201.93 115.261 201.61 115.201C200.862 115.06 198.911 114.565 200.136 114.648C202.214 114.789 204.537 113.365 204.537 113.365C204.537 113.365 208.089 110.799 210.838 108.137C211.516 107.443 211.876 106.879 211.337 106.791C210.447 106.646 209.675 106.454 209.675 106.454C209.675 106.454 212.548 106.74 215.193 104.493C215.386 104.328 223.696 95.45 223.129 92.984ZM141.488 84.3651C141.486 84.3678 141.484 84.3704 141.482 84.3738ZM142.748 86.2342C142.577 88.4861 143.606 92.477 150.056 98.6705C158.565 106.842 153.825 116.452 152.783 118.304C152.783 118.304 149.989 122.182 148.661 121.485C148.436 121.329 148.135 121.103 147.876 120.907C145.633 119.218 140.965 115.703 135.265 116.857C130.549 117.811 126.161 121.761 122.224 128.598C116.754 138.094 106.142 150.076 94.2338 152.586C87.8435 153.933 81.6517 152.471 75.8332 148.239C67.6597 142.294 57.8739 131.924 47.5338 118.25C41.2115 109.889 35.7387 102.487 34.1008 99.9399C39.9085 96.2471 72.0804 77.6266 104.371 82.8082C119.55 85.2443 130.582 86.5563 137.161 86.7091C140.499 86.7885 142.013 86.539 142.748 86.2342ZM210.894 103.745C205.804 104.656 197.467 101.096 195.649 101.083C193.443 101.069 202.968 105.716 206.852 107.231C206.678 108.246 204.149 111.63 200.299 112.744C195.97 113.23 189.066 109.363 187.514 109.186C185.542 108.962 194.329 114.406 196.937 115.632C196.548 116.429 195.074 119.322 190.847 121.005C187.886 120.974 183.584 118.084 182.563 117.884C181.159 117.609 187.361 122.055 188.8 122.861C187.815 123.761 186.977 124.536 186.285 125.175C184.97 126.393 183.961 127.328 183.469 127.68C183.29 127.533 183.052 127.327 182.834 127.137C180.31 124.943 174.403 119.807 164.395 120.874C158.577 121.494 156.172 120.79 155.214 120.253C154.947 118.843 161.289 107.377 151.48 98.6118C144.947 92.7732 143.688 88.0152 143.468 85.6585L143.468 85.6572C145.13 83.2465 147.284 80.9879 147.984 80.9091C148.256 80.9152 176.227 80.7117 202.442 87.5569C210.969 89.7061 217.355 91.7953 217.954 94.4021C218.497 96.017 215.162 101.786 210.894 103.745Z" fill="#00244C"/>
<path d="M26.6622 83.7039L21.3367 73.2073L23.9251 71.9179L7.65418 38.7832C5.05974 38.1255 2.5339 36.131 1.5646 34.2199L0 31.1335L3.06867 29.4979C6.27792 27.787 9.57798 26.166 12.8767 24.6805C15.2458 23.6133 18.8371 22.1091 24.883 19.651C25.2045 19.5203 25.5065 19.3955 25.7877 19.2795C26.2909 19.0714 26.7321 18.8899 27.1048 18.7465L27.2427 18.6938C29.0925 17.9834 31.1226 17.916 33.1156 18.499L33.421 18.6031C35.3233 19.3509 36.6787 20.6883 37.3386 22.4713L43.1423 38.1201C43.3367 38.6444 43.5688 39.2374 43.8244 39.8911C44.456 41.5067 45.2423 43.5172 45.995 45.8198C46.287 46.7096 46.324 47.7049 46.1107 48.9482C45.9735 49.738 45.6183 50.5311 44.9221 51.6051L44.7587 51.8359C44.1795 52.591 43.4484 53.2807 42.586 53.885L42.5826 53.881C42.3546 54.0431 42.0977 54.1912 41.8104 54.3219C41.6517 54.394 41.4115 54.4974 41.0907 54.6321C40.5317 54.8656 39.6909 55.2091 38.5736 55.666L36.6767 56.4398C35.585 56.882 33.8058 57.6045 31.401 58.643L35.1134 66.6702L37.2666 65.719L42.1084 76.4678L38.879 77.9519C37.4523 78.6357 36.1446 79.2593 34.9574 79.8137L33.6329 80.43C32.5203 80.9476 31.2504 81.538 29.8257 82.2097L26.6622 83.7039ZM21.0616 34.3813C22.0908 36.6039 23.0634 38.6998 24.0361 40.7963C25.0215 42.9202 26.007 45.0447 27.0516 47.3C27.0927 47.2826 27.1337 47.2666 27.1741 47.2499C27.5144 47.1105 27.8245 46.9845 28.1434 46.8477C29.5532 46.244 30.4566 45.8678 31.3365 45.5136C30.4317 43.2484 29.5721 41.1038 28.7138 38.9613C27.8359 36.772 26.9595 34.5848 26.0359 32.2715C24.3529 32.9565 22.7924 33.6182 21.0616 34.3813Z" fill="#00244C"/>
<path d="M51.4641 72.9029L47.5445 61.882L50.9764 60.7274C51.5018 60.5513 51.9968 60.3858 52.4623 60.2317L47.4591 45.0545C45.2723 38.4208 43.0693 31.7923 40.863 25.1646C37.8818 24.4522 35.4124 21.9274 34.5864 19.6028L33.3925 16.2416L36.786 15.0689C41.5034 13.4206 44.9117 12.4794 49.2268 11.2868C50.0381 11.0626 50.8809 10.8305 51.7695 10.5824C56.1707 9.35568 59.9463 8.49386 62.4029 7.95423L64.0468 7.59202L65.376 8.6166C65.7063 8.87141 66.5451 9.51777 66.913 10.6758C67.2837 11.7644 67.6146 12.929 67.8971 14.137C68.0855 14.9442 68.2536 15.6559 68.3989 16.2683C68.853 18.19 68.9996 18.8184 69.0575 19.2619C69.0662 19.3273 69.0736 19.3907 69.079 19.4507L69.8674 22.6052L66.35 23.4336C64.6321 23.8379 63.7933 24.044 62.0733 24.4802L57.4756 25.6629L56.2696 21.0776C55.3817 21.3178 54.5503 21.5499 53.6657 21.8034L57.2039 33.4386C57.9539 33.2232 58.6535 33.0257 59.3329 32.8383L58.8862 30.9272L62.4089 29.9687L69.8404 28.2657L70.5999 31.7296C70.9416 33.007 71.2544 34.1904 71.5288 35.2643L71.845 36.5043C72.0986 37.5022 72.3871 38.6382 72.7194 39.9129L73.5959 43.2795L62.8603 46.2685L62.1802 43.8738C61.6502 44.0206 61.104 44.1747 60.5201 44.3428L64.3247 56.8532C64.7478 56.7331 65.1635 56.617 65.5879 56.5003L64.3247 51.6989L67.7895 50.8024C69.716 50.3041 70.7189 50.0567 72.6656 49.5977L76.1453 48.7773L77.2235 53.2558C77.2639 53.4266 77.3271 53.6674 77.4079 53.9769C77.7005 55.1002 78.1902 56.9806 78.7357 59.572C78.7787 59.7768 78.8117 59.9482 78.8359 60.085C78.9267 60.3658 78.9947 60.6473 79.0613 60.9248L79.103 61.1009C79.5691 63.0347 78.3953 64.9304 76.4271 65.4207L75.7067 65.5908C74.4213 65.8943 73.8777 66.0223 73.5414 66.0857C71.101 66.7174 68.7279 67.3684 66.0877 68.1322C61.5203 69.4523 59.3127 70.1567 54.8408 71.7216L51.4641 72.9029Z" fill="#00244C"/>
<path d="M75.7706 65.5654L73.1822 54.0789L76.6753 53.3044C77.3292 53.1597 77.8841 53.0383 78.4034 52.9262L71.2537 17.2321C67.9355 16.3416 65.8839 13.494 65.3094 10.7798L64.5742 7.30447L68.0788 6.5754C73.5044 5.44676 80.5398 4.27343 84.2508 3.67443L87.7856 3.10477L89.5958 14.1403L86.3428 15.3537L85.9917 15.4104C85.5941 15.4751 84.9921 15.5758 84.3268 15.6872L90.5832 51.1479C90.779 51.1172 90.9734 51.0872 91.1684 51.0572L90.4716 46.1064L94.0172 45.6148C96.0593 45.3319 97.1275 45.1965 99.2155 44.9551L102.772 44.5448L104.663 60.6573L101.106 61.0668C96.8477 61.5578 94.7746 61.8493 90.5456 62.5517C86.8069 63.1714 83.1214 63.8978 79.2779 64.7696L75.7706 65.5654Z" fill="#00244C"/>
<path d="M101.662 61.002L101.001 55.2001C100.936 54.6271 100.853 53.7913 100.755 52.692L100.446 49.24L103.319 48.9165L99.6501 12.4306C96.7395 11.1199 95.1291 8.16752 94.8708 5.8949L94.4349 2.15146L98.0007 1.75123C103.348 1.15023 106.5 0.910089 111.977 0.566562L115.55 0.342431L116.302 12.1071L112.768 12.3285L115.523 47.8479L118.571 47.6565L119.325 59.4585L115.751 59.6819C111.515 59.9481 109.448 60.1282 105.222 60.6025L101.662 61.002Z" fill="#00244C"/>
<path d="M138.268 59.8726C137.736 59.8572 137.126 59.8192 136.424 59.7585C136.042 59.7258 135.653 59.6865 135.264 59.6465C134.912 59.6104 134.559 59.5737 134.21 59.5437C132.712 59.415 131.154 59.3456 129.646 59.2782L124.583 59.0341H124.546C124.433 59.0308 124.321 59.0248 124.209 59.0161L123.788 58.9968L123.73 58.9654C122.262 58.7613 120.888 58.1296 119.717 57.1124L119.622 57.0276C117.685 55.2206 117.298 53.2842 117.315 51.9781L117.88 8.7137C117.886 8.29747 117.903 7.78584 117.931 7.18684C117.913 7.02008 117.904 6.84998 117.907 6.67788C117.925 5.30177 118.45 3.28263 120.853 1.48228L121.205 1.24949C121.606 1.01735 122.027 0.803903 122.456 0.61513L122.554 0.573103C123.67 0.121515 124.839 0.047474 126.039 0.00678439C126.39 -0.00522238 127.095 -0.0032228 128.026 0.0281282C130.811 0.129519 132.252 0.200896 135.035 0.372994C135.379 0.393672 135.869 0.424355 136.502 0.467046C137.346 0.523745 138.199 0.667823 139.058 0.897953L139.093 0.519744L152.403 1.78846L149.795 24.6614L146.237 24.2611C143.933 24.0017 142.813 23.8889 140.531 23.6842L136.927 23.362L137.291 19.7906C137.562 17.1338 137.747 15.2787 137.843 14.2241C137.929 13.2849 137.971 12.5685 137.989 12.0636L137.725 12.0262C136.569 11.8221 135.294 11.6814 133.937 11.606C132.836 11.5446 131.839 11.4986 130.958 11.4619L129.644 47.9472C130.888 48.0106 132.104 48.0873 133.748 48.2013C134.069 48.224 134.398 48.248 134.734 48.2747L135.887 35.6516L148.395 36.917L146.66 52.0335C146.341 54.8171 145.623 56.5854 144.342 57.718C143.242 58.7966 141.945 59.479 140.488 59.7458C139.927 59.8579 139.22 59.9006 138.268 59.8726Z" fill="#00244C"/>
<path d="M175.378 65.4429L171.89 64.6445C169.244 64.0395 167.951 63.7647 165.3 63.245C164.842 63.1556 164.272 63.0402 163.592 62.9028L158.874 61.953L160.849 51.3236L162.352 51.5037C162.354 51.425 162.347 50.9721 162.348 50.89C160.608 50.5839 159.316 50.4011 157.57 50.147C157.545 50.2243 157.345 50.6933 157.321 50.77L159.225 51.0762L157.707 61.8676L154.161 61.3646C150.311 60.8183 148.423 60.5935 144.543 60.22L140.979 59.8765L142.086 48.5767L145.485 48.9049C145.55 48.7061 145.613 48.5034 145.675 48.2979C147.178 43.1704 148.926 37.9934 150.446 33.5443C152.888 26.5396 155.455 19.481 158.096 12.5077C156.115 10.5146 155.325 7.56158 155.62 5.48708L156.099 2.02713C156.099 2.02713 170.014 3.87818 170.708 3.99824C173.66 4.48985 173.765 7.42417 173.788 8.60751C174.287 18.0715 174.501 28.0865 174.481 41.0678C174.477 45.0908 174.445 49.2031 174.382 53.5642C174.409 53.5709 174.436 53.5776 174.464 53.5829L177.953 54.382L175.378 65.4429ZM160.969 39.2468C161.507 39.3302 162.037 39.4156 162.576 39.505C162.848 36.4893 163.067 33.8884 163.316 30.4198C163.067 31.4104 161.505 37.0469 160.969 39.2468ZM169.459 10.9902C169.473 10.9929 169.486 10.9955 169.5 10.9975C169.486 10.9949 169.473 10.9929 169.459 10.9902Z" fill="#00244C"/>
<path d="M201.508 73.1646L198.289 72.0046C197.054 71.575 196.436 71.3649 195.195 70.954L192.991 70.2223C192.991 70.2223 192.803 67.931 192.627 65.1961C192.33 59.5663 191.864 53.3674 191.206 46.2941C191.16 45.8692 191.114 45.443 191.067 45.0174L188.04 56.4965L190.743 57.2329L187.604 68.5653L184.201 67.7122C182.689 67.3327 181.446 67.0318 180.474 66.797C179.962 66.6736 179.524 66.5676 179.159 66.4775C178.289 66.2627 177.295 66.0106 176.179 65.7277L171.239 64.4784L173.852 53.0372L176.464 53.6242L185.072 17.8974C183.128 15.7936 182.213 12.5751 182.765 10.1604L183.556 6.69841L187.047 7.48219C190.214 8.19259 192.515 8.71622 195.545 9.48799L197.761 10.0523L198.175 12.2836C199.107 17.2911 199.54 19.8819 200.283 24.884C200.866 28.5047 201.345 32.1081 201.75 35.6054L205.784 23.3832C204.183 21.1119 203.982 17.8267 204.691 15.5954L205.765 12.2075L209.182 13.2741C214.094 14.809 217.068 15.8763 221.514 17.4918L224.876 18.7139L220.78 29.8021L217.121 28.6021L201.508 73.1646ZM191.205 23.0023L192.822 23.4239C192.583 21.8616 192.367 20.5222 192.134 19.1474L191.205 23.0023Z" fill="#00244C"/>
<path d="M224.906 82.7349C223.758 82.7349 222.385 82.456 220.819 81.6449C220.094 81.2694 215.028 78.8847 215.028 78.8847C214.238 78.5225 213.52 78.1409 212.874 77.7394L212.794 77.9228L209.505 76.5247C207.723 75.7669 206.841 75.4034 205.009 74.673L201.689 73.3489L210.271 52.1636L213.594 53.4884C215.592 54.2848 216.624 54.709 218.612 55.5549L221.929 56.9643L220.481 60.2428C219.085 63.4019 218.264 65.269 218.015 65.8447C217.714 66.5404 217.51 67.0373 217.371 67.3869C218.097 67.8204 219.019 68.292 220.112 68.789C220.889 69.1432 221.563 69.452 222.138 69.7175L225.429 63.1371C223.756 57.6374 221.738 51.9295 219.419 46.1495C218.002 42.803 217.369 41.1367 217.084 40.0061L217.065 39.9274C216.624 38.776 217.601 35.8744 217.601 35.8744C217.811 35.3968 220.663 27.6284 220.663 27.6284C220.722 27.4857 220.784 27.3276 220.852 27.1555C221.117 26.4818 221.481 25.5592 221.973 24.5567C222.525 23.4387 223.5 22.4828 224.795 21.7885L225.116 21.637C226.523 21.0534 228.025 20.8699 229.581 21.0887C230.428 21.1508 231.489 21.5336 233.788 22.5202L234.54 22.8444C235.876 23.422 237.27 24.0511 238.684 24.7148C239.183 24.9169 240.119 25.3004 241.318 25.8441C242.194 26.241 243.032 26.7332 243.825 27.3149L243.985 26.9941L247.197 28.5803C249.436 29.6862 250.595 30.2752 252.832 31.4446L256 33.1002L245.273 53.2722L242.043 51.6146C241.677 51.4239 240.817 50.9823 239.899 50.5107L237.145 49.0925C236.015 48.5029 234.172 46.7492 235.291 44.3285L235.341 44.2238C235.426 44.0557 235.565 43.7909 235.754 43.4313C236.241 42.5082 237.054 40.9626 238.129 38.776C238.411 38.2024 238.63 37.7255 238.798 37.3446L238.629 37.2465C237.468 36.5548 236.218 35.9098 234.912 35.3294C234.268 35.0426 233.366 34.6457 232.217 34.1454L229.945 39.3791C229.935 39.4011 229.922 39.4304 229.907 39.4684C232.298 45.2824 234.471 51.2911 236.366 57.3299C237.35 60.3342 237.811 61.8584 237.841 62.9277C238.037 64.8961 237.651 66.8085 236.693 68.6176L231.395 78.6205C230.064 81.1366 228.34 82.0752 227.01 82.4007C226.431 82.5928 225.726 82.7349 224.906 82.7349Z" fill="#00244C"/>
<path d="M250.605 34.5404C248.749 33.5718 247.659 33.0182 245.788 32.0917C245.751 32.165 245.714 32.2377 245.678 32.3105C245.494 32.6753 245.256 33.1863 244.96 33.844L244.557 34.7432L244.198 33.8253L243.941 33.1723C243.532 32.2958 243.217 31.8789 243.028 31.6874C242.012 30.6082 240.881 29.7837 239.659 29.2294C238.516 28.7111 237.64 28.3536 237.083 28.1274C235.627 27.443 234.254 26.824 232.946 26.2584L232.203 25.9382C229.764 24.8929 229.338 24.8316 229.297 24.8282C228.303 24.6635 227.444 24.7475 226.658 25.0737C226.136 25.3559 225.745 25.7081 225.564 26.0749C225.141 26.9361 224.824 27.7412 224.572 28.3796L224.367 28.8945L221.968 34.7905C221.596 35.705 221.281 36.4201 221.06 36.9217L220.948 37.1752C220.791 37.5341 220.796 38.1091 220.962 38.8388C221.185 39.724 221.809 41.3462 223.114 44.4306C225.676 50.8122 227.877 57.1018 229.659 63.1319L229.704 63.2859L229.632 63.4294L225.789 71.115L224.147 74.3976L223.964 74.7644L223.593 74.5823L222.699 74.1447C222.277 73.9393 220.858 73.2696 218.447 72.1723C217.199 71.6046 216.128 71.0537 215.265 70.5347C214.456 70.1818 213.837 69.5942 213.471 68.8124C213.256 68.3261 213.157 67.8038 213.173 67.2509C213.188 66.9894 213.335 66.4044 214.345 64.0671C214.585 63.5114 215.355 61.7604 216.656 58.8154C215.059 58.1377 214.097 57.7422 212.489 57.0991L211.198 60.2863C209.759 63.8363 208.321 67.3856 206.883 70.9356C208.352 71.5226 209.24 71.8881 210.698 72.5065C210.813 72.241 210.928 71.9755 211.042 71.71L211.473 70.7121L211.636 70.3366L212.016 70.4967L212.203 70.5761L212.289 70.7875C212.367 71.0884 212.443 71.3285 212.521 71.5073C212.969 72.83 214.334 73.986 216.705 75.0733C217.878 75.5789 221.522 77.3239 222.668 77.9182C223.907 78.5599 225.013 78.7213 225.864 78.3845C226.648 78.2411 227.292 77.6361 227.86 76.5628L233.158 66.5598C233.788 65.3698 234.016 64.1171 233.835 62.8364L233.817 62.707L233.878 62.5916C233.835 62.5429 233.563 61.3735 232.555 58.2945C230.68 52.3211 228.531 46.3817 226.164 40.6378C225.756 39.712 225.658 39.0196 225.871 38.5306L225.948 38.3512C225.966 38.3412 225.983 38.3312 226 38.3212C226.096 38.0397 226.188 37.7982 226.277 37.5961L228.926 31.4947L229.971 29.0873L230.134 28.7111L230.514 28.8732L231.204 29.1693C233.677 30.2333 235.467 31.0191 236.546 31.4987C237.991 32.1404 239.385 32.8594 240.688 33.6359C241.244 33.9 241.773 34.3183 242.227 34.8612C243.054 36.0366 243.221 37.0985 242.746 38.0457C242.571 38.4606 242.241 39.2364 241.72 40.295C240.625 42.5216 239.788 44.1125 239.302 45.0363C239.235 45.1644 239.168 45.2925 239.101 45.4212C239.642 45.7027 240.733 46.2623 241.751 46.7853C242.475 47.1568 243.162 47.5097 243.591 47.7312C245.929 43.334 248.266 38.9375 250.605 34.5404Z" fill="#20C4F4"/>
<path d="M250.605 34.5404C248.749 33.5718 247.659 33.0182 245.788 32.0917C245.751 32.165 245.714 32.2377 245.678 32.3105C245.494 32.6753 245.256 33.1863 244.96 33.844L244.557 34.7432L244.198 33.8253L243.941 33.1723C243.532 32.2958 243.217 31.8789 243.028 31.6874C242.012 30.6082 240.881 29.7837 239.659 29.2294C238.516 28.7111 237.64 28.3536 237.083 28.1274C235.627 27.443 234.254 26.824 232.946 26.2584L232.203 25.9382C229.764 24.8929 229.338 24.8316 229.297 24.8282C228.303 24.6635 227.444 24.7475 226.658 25.0737C226.136 25.3559 225.745 25.7081 225.564 26.0749C225.141 26.9361 224.824 27.7412 224.572 28.3796L224.367 28.8945L221.968 34.7905C221.596 35.705 221.281 36.4201 221.06 36.9217L220.948 37.1752C220.791 37.5341 220.796 38.1091 220.962 38.8388C221.185 39.724 221.809 41.3462 223.114 44.4306C225.676 50.8122 227.877 57.1018 229.659 63.1319L229.704 63.2859L229.632 63.4294L225.789 71.115L224.147 74.3976L223.964 74.7644L223.593 74.5823L222.699 74.1447C222.277 73.9393 220.858 73.2696 218.447 72.1723C217.199 71.6046 216.128 71.0537 215.265 70.5347C214.456 70.1818 213.837 69.5942 213.471 68.8124C213.256 68.3261 213.157 67.8038 213.173 67.2509C213.188 66.9894 213.335 66.4044 214.345 64.0671C214.585 63.5114 215.355 61.7604 216.656 58.8154C215.059 58.1377 214.097 57.7422 212.489 57.0991L211.198 60.2863C209.759 63.8363 208.321 67.3856 206.883 70.9356C208.352 71.5226 209.24 71.8881 210.698 72.5065C210.813 72.241 210.928 71.9755 211.042 71.71L211.473 70.7121L211.636 70.3366L212.016 70.4967L212.203 70.5761L212.289 70.7875C212.367 71.0884 212.443 71.3285 212.521 71.5073C212.969 72.83 214.334 73.986 216.705 75.0733C217.878 75.5789 221.522 77.3239 222.668 77.9182C223.907 78.5599 225.013 78.7213 225.864 78.3845C226.648 78.2411 227.292 77.6361 227.86 76.5628L233.158 66.5598C233.788 65.3698 234.016 64.1171 233.835 62.8364L233.817 62.707L233.878 62.5916C233.835 62.5429 233.563 61.3735 232.555 58.2945C230.68 52.3211 228.531 46.3817 226.164 40.6378C225.756 39.712 225.658 39.0196 225.871 38.5306L225.948 38.3512C225.966 38.3412 225.983 38.3312 226 38.3212C226.096 38.0397 226.188 37.7982 226.277 37.5961L228.926 31.4947L229.971 29.0873L230.134 28.7111L230.514 28.8732L231.204 29.1693C233.677 30.2333 235.467 31.0191 236.546 31.4987C237.991 32.1404 239.385 32.8594 240.688 33.6359C241.244 33.9 241.773 34.3183 242.227 34.8612C243.054 36.0366 243.221 37.0985 242.746 38.0457C242.571 38.4606 242.241 39.2364 241.72 40.295C240.625 42.5216 239.788 44.1125 239.302 45.0363C239.235 45.1644 239.168 45.2925 239.101 45.4212C239.642 45.7027 240.733 46.2623 241.751 46.7853C242.475 47.1568 243.162 47.5097 243.591 47.7312C245.929 43.334 248.266 38.9375 250.605 34.5404Z" stroke="white" stroke-width="1.228"/>
<path d="M218.395 24.5189C218.556 24.0819 218.718 23.6457 218.879 23.2088C219.169 22.4237 219.459 21.6386 219.749 20.8534C215.693 19.3806 212.838 18.3607 208.394 16.9653C208.045 18.6422 208.523 21.1269 210.055 21.6586L210.437 21.7906L210.311 22.1722L203.531 42.7165C202.673 45.3186 201.629 48.4337 200.403 52.0637L200.37 52.1638L200.292 52.2352C200.305 52.2445 200.238 52.4353 200.138 52.7388L199.333 52.6381C199.22 50.9024 199.138 49.8625 199.104 49.5223C198.508 42.3409 197.713 33.8468 196.328 25.2499C195.597 20.3252 195.19 17.8784 194.293 13.0424C191.592 12.3573 189.432 11.863 186.598 11.226C186.481 12.899 187.675 15.3677 189.221 15.8193L189.597 15.9293L189.506 16.3076L179.52 57.7563L179.424 58.1545L179.022 58.0591L178.268 57.8824C177.799 57.775 177.331 57.6676 176.861 57.5602C176.648 58.4947 176.435 59.4292 176.221 60.3638L175.99 61.3763C176.357 61.469 176.724 61.5624 177.09 61.6552C178.229 61.944 179.238 62.2001 180.121 62.4183L181.421 62.7344C182.315 62.9506 183.437 63.222 184.785 63.5576C184.827 63.4081 184.868 63.2587 184.909 63.1093C185.216 62.0013 185.524 60.8934 185.83 59.7861C185.234 59.624 184.827 59.5159 184.132 59.3338L183.57 59.1871L183.169 59.0837L183.274 58.6875L189.65 34.5052L190.53 31.1653L191.734 26.5967L191.838 26.2011L192.238 26.3039L192.638 26.4066L192.577 26.8142C193.651 33.0944 194.51 39.4406 195.178 45.7081C195.843 52.8475 196.312 59.097 196.614 64.8196C196.647 65.6441 196.686 66.6253 196.713 67.0662C197.683 67.3884 198.286 67.5925 199.22 67.9167C201.261 62.1494 203.303 56.3822 205.343 50.6156L214.868 23.7051L215.006 23.3188L215.395 23.4543C216.611 23.8778 217.26 24.108 218.395 24.5189Z" fill="#20C4F4"/>
<path d="M218.395 24.5189C218.556 24.0819 218.718 23.6457 218.879 23.2088C219.169 22.4237 219.459 21.6386 219.749 20.8534C215.693 19.3806 212.838 18.3607 208.394 16.9653C208.045 18.6422 208.523 21.1269 210.055 21.6586L210.437 21.7906L210.311 22.1722L203.531 42.7165C202.673 45.3186 201.629 48.4337 200.403 52.0637L200.37 52.1638L200.292 52.2352C200.305 52.2445 200.238 52.4353 200.138 52.7388L199.333 52.6381C199.22 50.9024 199.138 49.8625 199.104 49.5223C198.508 42.3409 197.713 33.8468 196.328 25.2499C195.597 20.3252 195.19 17.8784 194.293 13.0424C191.592 12.3573 189.432 11.863 186.598 11.226C186.481 12.899 187.675 15.3677 189.221 15.8193L189.597 15.9293L189.506 16.3076L179.52 57.7563L179.424 58.1545L179.022 58.0591L178.268 57.8824C177.799 57.775 177.331 57.6676 176.861 57.5602C176.648 58.4947 176.435 59.4292 176.221 60.3638L175.99 61.3763C176.357 61.469 176.724 61.5624 177.09 61.6552C178.229 61.944 179.238 62.2001 180.121 62.4183L181.421 62.7344C182.315 62.9506 183.437 63.222 184.785 63.5576C184.827 63.4081 184.868 63.2587 184.909 63.1093C185.216 62.0013 185.524 60.8934 185.83 59.7861C185.234 59.624 184.827 59.5159 184.132 59.3338L183.57 59.1871L183.169 59.0837L183.274 58.6875L189.65 34.5052L190.53 31.1653L191.734 26.5967L191.838 26.2011L192.238 26.3039L192.638 26.4066L192.577 26.8142C193.651 33.0944 194.51 39.4406 195.178 45.7081C195.843 52.8475 196.312 59.097 196.614 64.8196C196.647 65.6441 196.686 66.6253 196.713 67.0662C197.683 67.3884 198.286 67.5925 199.22 67.9167C201.261 62.1494 203.303 56.3822 205.343 50.6156L214.868 23.7051L215.006 23.3188L215.395 23.4543C216.611 23.8778 217.26 24.108 218.395 24.5189Z" stroke="white" stroke-width="1.228"/>
<path d="M171.235 56.7052L170.669 56.5832L170.339 56.5118L170.344 56.1756C170.435 50.7739 170.482 45.759 170.488 40.8449C170.508 27.9183 170.295 17.9547 169.797 8.53803C169.788 8.06109 169.772 7.79027 169.759 7.63752C165.913 6.97648 162.497 6.43417 159.562 6.01727C159.542 7.03518 160.134 9.89279 162.574 10.4138L163.044 10.5138L162.873 10.9594C159.871 18.8032 156.962 26.757 154.229 34.6007C152.652 39.2173 150.988 44.1495 149.505 49.2057C149.12 50.4917 148.668 51.669 148.16 52.707L148.026 52.9798L147.724 52.9331C147.284 52.8651 146.602 52.7803 145.676 52.687C145.565 53.8249 145.453 54.9629 145.341 56.1009C148.883 56.4451 150.798 56.6732 154.319 57.1695C154.395 56.6405 154.472 56.1109 154.549 55.5813C154.635 54.9789 154.723 54.3759 154.81 53.7736C154.172 53.6842 153.673 53.6168 153.316 53.5695L152.744 53.4941L152.278 53.4334L152.398 52.9831C152.881 51.1694 153.502 49.1343 154.244 46.9344C154.496 45.9051 154.594 45.5082 155.042 45.5689C159.508 46.1759 161.679 46.5255 166.107 47.3479L166.445 47.4106L166.444 47.7522C166.427 51.8485 166.354 54.7128 166.255 55.2264L166.177 55.6293L165.764 55.5873L165.272 55.4939C164.891 55.4232 164.509 55.3525 164.127 55.2811C163.921 56.3964 163.715 57.5117 163.508 58.627C163.792 58.6843 164.075 58.7417 164.359 58.7991L166.075 59.1433C168.629 59.6442 169.969 59.9264 172.386 60.4767C172.645 59.3627 172.905 58.2481 173.164 57.1341C172.373 56.9547 171.73 56.8133 171.235 56.7052ZM165.755 43.0342C162.252 42.3971 160.313 42.085 156.785 41.5914C157.592 39.1113 158.295 37.0395 158.884 35.3745C161.209 28.7448 163.335 22.8261 165.357 17.3517C165.614 25.3642 165.745 33.795 165.755 43.0342Z" fill="#20C4F4"/>
<path d="M171.235 56.7052L170.669 56.5832L170.339 56.5118L170.344 56.1756C170.435 50.7739 170.482 45.759 170.488 40.8449C170.508 27.9183 170.295 17.9547 169.797 8.53803C169.788 8.06109 169.772 7.79027 169.759 7.63752C165.913 6.97648 162.497 6.43417 159.562 6.01727C159.542 7.03518 160.134 9.89279 162.574 10.4138L163.044 10.5138L162.873 10.9594C159.871 18.8032 156.962 26.757 154.229 34.6007C152.652 39.2173 150.988 44.1495 149.505 49.2057C149.12 50.4917 148.668 51.669 148.16 52.707L148.026 52.9798L147.724 52.9331C147.284 52.8651 146.602 52.7803 145.676 52.687C145.565 53.8249 145.453 54.9629 145.341 56.1009C148.883 56.4451 150.798 56.6732 154.319 57.1695C154.395 56.6405 154.472 56.1109 154.549 55.5813C154.635 54.9789 154.723 54.3759 154.81 53.7736C154.172 53.6842 153.673 53.6168 153.316 53.5695L152.744 53.4941L152.278 53.4334L152.398 52.9831C152.881 51.1694 153.502 49.1343 154.244 46.9344C154.496 45.9051 154.594 45.5082 155.042 45.5689C159.508 46.1759 161.679 46.5255 166.107 47.3479L166.445 47.4106L166.444 47.7522C166.427 51.8485 166.354 54.7128 166.255 55.2264L166.177 55.6293L165.764 55.5873L165.272 55.4939C164.891 55.4232 164.509 55.3525 164.127 55.2811C163.921 56.3964 163.715 57.5117 163.508 58.627C163.792 58.6843 164.075 58.7417 164.359 58.7991L166.075 59.1433C168.629 59.6442 169.969 59.9264 172.386 60.4767C172.645 59.3627 172.905 58.2481 173.164 57.1341C172.373 56.9547 171.73 56.8133 171.235 56.7052ZM165.755 43.0342C162.252 42.3971 160.313 42.085 156.785 41.5914C157.592 39.1113 158.295 37.0395 158.884 35.3745C161.209 28.7448 163.335 22.8261 165.357 17.3517C165.614 25.3642 165.745 33.795 165.755 43.0342Z" stroke="white" stroke-width="1.228"/>
<path d="M146.284 20.0633C146.551 17.724 146.819 15.3847 147.087 13.0447C147.389 10.4099 147.691 7.77438 147.992 5.13889C145.955 4.91143 144.759 4.79003 142.719 4.60526C142.659 5.25363 142.6 5.90133 142.541 6.54903L142.452 7.52557L141.814 6.77648L141.309 6.18548C140.751 5.6932 140.224 5.32567 139.78 5.13289C138.563 4.59059 137.373 4.27774 136.24 4.2017L134.794 4.10831C132.033 3.93755 130.65 3.86951 127.886 3.76946C126.935 3.73477 126.356 3.74277 126.183 3.74811C125.359 3.77612 124.578 3.81748 124.071 4.0236C123.782 4.151 123.497 4.29575 123.227 4.4525C122.395 5.07886 121.94 5.76258 121.909 6.46097C121.926 6.47498 121.944 6.48899 121.961 6.503L121.95 6.71311C121.909 7.48088 121.886 8.09256 121.88 8.54882L121.315 51.8132C121.305 52.5663 121.648 53.2574 122.365 53.9264C123.011 54.4861 123.718 54.7923 124.513 54.8503C124.541 54.8243 124.57 54.7983 124.599 54.7722L124.895 54.8703L126.721 54.9577L128.411 55.0404L129.848 55.1064C131.394 55.1758 132.989 55.2465 134.562 55.3819C134.933 55.4139 135.308 55.452 135.682 55.4907C136.049 55.5287 136.416 55.566 136.776 55.5967C138.276 55.7255 139.252 55.7381 139.762 55.6361C140.462 55.508 141.064 55.1751 141.611 54.6162C141.991 54.3073 142.452 53.5262 142.699 51.3697L143.685 42.7555C143.783 41.9003 143.882 41.0452 143.979 40.19C142.254 39.9972 141.229 39.8932 139.511 39.7378C139.293 42.1258 139.076 44.5145 138.858 46.9025L138.399 51.9206L138.383 52.0961L138.243 52.2055L138.112 52.3082L137.903 52.3242C136.074 52.1361 134.597 52.0134 133.476 51.936C130.445 51.7252 128.964 51.6472 125.93 51.5398L125.517 51.5251L125.532 51.1162L127.104 7.51224L127.12 7.05331L127.578 7.12134L127.899 7.16938L128.13 7.17538L128.941 7.20472C130.246 7.25142 131.995 7.31412 134.166 7.43486C135.684 7.51957 137.119 7.67966 138.431 7.91046C139.389 7.98117 140.278 8.32202 141.032 8.91769C141.554 9.464 141.788 9.97896 141.924 10.3232C142.077 10.7127 141.986 12.6338 141.828 14.3648C141.736 15.3713 141.564 17.1036 141.313 19.561C143.233 19.7345 144.367 19.8492 146.284 20.0633Z" fill="#20C4F4"/>
<path d="M146.284 20.0633C146.551 17.724 146.819 15.3847 147.087 13.0447C147.389 10.4099 147.691 7.77438 147.992 5.13889C145.955 4.91143 144.759 4.79003 142.719 4.60526C142.659 5.25363 142.6 5.90133 142.541 6.54903L142.452 7.52557L141.814 6.77648L141.309 6.18548C140.751 5.6932 140.224 5.32567 139.78 5.13289C138.563 4.59059 137.373 4.27774 136.24 4.2017L134.794 4.10831C132.033 3.93755 130.65 3.86951 127.886 3.76946C126.935 3.73477 126.356 3.74277 126.183 3.74811C125.359 3.77612 124.578 3.81748 124.071 4.0236C123.782 4.151 123.497 4.29575 123.227 4.4525C122.395 5.07886 121.94 5.76258 121.909 6.46097C121.926 6.47498 121.944 6.48899 121.961 6.503L121.95 6.71311C121.909 7.48088 121.886 8.09256 121.88 8.54882L121.315 51.8132C121.305 52.5663 121.648 53.2574 122.365 53.9264C123.011 54.4861 123.718 54.7923 124.513 54.8503C124.541 54.8243 124.57 54.7983 124.599 54.7722L124.895 54.8703L126.721 54.9577L128.411 55.0404L129.848 55.1064C131.394 55.1758 132.989 55.2465 134.562 55.3819C134.933 55.4139 135.308 55.452 135.682 55.4907C136.049 55.5287 136.416 55.566 136.776 55.5967C138.276 55.7255 139.252 55.7381 139.762 55.6361C140.462 55.508 141.064 55.1751 141.611 54.6162C141.991 54.3073 142.452 53.5262 142.699 51.3697L143.685 42.7555C143.783 41.9003 143.882 41.0452 143.979 40.19C142.254 39.9972 141.229 39.8932 139.511 39.7378C139.293 42.1258 139.076 44.5145 138.858 46.9025L138.399 51.9206L138.383 52.0961L138.243 52.2055L138.112 52.3082L137.903 52.3242C136.074 52.1361 134.597 52.0134 133.476 51.936C130.445 51.7252 128.964 51.6472 125.93 51.5398L125.517 51.5251L125.532 51.1162L127.104 7.51224L127.12 7.05331L127.578 7.12134L127.899 7.16938L128.13 7.17538L128.941 7.20472C130.246 7.25142 131.995 7.31412 134.166 7.43486C135.684 7.51957 137.119 7.67966 138.431 7.91046C139.389 7.98117 140.278 8.32202 141.032 8.91769C141.554 9.464 141.788 9.97896 141.924 10.3232C142.077 10.7127 141.986 12.6338 141.828 14.3648C141.736 15.3713 141.564 17.1036 141.313 19.561C143.233 19.7345 144.367 19.8492 146.284 20.0633Z" stroke="white" stroke-width="1.228"/>
<path d="M105.247 56.3037C109.144 55.8835 111.243 55.7067 115.154 55.4719C115.151 55.4252 115.149 55.3785 115.146 55.3325C115.07 54.0798 114.995 52.8277 114.919 51.5757C113.98 51.6317 113.39 51.6718 112.338 51.7485L111.926 51.7785L111.896 51.3696L108.746 8.83358L108.725 8.55609L109.064 8.35598C110.452 8.22924 111.158 8.17921 112.297 8.1105C112.258 7.4668 112.22 6.82378 112.181 6.18008C112.142 5.53705 112.104 4.89335 112.065 4.25032C107.052 4.54916 103.997 4.77462 99.1132 5.30025C99.3102 6.28881 100.332 8.84758 103.186 8.8229L103.565 8.81957L103.6 9.19311L104.203 15.402L107.727 51.7205L107.766 52.128L107.355 52.1674C106.332 52.2648 105.759 52.3221 104.846 52.4209C104.922 53.284 104.987 53.9557 105.041 54.436C105.109 55.0583 105.179 55.6814 105.247 56.3037Z" fill="#20C4F4"/>
<path d="M105.247 56.3037C109.144 55.8835 111.243 55.7067 115.154 55.4719C115.151 55.4252 115.149 55.3785 115.146 55.3325C115.07 54.0798 114.995 52.8277 114.919 51.5757C113.98 51.6317 113.39 51.6718 112.338 51.7485L111.926 51.7785L111.896 51.3696L108.746 8.83358L108.725 8.55609L109.064 8.35598C110.452 8.22924 111.158 8.17921 112.297 8.1105C112.258 7.4668 112.22 6.82378 112.181 6.18008C112.142 5.53705 112.104 4.89335 112.065 4.25032C107.052 4.54916 103.997 4.77462 99.1132 5.30025C99.3102 6.28881 100.332 8.84758 103.186 8.8229L103.565 8.81957L103.6 9.19311L104.203 15.402L107.727 51.7205L107.766 52.128L107.355 52.1674C106.332 52.2648 105.759 52.3221 104.846 52.4209C104.922 53.284 104.987 53.9557 105.041 54.436C105.109 55.0583 105.179 55.6814 105.247 56.3037Z" stroke="white" stroke-width="1.228"/>
<path d="M94.9782 49.264C95.0434 49.7276 95.1087 50.1912 95.1739 50.6548L95.6152 53.7872L95.6717 54.1935L95.2627 54.2502C92.2297 54.6697 90.7532 54.8999 87.739 55.4221L87.3321 55.4929L87.2608 55.0893L79.7728 12.6467L79.7015 12.2431L80.1084 12.1724C81.2042 11.983 83.841 11.532 85.1211 11.3219C85.0081 10.6315 84.8944 9.94113 84.7814 9.25074C84.6818 8.64506 84.5823 8.03872 84.4827 7.43305C80.8167 8.02738 74.4103 9.10199 69.319 10.1472C69.8262 11.8249 71.2818 13.3764 73.5809 13.3204C73.5803 13.3144 73.6623 13.307 73.7545 13.301C73.8675 13.293 73.9852 13.285 74.1117 13.2483L74.5449 13.1229L74.633 13.5618L83.0116 55.3955L83.0923 55.7977L82.6867 55.8771C80.7656 56.2553 79.7418 56.4681 77.9485 56.8636C78.0951 57.514 78.2418 58.165 78.3884 58.8154C78.5223 59.4104 78.6561 60.0054 78.7907 60.6004C82.565 59.7519 86.1987 59.0402 89.8855 58.4285C94.0567 57.7361 96.1688 57.4359 100.233 56.9637C100.111 55.9184 99.9882 54.8725 99.8651 53.8266C99.6653 52.1249 99.4655 50.4227 99.2657 48.7204C97.617 48.9118 96.6235 49.0379 94.9782 49.264Z" fill="#20C4F4"/>
<path d="M94.9782 49.264C95.0434 49.7276 95.1087 50.1912 95.1739 50.6548L95.6152 53.7872L95.6717 54.1935L95.2627 54.2502C92.2297 54.6697 90.7532 54.8999 87.739 55.4221L87.3321 55.4929L87.2608 55.0893L79.7728 12.6467L79.7015 12.2431L80.1084 12.1724C81.2042 11.983 83.841 11.532 85.1211 11.3219C85.0081 10.6315 84.8944 9.94113 84.7814 9.25074C84.6818 8.64506 84.5823 8.03872 84.4827 7.43305C80.8167 8.02738 74.4103 9.10199 69.319 10.1472C69.8262 11.8249 71.2818 13.3764 73.5809 13.3204C73.5803 13.3144 73.6623 13.307 73.7545 13.301C73.8675 13.293 73.9852 13.285 74.1117 13.2483L74.5449 13.1229L74.633 13.5618L83.0116 55.3955L83.0923 55.7977L82.6867 55.8771C80.7656 56.2553 79.7418 56.4681 77.9485 56.8636C78.0951 57.514 78.2418 58.165 78.3884 58.8154C78.5223 59.4104 78.6561 60.0054 78.7907 60.6004C82.565 59.7519 86.1987 59.0402 89.8855 58.4285C94.0567 57.7361 96.1688 57.4359 100.233 56.9637C100.111 55.9184 99.9882 54.8725 99.8651 53.8266C99.6653 52.1249 99.4655 50.4227 99.2657 48.7204C97.617 48.9118 96.6235 49.0379 94.9782 49.264Z" stroke="white" stroke-width="1.228"/>
<path d="M68.75 40.2984C68.4547 39.1604 68.195 38.1365 67.9636 37.2273L67.6569 36.0213C67.4067 35.0434 67.1242 33.9728 66.8127 32.8075C65.8939 33.0182 64.975 33.229 64.0562 33.4391L63.6465 33.5332L63.8752 34.4937L64.0091 35.0441L64.1066 35.4423L63.705 35.539C63.5086 35.5864 63.3082 35.6471 63.107 35.7144C60.6169 36.3595 58.4173 36.9798 54.9638 38.0117L54.569 38.1298L54.3975 37.7162L52.2766 30.7423L48.8023 19.3152L48.6826 18.923L49.0781 18.8049C52.9338 17.6516 54.8259 17.1246 58.7206 16.1167L59.1202 16.0133L59.2245 16.4102C59.5937 17.813 59.963 19.2165 60.3317 20.6192C60.5819 20.5552 60.8321 20.4912 61.0817 20.4271C62.6967 20.0176 63.5618 19.8048 65.0779 19.4459C65.0113 19.081 64.8055 18.2099 64.5102 16.9625L64.005 14.8146C63.7481 13.7133 63.4461 12.6554 63.1091 11.6702C63.1198 11.6909 63.1111 11.6822 63.0707 11.6468C60.6559 12.1798 57.035 13.0109 52.8497 14.1783L50.2969 14.886C46.1702 16.026 42.8863 16.9332 38.5146 18.448C39.2929 19.9842 41.4817 21.6532 43.3356 21.0515L43.7271 20.9247L43.8562 21.313C46.3309 28.7412 48.8023 36.1714 51.2541 43.6069L57.3666 62.1507L57.4944 62.5402L57.1022 62.6677L56.8432 62.7517L56.3488 62.9125C55.3782 63.228 54.1459 63.6289 52.6539 64.1285C52.8618 64.7128 53.069 65.2965 53.2768 65.8808C53.4847 66.4651 53.6925 67.0495 53.9004 67.6338C58.2074 66.1309 60.4588 65.4165 64.969 64.1131C67.6535 63.3374 70.1747 62.6463 72.6756 61.9999C72.8814 61.9706 73.7054 61.7758 74.8456 61.5063C74.9404 61.4843 75.0353 61.4616 75.1295 61.439C75.073 61.2095 75.0319 61.0614 75.0037 60.9974L74.929 60.91L74.9452 60.8099C74.9297 60.7152 74.894 60.4938 74.8248 60.1656C74.2981 57.6628 73.8232 55.8385 73.5393 54.7485L73.3368 53.9554C73.2864 53.7466 73.2366 53.5378 73.1868 53.329C71.6538 53.6919 70.7236 53.9214 69.1959 54.3156C69.4899 55.4322 69.7838 56.5489 70.0778 57.6655L70.1922 58.1017C70.2096 58.1684 70.2722 58.3546 70.3778 58.6601L70.5231 59.0783L70.0913 59.1897C66.8383 60.0308 65.2582 60.4711 62.0416 61.433L61.646 61.551L61.527 61.1588L58.1711 50.1246L56.365 44.1852L55.7939 42.3068L55.656 41.8546L55.5369 41.4623L55.9325 41.3443C58.6971 40.5171 60.6976 39.9415 62.7943 39.3838C63.3539 39.2631 63.9378 39.1244 64.5855 38.9529L64.9838 38.8475L65.0907 39.2431L65.2306 39.7587C65.3887 40.337 65.4849 40.6839 65.6221 41.1688C66.2019 41.0074 66.7818 40.846 67.3623 40.6846C67.8251 40.5558 68.2872 40.4271 68.75 40.2984Z" fill="#20C4F4"/>
<path d="M68.75 40.2984C68.4547 39.1604 68.195 38.1365 67.9636 37.2273L67.6569 36.0213C67.4067 35.0434 67.1242 33.9728 66.8127 32.8075C65.8939 33.0182 64.975 33.229 64.0562 33.4391L63.6465 33.5332L63.8752 34.4937L64.0091 35.0441L64.1066 35.4423L63.705 35.539C63.5086 35.5864 63.3082 35.6471 63.107 35.7144C60.6169 36.3595 58.4173 36.9798 54.9638 38.0117L54.569 38.1298L54.3975 37.7162L52.2766 30.7423L48.8023 19.3152L48.6826 18.923L49.0781 18.8049C52.9338 17.6516 54.8259 17.1246 58.7206 16.1167L59.1202 16.0133L59.2245 16.4102C59.5937 17.813 59.963 19.2165 60.3317 20.6192C60.5819 20.5552 60.8321 20.4912 61.0817 20.4271C62.6967 20.0176 63.5618 19.8048 65.0779 19.4459C65.0113 19.081 64.8055 18.2099 64.5102 16.9625L64.005 14.8146C63.7481 13.7133 63.4461 12.6554 63.1091 11.6702C63.1198 11.6909 63.1111 11.6822 63.0707 11.6468C60.6559 12.1798 57.035 13.0109 52.8497 14.1783L50.2969 14.886C46.1702 16.026 42.8863 16.9332 38.5146 18.448C39.2929 19.9842 41.4817 21.6532 43.3356 21.0515L43.7271 20.9247L43.8562 21.313C46.3309 28.7412 48.8023 36.1714 51.2541 43.6069L57.3666 62.1507L57.4944 62.5402L57.1022 62.6677L56.8432 62.7517L56.3488 62.9125C55.3782 63.228 54.1459 63.6289 52.6539 64.1285C52.8618 64.7128 53.069 65.2965 53.2768 65.8808C53.4847 66.4651 53.6925 67.0495 53.9004 67.6338C58.2074 66.1309 60.4588 65.4165 64.969 64.1131C67.6535 63.3374 70.1747 62.6463 72.6756 61.9999C72.8814 61.9706 73.7054 61.7758 74.8456 61.5063C74.9404 61.4843 75.0353 61.4616 75.1295 61.439C75.073 61.2095 75.0319 61.0614 75.0037 60.9974L74.929 60.91L74.9452 60.8099C74.9297 60.7152 74.894 60.4938 74.8248 60.1656C74.2981 57.6628 73.8232 55.8385 73.5393 54.7485L73.3368 53.9554C73.2864 53.7466 73.2366 53.5378 73.1868 53.329C71.6538 53.6919 70.7236 53.9214 69.1959 54.3156C69.4899 55.4322 69.7838 56.5489 70.0778 57.6655L70.1922 58.1017C70.2096 58.1684 70.2722 58.3546 70.3778 58.6601L70.5231 59.0783L70.0913 59.1897C66.8383 60.0308 65.2582 60.4711 62.0416 61.433L61.646 61.551L61.527 61.1588L58.1711 50.1246L56.365 44.1852L55.7939 42.3068L55.656 41.8546L55.5369 41.4623L55.9325 41.3443C58.6971 40.5171 60.6976 39.9415 62.7943 39.3838C63.3539 39.2631 63.9378 39.1244 64.5855 38.9529L64.9838 38.8475L65.0907 39.2431L65.2306 39.7587C65.3887 40.337 65.4849 40.6839 65.6221 41.1688C66.2019 41.0074 66.7818 40.846 67.3623 40.6846C67.8251 40.5558 68.2872 40.4271 68.75 40.2984Z" stroke="white" stroke-width="1.228"/>
<path d="M42.1952 46.8253C41.4774 44.6307 40.7146 42.679 40.1019 41.1108C39.8362 40.431 39.5953 39.816 39.3935 39.2704L35.5984 29.0379L33.5892 23.6202C33.3241 22.9058 32.788 22.3982 31.9499 22.0687C30.8293 21.7432 29.718 21.7732 28.6828 22.1707C28.2005 22.3562 27.7868 22.5269 27.3146 22.7217L26.3971 23.0986C20.4791 25.5046 16.8185 27.0375 14.5274 28.0694C11.4432 29.4588 8.35372 30.971 5.33887 32.5673C6.34382 34.0027 8.88781 35.1894 9.76832 34.7638L10.1396 34.5844L10.3206 34.9526L29.0703 73.1355L29.2512 73.5037L28.8799 73.6832L28.3128 73.958C27.6516 74.2795 27.2662 74.4689 26.6998 74.7504C26.9763 75.2961 27.2527 75.841 27.5299 76.386C27.844 77.0064 28.1581 77.626 28.4729 78.2457C29.7503 77.6441 30.8992 77.1104 31.9176 76.6368L33.2549 76.0145C34.352 75.5028 35.5513 74.9312 36.8583 74.3048C36.3229 73.1135 35.7868 71.9222 35.2506 70.7308C34.8746 70.8989 34.4979 71.067 34.1213 71.2358L33.5125 71.5113L33.1372 71.682L32.9649 71.3098L26.2754 56.8456L26.1032 56.4734L26.4785 56.3027C26.5464 56.272 26.6541 56.21 26.8034 56.1186C30.8306 54.3155 33.6531 53.1702 35.1699 52.5552L35.7854 52.3051L37.0204 51.8001C38.7296 51.1024 39.9875 50.5881 40.2465 50.458L40.2788 50.4354C40.8088 50.0638 41.2474 49.6549 41.581 49.22C42.0445 48.5029 42.1514 48.1874 42.173 48.0654C42.2947 47.357 42.2523 47.0001 42.1952 46.8253ZM36.5179 47.5097C33.8663 48.5483 32.4571 49.1273 29.7187 50.2999C28.6996 50.7355 27.1559 51.4026 25.0982 52.3344C22.3766 46.4504 19.6557 40.5665 16.9342 34.6825C16.5433 33.836 16.1519 32.9895 15.7604 32.143C19.8791 30.2773 24.0953 28.4963 28.3054 26.8427C31.0432 33.7319 33.7802 40.6205 36.5179 47.5097Z" fill="#20C4F4"/>
<path d="M42.1952 46.8253C41.4774 44.6307 40.7146 42.679 40.1019 41.1108C39.8362 40.431 39.5953 39.816 39.3935 39.2704L35.5984 29.0379L33.5892 23.6202C33.3241 22.9058 32.788 22.3982 31.9499 22.0687C30.8293 21.7432 29.718 21.7732 28.6828 22.1707C28.2005 22.3562 27.7868 22.5269 27.3146 22.7217L26.3971 23.0986C20.4791 25.5046 16.8185 27.0375 14.5274 28.0694C11.4432 29.4588 8.35372 30.971 5.33887 32.5673C6.34382 34.0027 8.88781 35.1894 9.76832 34.7638L10.1396 34.5844L10.3206 34.9526L29.0703 73.1355L29.2512 73.5037L28.8799 73.6832L28.3128 73.958C27.6516 74.2795 27.2662 74.4689 26.6998 74.7504C26.9763 75.2961 27.2527 75.841 27.5299 76.386C27.844 77.0064 28.1581 77.626 28.4729 78.2457C29.7503 77.6441 30.8992 77.1104 31.9176 76.6368L33.2549 76.0145C34.352 75.5028 35.5513 74.9312 36.8583 74.3048C36.3229 73.1135 35.7868 71.9222 35.2506 70.7308C34.8746 70.8989 34.4979 71.067 34.1213 71.2358L33.5125 71.5113L33.1372 71.682L32.9649 71.3098L26.2754 56.8456L26.1032 56.4734L26.4785 56.3027C26.5464 56.272 26.6541 56.21 26.8034 56.1186C30.8306 54.3155 33.6531 53.1702 35.1699 52.5552L35.7854 52.3051L37.0204 51.8001C38.7296 51.1024 39.9875 50.5881 40.2465 50.458L40.2788 50.4354C40.8088 50.0638 41.2474 49.6549 41.581 49.22C42.0445 48.5029 42.1514 48.1874 42.173 48.0654C42.2947 47.357 42.2523 47.0001 42.1952 46.8253ZM36.5179 47.5097C33.8663 48.5483 32.4571 49.1273 29.7187 50.2999C28.6996 50.7355 27.1559 51.4026 25.0982 52.3344C22.3766 46.4504 19.6557 40.5665 16.9342 34.6825C16.5433 33.836 16.1519 32.9895 15.7604 32.143C19.8791 30.2773 24.0953 28.4963 28.3054 26.8427C31.0432 33.7319 33.7802 40.6205 36.5179 47.5097Z" stroke="white" stroke-width="1.228"/>
</svg>
