<svg width="256" height="232" viewBox="0 0 256 232" fill="none" xmlns="http://www.w3.org/2000/svg">
<path d="M173.433 189.702L231.261 221.569L196.204 165.537L196.865 164.615C201.385 158.312 203.26 153.406 204.974 147.06L205.209 146.188L206.067 145.897C214.41 143.068 224.605 137.333 228.198 129.722C229.861 126.201 229.968 122.482 228.516 118.668L227.891 117.027L229.557 116.462C244.822 111.286 253.208 104.289 252.566 97.2693C252.128 92.4828 247.415 87.5333 239.296 83.3322C230.141 78.5952 216.876 74.8573 200.934 72.5222L200.115 72.4022L197.331 67.5365L227.63 10.5812L174.873 44.2955L173.935 43.6194C160.865 34.1988 144.295 28.812 127.278 28.4526C118.725 28.2748 110.378 29.3609 102.469 31.6876C94.216 34.1168 86.6618 37.8376 80.0168 42.7473L79.1016 43.4235L23.5177 9.95229L56.5822 64.9031L55.9866 65.7951C53.1073 70.1069 50.4623 75.0588 48.9113 79.0417L48.5931 79.8578L47.7419 80.0717C47.2273 80.2009 46.6109 80.3482 45.9079 80.5163C38.2717 82.3439 17.9888 87.197 12.6275 97.9075C10.7782 101.603 10.8445 105.619 12.8308 110.185L13.495 111.711L11.9768 112.401C6.09687 115.075 3.21385 118.236 3.40837 121.795C3.63021 125.86 7.6993 130.6 15.1757 135.502C23.0823 140.686 34.5847 145.84 48.4394 150.404L49.1836 150.65L49.4795 151.373C50.1224 152.943 53.1434 159.156 55.0413 162.263L55.5322 163.066L55.108 163.907C52.2459 169.579 33.0411 206.921 25.6356 221.318L78.7867 187.004L79.7472 187.797C91.6386 197.615 107.948 203.206 125.671 203.54C134.167 203.699 142.544 202.65 150.556 200.419C158.742 198.14 166.147 194.736 172.566 190.3L173.433 189.702ZM16.8045 231.057L19.7084 225.413C19.9872 224.872 46.7239 172.912 51.6535 163.209C49.9001 160.184 47.6103 155.524 46.6493 153.383C32.8378 148.785 21.3205 143.588 13.3088 138.334C4.77416 132.738 0.301666 127.235 0.0145231 121.979C-0.298092 116.245 4.49072 112.389 9.11095 110.02C7.34826 105.127 7.50665 100.55 9.58704 96.3935C15.6555 84.27 36.2992 79.3298 45.115 77.2207C45.4554 77.1392 45.7754 77.0627 46.0727 76.9905C47.6321 73.1937 49.9492 68.8491 52.5659 64.8156L13.5658 0L78.9173 39.353C85.6559 34.5373 93.2503 30.867 101.508 28.4369C109.752 26.0105 118.447 24.8745 127.35 25.0639C144.643 25.4293 161.507 30.7966 174.98 40.2014L236.703 0.757695L201.21 67.4768L202.248 69.2904C218.196 71.6876 231.534 75.4973 240.861 80.3237C250.178 85.144 255.395 90.897 255.95 96.9613C256.733 105.52 248.329 113.356 232.244 119.117C233.425 123.249 233.101 127.295 231.273 131.166C227.354 139.467 216.854 145.652 208.018 148.807C206.382 154.673 204.417 159.68 200.284 165.656L241.073 230.848L173.627 193.681C167.102 198.042 159.653 201.405 151.47 203.684C143.139 206.003 134.436 207.094 125.607 206.929C107.593 206.589 90.9393 201.011 78.5514 191.194L16.8045 231.057Z" fill="black"/>
<path d="M173.433 189.469L231.262 221.337L196.204 165.304L196.865 164.383C201.385 158.08 203.261 153.173 204.974 146.828L205.21 145.956L206.068 145.664C214.411 142.835 224.606 137.101 228.199 129.49C229.862 125.969 229.969 122.249 228.517 118.436L227.892 116.795L229.558 116.23C244.822 111.053 253.209 104.057 252.566 97.037C252.128 92.2505 247.416 87.301 239.297 83.0999C230.142 78.363 216.876 74.6246 200.935 72.2899L200.116 72.17L197.332 67.3043L227.63 10.349L174.874 44.0633L173.935 43.3871C160.865 33.9665 144.296 28.5798 127.278 28.2204C118.726 28.0426 110.378 29.1286 102.47 31.4554C94.2167 33.8845 86.6625 37.6053 80.0175 42.515L79.1023 43.1912L23.5184 9.72005L56.5829 64.6709L55.9873 65.5629C53.108 69.8747 50.463 74.8265 48.912 78.8095L48.5938 79.6255L47.7426 79.8395C47.228 79.9687 46.6116 80.1159 45.9086 80.2841C38.2724 82.1116 17.9895 86.9648 12.6282 97.6752C10.7789 101.371 10.8451 105.386 12.8315 109.952L13.4957 111.478L11.9775 112.169C6.09756 114.843 3.21455 118.004 3.40907 121.563C3.63091 125.628 7.7 130.367 15.1764 135.27C23.083 140.454 34.5854 145.607 48.4401 150.172L49.1843 150.417L49.4802 151.141C50.1231 152.71 53.1441 158.924 55.042 162.031L55.5329 162.834L55.1087 163.675C52.2461 169.347 33.0418 206.689 25.6363 221.086L78.7874 186.772L79.7479 187.565C91.6393 197.382 107.949 202.973 125.671 203.308C134.168 203.467 142.544 202.418 150.556 200.187C158.742 197.908 166.148 194.504 172.567 190.068L173.433 189.469Z" fill="#FFE902"/>
<path d="M196.51 75.8424L191.468 67.0262L210.806 30.2288L214.609 23.417L174.157 49.3317C133.671 21.6705 98.2713 34.485 78.0634 47.7903L35.5102 21.9202L61.1173 65.3283C56.9241 70.8581 53.7373 76.8326 51.6717 83.1965C40.8145 85.772 16.663 91.13 15.9261 103.612C14.9475 113.233 33.9054 117.194 40.6149 121.997C47.5943 126.995 13.8712 112.098 8.48539 118.663C6.42445 121.32 8.03662 125.973 12.8041 129.217C25.0373 137.54 38.7822 142.316 52.3303 147.498C54.6293 152.519 57.2618 157.43 60.3995 162.173C52.9115 177.193 44.8609 191.99 37.2594 207.01C50.9664 197.958 64.1689 189.521 78.1542 181.028L91.2563 189.056C115.275 202.603 150.757 199.899 172.631 183.587L217.366 208.451L190.135 164.876C195.111 157.951 198.239 150.245 201.425 142.597C210.772 140.859 229.359 128.146 223.574 120.645C220.177 116.935 210.735 128.283 213.109 123.499C214.421 120.762 216.128 117.525 217.917 114.621C239.393 109.716 246.186 105.106 247.129 98.8018C249.11 86.0994 213.071 78.29 196.51 75.8424Z" fill="#FFE902"/>
<path d="M46.0374 197.207L63.0321 165.576C65.2973 168.602 68.8148 172.376 71.1666 175.059C62.8325 181.707 46.0374 197.207 46.0374 197.207ZM136.262 37.3126C149.428 39.4921 165.434 45.6138 174.192 53.2319L203.152 34.4217C203.152 34.4217 187.43 55.7537 179.993 65.6393C176.802 65.4739 174.671 63.2833 172.544 60.7727C170.863 58.652 169.079 54.7968 168.082 53.8048C167.489 53.2157 167.581 58.8229 168.645 61.7804C147.601 60.065 126.482 58.6626 98.6216 74.7366C82.6963 75.8176 70.024 79.2772 55.923 81.9666C71.0091 45.888 106.551 32.3941 136.262 37.3126ZM44.9194 31.3257C44.9194 31.3257 74.2631 49.0345 75.5969 50.0321C72.4291 52.3598 63.9686 61.3071 63.9686 61.3071L44.9194 31.3257ZM196.51 75.8424L191.468 67.0262L210.806 30.2288L214.609 23.417L174.157 49.3317C133.671 21.6705 98.2713 34.485 78.0634 47.7903L35.5102 21.9202L61.1173 65.3283C56.9241 70.8581 53.7373 76.8326 51.6717 83.1965C40.8145 85.772 16.663 91.13 15.9261 103.612C14.9475 113.233 33.9054 117.194 40.6149 121.997C47.5943 126.995 13.8712 112.098 8.48539 118.663C6.42445 121.32 8.03662 125.973 12.8041 129.217C25.0373 137.54 38.7822 142.316 52.3303 147.498C54.6293 152.519 57.2618 157.43 60.3995 162.173C52.9115 177.193 44.8609 191.99 37.2594 207.01C50.9664 197.958 64.1689 189.521 78.1542 181.028L91.2563 189.056C115.275 202.603 150.757 199.899 172.631 183.587L217.366 208.451L190.135 164.876C195.111 157.951 198.239 150.245 201.425 142.597C210.772 140.859 229.359 128.146 223.574 120.645C220.177 116.935 210.735 128.283 213.109 123.499C214.421 120.762 216.128 117.525 217.917 114.621C239.393 109.716 246.186 105.106 247.129 98.8018C249.11 86.0994 213.071 78.29 196.51 75.8424Z" fill="black"/>
<path d="M105.723 162.963C105.723 163.113 105.679 163.342 105.592 163.651C105.442 164.165 105.22 164.576 104.927 164.885C104.499 165.336 103.945 165.637 103.262 165.787C102.835 165.883 102.086 165.954 101.016 166.002L101.017 168.303L105.072 168.3L105.08 180.159L108.553 180.156L108.542 162.962L105.723 162.963Z" fill="#FFE902"/>
<path d="M118.77 171.178C118.357 171.449 117.918 171.583 117.45 171.583C116.586 171.584 115.944 171.331 115.523 170.825C115.111 170.312 114.904 169.545 114.903 168.525C114.902 167.316 115.227 166.458 115.878 165.951C116.289 165.627 116.785 165.464 117.363 165.464C118.155 165.463 118.779 165.747 119.23 166.316C119.691 166.885 119.921 167.656 119.922 168.628C119.921 169.839 119.538 170.689 118.77 171.178ZM117.197 162.811C115.493 162.813 114.106 163.386 113.038 164.534C111.975 165.673 111.445 167.163 111.446 169.006C111.448 170.784 111.98 172.147 113.044 173.095C114.107 174.036 115.324 174.504 116.694 174.503C117.622 174.503 118.402 174.313 119.036 173.934C119.386 173.728 119.714 173.432 120.022 173.044C119.961 174.348 119.808 175.339 119.562 176.021C119.111 177.254 118.326 177.87 117.207 177.871C116.628 177.872 116.165 177.715 115.816 177.399C115.467 177.083 115.253 176.671 115.174 176.166L111.797 176.168C111.948 177.63 112.54 178.744 113.572 179.51C114.602 180.268 115.762 180.648 117.055 180.647C119.069 180.645 121.629 179.319 122.64 176.67C123.171 175.278 123.437 173.543 123.435 171.463C123.432 169.321 123.154 167.594 122.599 166.281C121.622 163.967 119.821 162.809 117.197 162.811Z" fill="#FFE902"/>
<path d="M128.457 173.628L132.482 166.51L132.487 173.625L128.457 173.628ZM137.577 173.791L135.626 173.792L135.62 163.048L131.813 163.051L125.483 173.491L125.485 176.443L132.311 176.438L132.314 180.138L135.631 180.136L135.628 176.436L137.579 176.435L137.577 173.791Z" fill="#FFE902"/>
<path d="M147.333 176.935C146.897 177.402 146.291 177.636 145.514 177.636C144.736 177.637 144.126 177.404 143.682 176.937C143.246 176.472 143.028 175.816 143.028 174.97C143.027 174.092 143.247 173.428 143.691 172.977C144.144 172.519 144.749 172.288 145.51 172.287C146.272 172.288 146.874 172.517 147.317 172.974C147.77 173.425 147.997 174.089 147.997 174.966C147.996 175.812 147.776 176.469 147.333 176.935ZM144.068 165.992C144.457 165.605 144.992 165.411 145.673 165.41C146.362 165.41 146.893 165.603 147.267 165.99C147.647 166.37 147.837 166.899 147.838 167.579C147.838 168.204 147.649 168.713 147.269 169.109C146.896 169.505 146.365 169.702 145.676 169.702C144.994 169.703 144.459 169.506 144.07 169.111C143.689 168.716 143.498 168.206 143.498 167.582C143.498 166.901 143.687 166.371 144.068 165.992ZM150.933 172.738C150.503 171.955 149.864 171.327 149.016 170.853C149.848 170.379 150.387 169.821 150.633 169.181C150.885 168.532 151.013 167.928 151.012 167.366C151.011 166.117 150.539 165.054 149.595 164.177C148.65 163.292 147.319 162.85 145.598 162.851C143.879 162.853 142.546 163.296 141.604 164.182C140.661 165.061 140.189 166.125 140.19 167.373C140.191 167.935 140.314 168.539 140.561 169.188C140.816 169.827 141.359 170.424 142.192 170.977C141.344 171.373 140.698 171.962 140.254 172.745C139.819 173.529 139.601 174.402 139.602 175.366C139.603 176.813 140.099 178.046 141.09 179.065C142.083 180.077 143.542 180.581 145.467 180.58C147.394 180.579 148.891 180.072 149.961 179.059C151.039 178.038 151.577 176.804 151.576 175.359C151.575 174.393 151.36 173.52 150.933 172.738Z" fill="#FFE902"/>
<path d="M196.745 127.138C195.402 128.312 193.141 130.796 191.576 129.628C190.009 128.46 191.831 125.112 193.584 122.985C195.337 120.858 199.823 117.991 200.634 120.189C201.445 122.388 198.535 125.072 196.745 127.138ZM204.686 128.197C206.699 124.177 210.452 117.73 211.282 116.137C209.142 116.555 205.77 116.459 203.967 117.665C203.346 116.198 201.779 115.469 198.982 115.317C189.558 114.72 171.702 129.697 178.891 136.866C182.968 141.101 192.241 135.501 194 133.842C194.206 135.828 196.354 136.855 198.033 137.244C200.552 137.745 203.182 137.353 205.252 136.066C207.209 134.949 209.47 132.823 210.509 131.43C204.164 132.234 204.08 129.687 204.686 128.197Z" fill="#FFE902"/>
<path d="M148.137 98.1559C146.566 99.5301 143.621 102.357 144.258 105.346C144.828 107.13 146.484 107.847 148.83 107.424C151.927 106.866 156.786 101.011 155.472 97.8795C154.158 94.7482 149.708 96.7818 148.137 98.1559Z" fill="#FFE902"/>
<path d="M57.756 98.9827C57.0298 101.507 63.3951 102.415 67.7852 102.782C67.7852 102.782 70.7251 96.7448 73.867 94.2087C67.3285 95.0757 58.4822 96.4581 57.756 98.9827Z" fill="#FFE902"/>
<path d="M114.71 123.107C113.207 124.421 110.677 127.202 108.924 125.894C107.171 124.586 109.211 120.84 111.173 118.459C113.135 116.078 118.156 112.869 119.064 115.329C119.971 117.79 116.714 120.795 114.71 123.107ZM147.941 111.605L140.795 111.962C138.223 115.035 130.647 129.576 124.417 128.029C119.316 125.368 131.264 111.605 131.264 111.605C131.175 111.704 124.4 111.244 122.653 113.228C122.412 110.763 121.977 109.291 116.733 109.612C106.831 110.218 98.6085 117.72 96.247 123.298C93.7173 129.273 95.3661 133.001 99.2124 134.301C103.059 135.602 108.941 133.782 112.833 129.086C111.586 130.591 112.844 134.495 115.281 135.341C120.913 137.297 128.017 132.523 129.178 131.475C132.658 137.452 144.789 131.56 146.037 125.613C144.752 126.688 138.34 129.568 139.248 126.054C140.464 121.345 147.941 111.605 147.941 111.605Z" fill="#FFE902"/>
<path d="M201.764 92.6579C203.396 95.4788 203.831 97.8663 203.94 100.796C207.857 99.4937 207.313 93.4174 201.764 92.6579Z" fill="#FFE902"/>
<path d="M201.884 103.024C190.437 104.986 181.346 106.276 181.346 106.276C186.099 99.4074 192.416 87.7373 202.715 90.354C209.507 91.7972 213.332 101.063 201.884 103.024ZM161.369 108.345C153.199 109.104 151.809 112.542 155.55 112.367C159.29 112.192 159.355 112.365 159.355 112.365C153.655 122.417 154.375 131.903 135.7 139.52C112.912 148.815 53.2226 140.459 57.112 135.834C61.0014 131.209 89.5745 135.685 89.6379 119.559C89.5286 108.955 75.384 108.288 67.677 107.237C57.7558 105.884 41.7605 101.92 57.0254 93.7715C70.5522 86.5508 104.317 83.7312 138.402 83.6349C155.402 83.5863 168.236 84.7293 181.894 86.6179C173.838 91.981 164.632 102.359 161.369 108.345ZM226.589 87.6104C221.753 86.1761 208.844 83.4367 199.609 82.2145C161.94 77.44 119.57 75.6259 82.1328 82.2941C63.2735 85.9913 22.7961 93.4543 21.8059 103.041C20.8157 112.627 42.9299 116.835 51.8087 120.278C56.9221 122.26 64.8237 126.693 54.348 128.53C42.9295 130.532 13.0346 118.499 14.506 123.6C15.9778 128.702 35.1558 135.632 46.1283 139.811C79.38 150.617 130.595 158.715 156.595 140.985C168.935 132.57 174.843 122.923 179.649 112.593C197.335 112.302 221.243 108.8 228.311 107.016C236.142 105.04 242.005 102.069 242.085 98.1717C242.203 92.4516 231.424 89.0448 226.589 87.6104Z" fill="#FFE902"/>
</svg>
