<svg width="265" height="192" viewBox="0 0 265 192" fill="none" xmlns="http://www.w3.org/2000/svg">
<path d="M224.075 108.32C224.075 108.32 201.135 123.515 196.866 191.441C196.866 191.441 157.623 103.316 90.2821 148.839C90.2821 148.839 104.391 105.641 16.5383 116.543C16.5383 116.543 101.725 70.9625 98.5225 68.1021C95.3205 65.2418 80.382 58.9869 54.7745 58.6288C54.7745 58.6288 93.8983 48.9763 98.5225 48.9763L115.06 39.1448C115.06 39.1448 108.302 33.2465 86.0736 27.1692C86.0736 27.1692 101.189 25.5607 120.22 27.3483L228.699 84.011L224.075 108.32Z" fill="#ED1C24"/>
<path d="M217.329 150.091C217.329 150.091 299.301 76.009 247.708 50.7125C247.708 50.7125 263.691 15.9778 240.517 13.4908C203.487 9.51477 180.86 18.4709 153.474 6.46028e-05C153.474 6.46028e-05 161.106 12.5603 152.051 14.1213C139.602 16.2655 68.4679 14.2989 68.4679 14.2989C68.4679 14.2989 126.877 29.0905 107.235 33.7828C85.5395 38.9664 43.3918 48.7979 43.3918 48.7979C43.3918 48.7979 98.8183 52.7311 88.5635 62.2045C77.2565 72.6497 25.8861 99.0772 0 111.002C0 111.002 103.146 98.6686 85.5395 145.501C103.561 128.342 163.789 108.56 195.219 177.737C195.219 177.737 202.107 118.41 222.002 107.449C222.002 107.449 223.68 120.699 217.329 150.091Z" fill="white"/>
<path d="M242.214 51.1802C242.214 51.1802 257.45 25.8576 243.699 18.2315C232.233 11.8741 190.579 20.7582 170.692 12.0761C165.21 10.3666 158.837 5.76764 158.837 5.76764C158.837 5.76764 164.195 13.0204 158.572 15.8471C152.408 18.9462 106.405 17.5168 85.7767 16.8021C85.7767 16.8021 128.457 27.7645 114.467 33.7225C104.64 37.9067 56.6671 47.827 56.6671 47.827C56.6671 47.827 96.6543 50.9873 96.4472 58.5094C96.2097 67.089 36.6933 98.0726 15.5212 107.059C15.5212 107.059 102.026 93.8103 90.5196 136.921C107.634 119.956 164.361 105.937 193.428 168.857C193.428 168.857 195.8 94.4409 248.454 90.5857C256.079 90.0271 240.783 62.8971 240.783 62.8971L242.214 51.1802Z" fill="black"/>
<path d="M242.036 50.0497C242.036 50.0497 253.419 23.2365 233.858 21.2699C233.858 21.2699 217.672 50.8837 168.056 16.5638C167.82 23.714 140.195 21.8071 107.118 20.3776C107.118 20.3776 136.066 24.7822 133.2 30.8642C131.067 35.3912 99.5304 42.5414 79.849 46.5939C79.849 46.5939 128.107 50.0435 115.416 62.7997C99.5304 78.7682 39.303 99.98 39.303 99.98C39.303 99.98 113.047 91.1617 95.736 126.435C95.736 126.435 118.735 101.648 147.665 116.902L235.811 61.1315L242.036 50.0497Z" fill="white"/>
<mask id="mask0_18_244" style="mask-type:luminance" maskUnits="userSpaceOnUse" x="30" y="13" width="218" height="118">
<path d="M155.608 19.3041C144.048 20.1979 97.4555 18.946 97.4555 18.946C97.4555 18.946 125.554 25.0234 121.997 29.6713C112.571 39.1462 74.5142 45.0445 69.89 46.4754C69.89 46.4754 113.816 53.0869 110.97 58.9867C104.026 73.3896 45.7046 96.793 30.7661 101.888C30.7661 101.888 102.791 100.278 93.3643 130.306C93.3643 130.306 121.819 106.891 149.563 118.153C149.563 118.153 129.999 102.69 103.68 114.22C103.68 114.22 98.0768 90.3575 53.8841 96.1655C53.8841 96.1655 174.636 55.2341 93.7206 45.5801C93.7206 45.5801 141.56 38.2524 138.358 29.6713C136.619 25.0081 122.708 22.3436 122.708 22.3436C122.708 22.3436 168.769 25.9171 169.479 19.6607C169.479 19.6607 209.848 51.6575 234.568 22.8808C234.568 22.8808 248.972 23.2374 242.215 50.049L245.771 50.4056C245.771 50.4056 253.863 21.8079 233.857 18.946C233.857 18.946 225.676 33.427 204.513 29.6713C183.35 25.9171 167.702 13.0477 167.702 13.0477C167.702 13.0477 167.167 18.4104 155.608 19.3041Z" fill="white"/>
</mask>
<g mask="url(#mask0_18_244)">
<path d="M242.036 50.0496C242.036 50.0496 253.419 23.2364 233.858 21.2698C233.858 21.2698 217.672 50.8837 168.056 16.5637C167.82 23.7139 140.195 21.807 107.118 20.3776C107.118 20.3776 136.066 24.7822 133.2 30.8641C131.067 35.3911 99.5304 42.5413 79.849 46.5939C79.849 46.5939 128.107 50.0435 115.416 62.7996C99.5304 78.7682 39.303 99.9799 39.303 99.9799C39.303 99.9799 113.047 91.1616 95.736 126.435C95.736 126.435 118.735 101.648 147.665 116.902L235.811 61.1315L242.036 50.0496Z" fill="#BCBEC0"/>
</g>
<path d="M190.82 54.6962C190.82 54.6962 159.046 46.2359 151.34 24.6675C151.34 24.6675 151.162 40.278 155.253 45.9972C155.253 45.9972 147.25 46.2956 143.515 47.3685C143.515 47.3685 158.927 51.242 164.143 61.4898C164.143 61.4898 160.705 49.4544 164.322 47.1894C164.322 47.1894 167.524 50.2273 169.835 51.4792C169.835 51.4792 165.211 68.8175 176.95 68.9965C176.95 68.9965 176.771 56.1271 182.106 55.5899C187.441 55.0543 190.82 54.6962 190.82 54.6962Z" fill="black"/>
<path d="M236.109 44.6273C236.109 44.6273 239.606 44.0916 241.799 45.9373C241.799 45.9373 237.236 47.5473 236.879 50.0496H232.79C232.79 50.0496 233.026 47.6667 232.314 45.997C232.314 45.997 230.833 46.9658 229.721 49.5124C228.85 51.5112 227.276 51.6581 227.276 51.6581L222.207 50.6296C222.207 50.6296 235.323 43.4795 237.59 25.6193C237.59 25.6193 238.776 37.6562 236.109 44.6273Z" fill="black"/>
<path d="M221.407 141.391C221.407 141.391 299.122 67.0299 235.811 49.156C187.441 43.0786 183.528 88.4804 155.252 90.9827C144.582 89.7323 152.763 61.1316 145.649 59.8812C138.536 58.6293 114.172 69.7112 125.376 92.2346C136.579 114.756 157.564 123.158 158.453 124.767C159.342 126.375 176.772 134.061 187.797 152.293C192.053 159.33 192.954 167.308 192.954 167.308C192.954 167.308 196.866 122.086 221.407 100.635C221.407 100.635 229.054 104.031 221.407 141.391Z" fill="black"/>
<path d="M228.166 127.983C228.166 127.983 279.638 72.0661 239.904 56.8414C196.984 40.3969 174.577 102.577 151.696 94.7364C141.263 91.1613 146.005 66.8519 143.515 65.6C141.026 64.3481 125.139 71.3789 129.288 85.6196C134.064 102.014 149.562 114.04 171.792 131.559C185.322 142.221 190.82 152.651 190.82 152.651C190.82 152.651 191.888 141.926 157.032 115.293C122.174 88.659 135.512 73.4649 137.113 73.2858C138.713 73.1083 137.291 85.9777 142.626 91.876C147.961 97.7743 157.415 110.033 194.555 88.1219C210.916 78.4694 230.833 84.7258 228.166 127.983Z" fill="#FAA619"/>
<path d="M190.82 152.651C190.82 152.651 191.814 148.516 176.355 131.44C158.986 112.254 137.042 101.893 133.674 84.9633C132.252 77.8147 135.926 74.1799 135.926 74.1799C135.926 74.1799 125.019 84.9052 141.261 102.124C152.973 114.539 173.57 128.519 184.417 141.687C190.852 149.497 190.82 152.651 190.82 152.651Z" fill="#FFC20D"/>
<mask id="mask1_18_244" style="mask-type:luminance" maskUnits="userSpaceOnUse" x="139" y="54" width="116" height="74">
<path d="M185.908 74.741C173.147 86.585 162.473 98.4306 151.696 94.7346C141.263 91.161 146.005 66.8516 143.515 65.5997C142.883 65.2829 141.386 65.4987 139.574 66.2318C141.248 66.1017 142.821 66.4307 143.695 67.7454C145.068 69.8161 141.557 96.3446 153.651 96.3446C161.94 97.7618 172.046 87.664 183.823 77.5677C197.317 66.0022 213 54.4352 230.655 60.1805C248.29 65.9135 247.353 95.7278 228.22 127.076C228.202 127.376 228.184 127.68 228.165 127.983C228.165 127.983 279.638 72.0658 239.903 56.8411C234.853 54.9066 230.087 54.0603 225.571 54.0603C209.784 54.0603 197.052 64.3999 185.908 74.741Z" fill="white"/>
</mask>
<g mask="url(#mask1_18_244)">
<path d="M228.166 127.983C228.166 127.983 279.638 72.066 239.904 56.8413C196.984 40.3968 174.577 102.577 151.696 94.7363C141.263 91.1612 146.005 66.8518 143.515 65.6C141.026 64.3481 125.139 71.3789 129.288 85.6195C134.064 102.014 149.562 114.04 171.792 131.559C185.322 142.221 190.82 152.651 190.82 152.651C190.82 152.651 191.888 141.926 157.032 115.293C122.174 88.659 135.512 73.4648 137.113 73.2858C138.713 73.1083 137.291 85.9777 142.626 91.8759C147.961 97.7742 157.415 110.033 194.555 88.1218C210.916 78.4694 230.833 84.7258 228.166 127.983Z" fill="#FFC20D"/>
</g>
<path d="M155.727 105.462C155.727 105.462 170.667 106.654 176.593 103.079C176.593 103.079 190.82 110.466 209.078 149.552C209.078 149.552 188.212 114.519 155.727 105.462Z" fill="#ED1C24"/>
<path d="M215.54 62.9184C215.54 62.9184 199.324 62.496 201.846 71.6771C203.249 76.7857 208.515 69.4426 210.339 67.3888C212.16 65.3319 215.54 62.9184 215.54 62.9184Z" fill="black"/>
</svg>
