<svg width="213" height="256" viewBox="0 0 213 256" fill="none" xmlns="http://www.w3.org/2000/svg">
<path d="M211.247 26.9421L106.263 0L1.27675 26.9421C-2.55495 59.4029 2.59604 99.7655 11.9446 134.774C26.3216 188.612 58.1828 224.354 106.254 256C106.254 256 106.259 255.995 106.263 255.995C106.263 255.995 106.267 255.998 106.27 256C157.537 223.629 186.496 187.197 200.579 134.772C209.98 99.7797 215.077 59.4029 211.247 26.9421Z" fill="white"/>
<path d="M207.487 29.7649L106.262 3.78842L5.03744 29.7649C1.34271 61.0635 6.30987 99.9787 15.3232 133.735C29.1847 185.643 59.9051 220.104 106.253 250.616C106.257 250.615 106.259 250.611 106.262 250.611L106.269 250.616C155.699 219.408 183.621 184.277 197.199 133.733C206.265 99.9928 211.18 61.0635 207.487 29.7649Z" fill="#0C2576"/>
<path d="M76.1536 134.199C70.1663 134.095 65.2334 138.609 65.1343 144.285C65.0369 149.96 69.8076 154.644 75.7949 154.751C81.7822 154.855 86.7151 150.339 86.8142 144.663C86.9151 138.99 82.1426 134.304 76.1536 134.199Z" fill="white"/>
<path d="M147.425 144.285C147.326 138.609 142.393 134.096 136.405 134.199C130.416 134.303 125.646 138.99 125.745 144.663C125.844 150.339 130.779 154.855 136.764 154.751C142.751 154.644 147.524 149.962 147.425 144.285Z" fill="white"/>
<path d="M140.228 25.7933V54.8649C148.845 60.4511 159.491 76.2864 156.618 90.017C154.796 98.7284 147.32 105.852 139.604 105.852L72.2736 105.854C67.0379 105.854 57.8695 102.006 55.2778 90.6814C52.4284 78.2317 59.7115 65.3143 71.5743 54.7728V25.7933C44.1251 52.0816 31.5378 80.4818 31.5378 116.04C31.5378 156.356 48.3101 182.607 71.7401 204.418V171.626C61.339 163.099 54.1117 155.263 54.1117 144.137C54.1117 132.677 62.5699 124.737 73.227 124.737H100.57H106.274H138.786C150.353 124.737 158.025 133.719 158.025 144.03C158.025 155.419 150.422 163.282 140.233 170.825V204.557C163.908 182.501 179.961 155.949 179.961 116.04C179.961 80.6607 167.938 52.1666 140.228 25.7933Z" fill="#FF6600"/>
<path d="M105.878 128.503L100.435 128.496L100.408 223.208L106.068 228.034L111.064 223.276L111.065 128.496H107.336L105.878 128.503Z" fill="#FF6600"/>
<path d="M111.06 102.119L111.034 74.1497V72.8759H100.466V74.1497L100.419 102.119H111.06Z" fill="#FF6600"/>
<path d="M100.466 74.1497L100.466 72.8748H111.035L111.034 74.1497L111.06 102.119H100.419L100.466 74.1497ZM72.2727 105.855L139.603 105.851C147.321 105.851 154.795 98.7291 156.617 90.0177C159.49 76.2871 148.845 60.4518 140.229 54.8639V68.9771C148.507 71.7463 153.295 77.8373 153.295 85.0339C153.295 94.7233 145.56 102.12 137.797 102.12H114.468L114.472 69.2907H97.0201L97.0309 102.12H73.8064C67.2064 102.12 58.9194 95.8944 58.9194 85.856C58.9194 76.1719 65.7267 70.2155 71.5734 68.7858V54.7735C59.7106 65.3133 52.4293 78.2306 55.2787 90.6821C57.8704 102.005 67.037 105.855 72.2727 105.855Z" fill="white"/>
<path d="M106.068 228.034L100.409 223.208L100.436 128.495L105.879 128.502L107.335 128.495H111.064L111.063 223.275L106.068 228.034ZM138.786 124.737H106.274L106.25 124.737L100.57 124.737H73.227C62.5699 124.737 54.1117 132.677 54.1117 144.137C54.1117 155.263 61.3406 163.1 71.7399 171.625V160.594C65.859 158.741 58.8065 153.917 58.8065 143.96C58.8065 136.934 63.3592 128.495 74.355 128.495H96.6117L96.0999 225.32L106.068 234.243L115.545 225.32L115.033 128.495H137.836C148.352 128.495 153.682 137.329 153.682 143.985C153.682 152.099 146.514 158.722 140.233 160.529L140.233 170.825C150.422 163.282 158.025 155.419 158.025 144.03C158.025 133.719 150.353 124.737 138.786 124.737Z" fill="white"/>
<path d="M76.1536 75.737C70.1663 75.6325 65.2334 80.1467 65.1343 85.8232C65.0369 91.4979 69.8076 96.1823 75.7949 96.2886C81.7822 96.3931 86.7151 91.8771 86.8142 86.2006C86.9151 80.5276 82.1426 75.8415 76.1536 75.737Z" fill="white"/>
<path d="M147.425 85.823C147.326 80.1465 142.393 75.6341 136.405 75.7368C130.416 75.8413 125.646 80.5275 125.745 86.2004C125.844 91.8769 130.779 96.3929 136.764 96.2884C142.751 96.1821 147.524 91.4995 147.425 85.823Z" fill="white"/>
</svg>
