<svg width="256" height="256" viewBox="0 0 256 256" fill="none" xmlns="http://www.w3.org/2000/svg">
<path d="M128.001 0C57.4207 0 0 57.4207 0 128C0 198.579 57.4207 256 128.001 256C198.579 256 256 198.579 256 128C256 57.4207 198.579 0 128.001 0Z" fill="#040606"/>
<path d="M156.867 176.145C123.747 182.234 92.5624 184.334 71.0123 182.086C70.7884 181.197 70.4222 180.39 70.245 180.059C79.1416 173.975 90.1189 165.778 102.403 155.852C110.187 157.508 118.194 157.966 124.567 157.966C132.556 157.966 143.57 157.184 151.649 155.334L152.387 146.774C163.755 151.844 174.332 151.461 174.332 151.461C186.062 151.461 195.64 146.99 202.018 138.53C210.324 127.522 213.496 114.108 211.186 99.7409C210.05 92.6685 207.813 86.8035 206.095 83.1393C206.095 83.1393 207.615 67.9927 203.164 59.0766C206.824 54.8662 210.467 50.5652 214.068 46.1797C234.341 67.5023 246.8 96.3229 246.8 128C246.8 135.978 246.004 143.772 244.497 151.313C218.214 161.813 187.969 170.428 156.867 176.145ZM167.738 239.977C146.956 234.521 126.495 226.495 108.221 216.477C92.7591 208.002 79.5231 198.453 70.2457 189.281C70.7305 188.591 71.1658 187.356 71.306 186.324C76.9826 186.9 83.2229 187.195 89.9647 187.195C109.345 187.195 132.687 184.845 157.623 180.261C187.947 174.688 217.481 166.376 243.399 156.249C233.865 195.204 205.079 226.681 167.738 239.977ZM128 246.822C107.049 246.822 87.3531 241.363 70.245 231.802C67.2798 218.886 65.0699 204.135 64.3291 192.729C65.3148 192.729 66.6171 192.333 67.1277 192.063C76.7266 201.588 90.3511 211.455 106.209 220.147C119.168 227.252 137.607 235.81 160.338 242.346C150.053 245.261 139.205 246.822 128 246.822ZM34.9896 201.835C42.2608 197.372 49.5244 192.954 55.9732 189.104C57.1716 190.354 58.5827 191.337 60.0845 191.964C60.6949 202.677 62.6111 216.332 65.2855 228.871C53.7062 221.644 43.455 212.481 34.9896 201.835ZM14.5688 163.354C25.6041 171.341 38.3155 178.275 52.6292 182.624C52.7149 183.55 53.3665 185.295 53.5974 185.647C47.0809 189.539 39.7517 193.999 32.4289 198.496C24.6477 187.97 18.556 176.124 14.5688 163.354ZM9.19983 128.001C9.19983 99.0977 19.5751 72.577 36.7899 51.9554C36.6434 59.1401 36.6951 66.5425 36.935 74.0809L24.345 105.996L38.9579 103.944C36.8185 109.945 34.788 117.642 34.4531 125.833C34.0904 134.696 35.4785 141.704 38.6991 147.259C40.879 151.02 43.8749 154.005 47.6368 156.193C49.7469 164.156 52.0488 170.739 54.4351 175.463C54.0508 175.889 53.2346 176.887 52.8538 178.315C37.553 173.513 24.1357 165.634 12.719 156.732C10.4254 147.527 9.19983 137.905 9.19983 128.001ZM41.1077 47.0642C60.1473 26.6295 86.2817 12.892 115.549 9.82904C111.218 18.3266 106.529 27.9437 101.772 38.4313C98.2348 46.232 94.5071 54.869 90.7878 64.1318C87.5847 64.2831 83.4036 64.6138 76.1916 66.6806C62.2588 70.6273 47.8503 72.4884 41.0889 73.2062C40.8183 64.2399 40.8259 55.4843 41.1077 47.0642ZM88.3931 139.152L85.3679 125.823C85.3679 125.823 78.979 129.001 73.1043 131.08C76.3765 118.075 80.2451 105.363 84.392 93.2718C90.9671 91.2845 95.8771 87.7703 98.3799 83.4992C98.7315 96.0871 96.9416 114.791 88.3931 139.152ZM64.9437 174.406C65.508 169.623 66.1999 164.833 66.9979 160.048C79.1116 158.759 90.0247 151.886 90.0247 151.886C92.3259 152.949 94.768 153.825 97.2757 154.562C86.0347 163.555 75.9817 171.036 67.8378 176.622C66.9686 175.729 65.9872 174.985 64.9437 174.406ZM59.1749 177.098C61.9909 176.528 65.5345 178.899 66.9135 182.275C67.6348 184.042 68.1559 187.876 64.7149 188.713C61.8989 189.283 58.3546 186.911 56.977 183.535C54.9464 177.915 59.1624 177.1 59.1749 177.098ZM60.7605 122.095C63.7055 107.618 66.5794 102.609 69.8565 96.3062L79.588 94.4061C75.4704 106.603 72.254 117.272 68.4419 132.473C60.3517 134.688 59.7867 126.882 60.7605 122.095ZM62.7234 160.239C62.0195 164.526 61.3966 168.818 60.8777 173.106C60.0434 173.027 58.9141 173.04 58.0365 173.316C56.1399 169.526 54.2977 164.479 52.5671 158.451C56.2752 159.786 59.8857 160.198 62.7234 160.239ZM179.125 74.5273C178.853 73.6749 178.975 71.5934 180.366 70.7166C181.756 69.8391 184.136 70.4313 187.079 71.705C190.159 73.0402 195.043 75.626 197.427 78.421C196.399 79.2434 191.962 80.5702 186.63 79.526C183.074 78.8298 179.978 77.2087 179.125 74.5273ZM122.219 109.129C127.108 106.27 137.249 99.9627 145.408 92.4187C148.917 89.1723 151.632 85.1384 153.291 80.7815C155.231 86.1003 160.001 91.5552 163.626 95.1685C157.727 101.045 152.038 106.539 146.712 111.552C139.38 118.451 132.126 125.027 125.069 131.225C120.348 131.225 119.239 128.951 119.239 126.278C119.232 122.761 120.79 115.266 122.219 109.129ZM121.642 75.513C123.638 73.9316 126.196 72.4863 128.55 71.8181C131.006 71.1205 132.918 71.4372 133.095 73.5766C133.338 76.5063 127.254 80.7174 122.074 83.5278C122.161 81.9367 122.025 77.2352 121.642 75.513ZM132.355 130.382C137.994 125.352 143.753 120.083 149.58 114.599C154.962 109.534 166.671 98.0479 166.671 98.0479C166.671 98.0479 179.531 108.206 182.116 112.702C182.866 113.982 183.214 115.941 182.551 117.909C181.648 120.589 177.771 123.743 174.242 123.743C169.221 123.743 161.791 119.531 161.791 119.531L153.506 133.806L154.558 121.624C154.558 121.624 144.083 128.022 132.355 130.382ZM128 9.17755C160.326 9.17755 189.673 22.1638 211.114 43.1879C207.746 47.2972 202.385 53.5751 200.914 55.2813C195.676 48.0833 186.701 44.4009 178.707 44.4002C175.598 44.4002 172.517 44.9311 169.55 45.9767C161.15 48.9371 155.593 54.0571 152.946 61.2223C149.702 54.9932 144.421 50.471 133.641 50.4703C127.06 50.4703 120.863 52.03 114.685 54.7204C109.931 56.7922 99.277 63.1259 95.4377 63.7928C98.8682 55.3315 102.295 47.4164 105.558 40.2191C110.733 28.8052 115.826 18.4305 120.458 9.42377C122.953 9.26682 125.466 9.17755 128 9.17755ZM128 5.23154C60.3057 5.23154 5.23147 60.305 5.23147 128.001C5.23147 195.694 60.3057 250.769 128 250.769C195.695 250.769 250.768 195.694 250.769 128.001C250.768 60.3057 195.694 5.23154 128 5.23154Z" fill="white"/>
<path d="M157.252 200.71C157.252 203.477 154.692 205.728 151.546 205.728C148.4 205.728 145.84 203.477 145.84 200.71C145.84 197.942 148.4 195.691 151.546 195.691C154.692 195.691 157.252 197.942 157.252 200.71ZM141.885 200.71C141.885 205.091 145.285 208.743 149.762 209.525L140.824 217.627C144.925 220.542 148.812 222.112 156.86 222.112C156.86 222.112 157.725 222.117 158.891 222.074C160.057 222.03 160.642 221.102 160.642 220.037C160.642 218.987 160.05 218.078 158.54 218.127C152.324 218.33 150.068 217.71 147.701 216.727C147.701 216.727 155.022 210.376 158.191 207.237C160.25 205.319 161.207 203.383 161.207 200.71C161.207 195.762 156.873 191.736 151.546 191.736C146.219 191.736 141.885 195.762 141.885 200.71Z" fill="white"/>
<path d="M174.914 195.779C178.019 195.263 180.913 197.065 181.367 199.794C181.821 202.525 179.664 205.165 176.56 205.681C173.456 206.196 170.562 204.395 170.109 201.665C169.655 198.936 171.811 196.295 174.914 195.779ZM175.422 209.717L167.575 219.857C172.287 220.393 175.818 222.398 184.487 220.972C184.487 220.972 185.343 220.834 186.485 220.6C187.628 220.367 188.054 219.354 187.88 218.304C187.707 217.269 186.973 216.469 185.492 216.764C179.393 217.984 177.161 217.631 174.665 217.05C174.665 217.05 180.751 209.695 183.362 206.079C185.079 203.85 185.706 201.782 185.268 199.146C184.457 194.266 179.522 191.005 174.266 191.878C169.011 192.751 165.396 197.433 166.207 202.314C166.925 206.636 170.878 209.681 175.422 209.717Z" fill="white"/>
<path d="M129.366 203.396C127.058 203.396 125.18 201.668 125.18 199.543C125.18 197.419 127.058 195.691 129.366 195.691C131.676 195.691 133.554 197.398 133.554 199.543C133.554 201.69 131.639 203.396 129.366 203.396ZM129.366 191.736C124.878 191.736 121.225 195.239 121.225 199.543C121.225 203.849 124.878 207.351 129.366 207.351C129.819 207.351 130.259 207.307 130.692 207.239C129.091 210.304 127.24 213.184 126.257 214.586C125.631 215.481 125.955 216.552 126.877 217.138C128.07 217.897 129.075 217.466 129.496 216.856C129.763 216.471 137.509 205.202 137.509 199.543C137.509 195.239 133.857 191.736 129.366 191.736Z" fill="white"/>
<path d="M114.288 192.434C112.929 192.434 112.306 193.161 112.306 194.095V207.853C112.306 208.788 112.931 209.514 114.288 209.514C115.646 209.514 116.269 208.788 116.269 207.852V194.094C116.269 193.161 115.644 192.434 114.288 192.434Z" fill="white"/>
<path d="M195.64 133.723C189.914 141.318 181.68 143.43 174.298 143.43C167.54 143.43 161.497 141.661 158.737 140.711L164.994 129.908C164.994 129.908 173.902 132.796 179.599 130.747C190.294 126.285 192.64 116.856 189.952 110.583C187.958 105.927 183.484 101.394 173.383 93.2969C162.442 83.7224 158.264 76.1875 159.394 68.1894C160.424 60.8917 164.495 56.2272 172.205 53.5088C182.458 49.9939 190.624 55.4508 193.761 59.1053C196.269 62.0287 197.299 65.891 197.734 68.5989C194.105 66.2446 187.467 62.6335 181.591 62.6328C178.732 62.6321 176.059 63.5103 174.007 65.8512C171.042 69.2329 170.189 73.2711 171.606 77.2227C173.442 82.3441 178.718 86.2789 185.333 87.4062C191.947 88.5334 197.01 86.8049 198.686 86.1164C201.309 91.5029 210.615 113.861 195.64 133.723ZM199.888 82.1467C198.427 83.0765 193.496 85.7613 185.661 84.4555C180.207 83.5466 175.875 80.3456 174.397 76.2224C173.663 74.1765 173.387 71.0549 176.236 67.8044C177.536 66.3228 179.345 65.5813 181.647 65.5813C190.523 65.7905 201.03 74.8587 201.03 74.8587C201.019 70.2102 200.893 62.865 196.011 57.1751C192.396 52.9619 183.388 46.6805 171.219 50.713C162.472 53.7962 157.644 59.378 156.458 67.7751C155.174 76.8718 159.939 85.6972 171.455 95.5493C172.043 96.0523 183.034 104.649 186.546 110.323C189.53 115.505 188.244 123.831 178.561 127.97C172.391 130.093 163.768 126.108 163.768 126.108L154.452 142.195C164.83 146.794 174.316 146.438 174.316 146.438C184.44 146.438 192.592 142.69 198.008 135.507C216.095 111.537 201.214 84.0133 199.888 82.1467Z" fill="#040606"/>
<path d="M114.775 135.656C117.069 137.909 120.434 139.251 124.42 139.115C133.771 138.775 141.665 136.293 145.396 134.911C145.106 138.28 144.572 144.459 144.22 148.533C141.485 148.977 133.597 149.943 124.284 149.943C114.594 149.943 103.36 148.897 94.7764 145.128C103.266 122.669 109.312 89.5211 104.907 68.7614C107.408 67.3733 114.225 63.6323 117.875 62.0426C122.963 59.7603 127.274 58.5535 133.02 58.46C137.481 58.46 142.805 59.6075 145.272 63.7816C149.168 70.3742 146.894 80.1642 139.985 86.5538C130.002 95.7872 115.271 103.883 115.271 103.883C115.271 103.883 111.376 119.44 111.25 126.446C111.185 130.091 112.437 133.361 114.775 135.656ZM117.835 105.854C120.636 104.281 132.782 97.2528 141.998 88.7308C149.909 81.4149 152.414 70.0407 147.824 62.2728C145.18 57.7995 139.735 55.4927 133.056 55.4927C126.474 55.6329 121.969 57.0259 116.691 59.325C112.051 61.3458 101.542 67.247 101.542 67.247C109.006 100.376 93.0939 141.126 90.9573 146.777C100.035 151.355 112.694 152.944 124.567 152.944C132.935 152.944 140.912 152.155 146.976 151.069L148.772 130.255C148.772 130.255 138.391 135.603 124.312 136.152C124.312 136.152 124.308 136.152 124.306 136.152C115.21 136.152 114.165 129.325 114.215 126.5C114.32 120.624 117.142 108.702 117.835 105.854Z" fill="#040606"/>
<path d="M129.369 68.7467C132.9 68.1531 135.007 69.3082 135.744 71.2425C136.756 73.8946 136.446 77.5386 128.947 82.6586C124.579 85.5646 119.18 88.5264 119.18 88.5264C119.263 85.0763 119.323 79.5524 118.415 74.0864C122.478 71.2418 125.66 69.3703 129.369 68.7467ZM115.829 93.6638C115.829 93.6638 121.667 90.6413 130.48 84.994C138.977 79.5489 140.715 74.0425 138.63 69.3787C137.028 65.7975 132.003 65.282 129.097 65.7472C124.768 66.4399 120.171 68.6658 114.917 72.6153C114.917 72.6153 116.785 79.7275 115.829 93.6638Z" fill="#040606"/>
<path d="M63.1377 152.266C61.0005 152.266 58.8269 152.008 56.6812 151.386C46.3785 148.401 41.8507 140.384 42.4331 126.159C43.0567 110.909 50.2938 97.4921 52.2713 94.01L36.8018 96.1814L42.7526 81.097C46.6456 80.7007 62.2979 78.9157 78.405 74.3551C82.8037 73.0612 86.1987 72.2646 87.6363 72.3302C89.0977 72.3971 91.5433 72.1955 92.2618 75.7196C93.1916 80.2759 87.8247 84.5394 79.5559 86.2749L64.6535 89.185C63.9713 90.186 54.9227 106.539 52.8273 122.882C52.0453 128.86 52.8029 133.448 55.8051 136.722C58.2584 139.395 62.0259 141.032 66.5906 140.803C71.1554 140.574 77.1668 138.402 79.7108 137.362L81.9848 146.991C78.587 148.666 71.1233 152.266 63.1377 152.266ZM66.0326 137.849C55.5701 137.849 55.0267 129.653 55.6203 123.047C56.8535 110.28 65.0651 94.4913 66.5369 91.8371L80.144 89.1808C90.1182 87.0861 96.2573 81.3906 95.0715 75.3289C94.7743 73.8097 93.8557 69.3363 88.0548 69.4681C85.5786 69.4681 82.2443 70.1364 77.5826 71.5064C59.3835 76.6592 40.6648 78.3103 40.6648 78.3103L32.1778 99.824L46.9477 97.7516C44.6213 102.648 39.9687 113.859 39.4713 126.039C38.8324 141.632 44.1749 150.916 55.856 154.233C58.3065 154.93 60.7682 155.233 63.2103 155.234C70.9133 155.233 79.0432 151.927 85.3902 148.674L81.793 133.147C79.8859 134.059 72.5651 137.668 66.0326 137.849Z" fill="#040606"/>
</svg>
