<svg width="256" height="256" viewBox="0 0 256 256" fill="none" xmlns="http://www.w3.org/2000/svg">
<path d="M128 0C57.3081 0 0 57.3078 0 128C0 198.693 57.3081 256 128 256C198.693 256 256 198.693 256 128C256 57.3078 198.693 0 128 0Z" fill="white"/>
<path d="M201.969 95.4108C175.214 70.0858 128 32.7227 128 32.7227C128 32.7227 80.8843 69.9929 54.0311 95.4108C31.6666 116.581 28.1316 147.292 44.7669 170.098C61.4018 192.904 91.9375 196.935 112.971 179.102C114.361 177.923 115.666 176.671 116.902 175.367C115.198 181.788 112.165 187.871 107.762 193.13C92.4432 211.425 59.506 217.476 39.3396 187.32C27.9952 170.356 21.3324 149.955 21.3324 128C21.3324 69.0894 69.085 21.3323 128 21.3323C186.916 21.3323 234.668 69.0918 234.668 128C234.668 149.955 228.005 170.356 216.661 187.32C196.494 217.476 163.557 211.425 148.238 193.13C143.835 187.871 140.802 181.788 139.098 175.367C140.335 176.671 141.639 177.923 143.03 179.102C164.063 196.935 194.599 192.904 211.233 170.098C227.869 147.292 224.334 116.581 201.969 95.4108ZM128 5.33326C60.2533 5.33326 5.33336 60.2532 5.33336 128C5.33336 195.747 60.2533 250.667 128 250.667C195.748 250.667 250.667 195.747 250.667 128C250.667 60.2532 195.748 5.33326 128 5.33326Z" fill="black"/>
</svg>
